<?xml version="1.0" encoding="UTF-8" standalone="no"?>
<!-- rdm c4 draw: view C2, workspace sha256:3a97be1b07e0dbf85a05d1b03d66964e68c1106dbdc363c54f2832385f1a0473 -->
<!DOCTYPE svg PUBLIC "-//W3C//DTD SVG 1.1//EN"
 "http://www.w3.org/Graphics/SVG/1.1/DTD/svg11.dtd">
<!-- Generated by graphviz version 2.43.0 (0)
 -->
<!-- Title: %3 Pages: 1 -->
<svg width="3236pt" height="1568pt"
 viewBox="0.00 0.00 3235.50 1567.62" xmlns="http://www.w3.org/2000/svg" xmlns:xlink="http://www.w3.org/1999/xlink">
<g id="graph0" class="graph" transform="scale(1 1) rotate(0) translate(4 1563.62)">
<title>%3</title>
<polygon fill="white" stroke="transparent" points="-4,4 -4,-1563.62 3231.5,-1563.62 3231.5,4 -4,4"/>
<text text-anchor="start" x="1448.25" y="-11.8" font-family="Arial" font-size="34.00">RDM: containers (C2)</text>
<g id="clust1" class="cluster">
<title>cluster_4</title>
<polygon fill="none" stroke="#444444" points="1584,-64 1584,-1301.62 2829,-1301.62 2829,-64 1584,-64"/>
<text text-anchor="start" x="2179" y="-92.8" font-family="Arial" font-size="24.00" fill="#444444">RDM</text>
<text text-anchor="start" x="2129.5" y="-72.8" font-family="Arial" font-size="19.00" fill="#444444">[Software System]</text>
</g>
<!-- 1 -->
<g id="1" class="node">
<title>1</title>
<polygon fill="#08427b" stroke="#052e56" points="1065,-1002.62 679,-1002.62 679,-819.62 1065,-819.62 1065,-1002.62"/>
<text text-anchor="start" x="736.5" y="-954.42" font-family="Arial" font-size="34.00" fill="#ffffff">Regulatory author</text>
<text text-anchor="start" x="836.5" y="-932.42" font-family="Arial" font-size="19.00" fill="#ffffff">[Person]</text>
<text text-anchor="start" x="708" y="-895.42" font-family="Arial" font-size="24.00" fill="#ffffff">Writes the record; renders and</text>
<text text-anchor="start" x="756.5" y="-871.42" font-family="Arial" font-size="24.00" fill="#ffffff">checks the regulatory</text>
<text text-anchor="start" x="812.5" y="-847.42" font-family="Arial" font-size="24.00" fill="#ffffff">documents</text>
</g>
<!-- 5 -->
<g id="5" class="node">
<title>5</title>
<polygon fill="#438dd5" stroke="#2e6295" points="2401.5,-680.62 2032.5,-680.62 2032.5,-473.62 2401.5,-473.62 2401.5,-680.62"/>
<text text-anchor="start" x="2187.5" y="-632.42" font-family="Arial" font-size="34.00" fill="#ffffff">rdm</text>
<text text-anchor="start" x="2135.5" y="-610.42" font-family="Arial" font-size="19.00" fill="#ffffff">[Container: Python]</text>
<text text-anchor="start" x="2077" y="-573.42" font-family="Arial" font-size="24.00" fill="#ffffff">The command line: gates,</text>
<text text-anchor="start" x="2061.5" y="-549.42" font-family="Arial" font-size="24.00" fill="#ffffff">rendering, graph build, query</text>
<text text-anchor="start" x="2070.5" y="-525.42" font-family="Arial" font-size="24.00" fill="#ffffff">and validate, and the agent</text>
<text text-anchor="start" x="2183" y="-501.42" font-family="Arial" font-size="24.00" fill="#ffffff">server</text>
</g>
<!-- 1&#45;&gt;5 -->
<g id="69" class="edge">
<title>1&#45;&gt;5</title>
<path fill="none" stroke="#444444" stroke-dasharray="5,2" d="M977.12,-819.62C1029.18,-780.38 1095.12,-738.47 1162,-716.62 1338.55,-658.95 1816.58,-724.69 1997,-680.62 2005.48,-678.55 2014.02,-676.15 2022.57,-673.48"/>
<polygon fill="#444444" stroke="#444444" points="2023.78,-676.76 2032.21,-670.35 2021.62,-670.1 2023.78,-676.76"/>
<text text-anchor="start" x="1162" y="-756.92" font-family="Arial" font-size="24.00" fill="#444444">renders documents and</text>
<text text-anchor="start" x="1169.5" y="-730.92" font-family="Arial" font-size="24.00" fill="#444444">checks the record with</text>
</g>
<!-- 2 -->
<g id="2" class="node">
<title>2</title>
<polygon fill="#08427b" stroke="#052e56" points="362,-1276.62 0,-1276.62 0,-1117.62 362,-1117.62 362,-1276.62"/>
<text text-anchor="start" x="113" y="-1228.42" font-family="Arial" font-size="34.00" fill="#ffffff">Engineer</text>
<text text-anchor="start" x="145.5" y="-1206.42" font-family="Arial" font-size="19.00" fill="#ffffff">[Person]</text>
<text text-anchor="start" x="29" y="-1169.42" font-family="Arial" font-size="24.00" fill="#ffffff">Changes the product and its</text>
<text text-anchor="start" x="49.5" y="-1145.42" font-family="Arial" font-size="24.00" fill="#ffffff">tagged acceptance tests</text>
</g>
<!-- 47 -->
<g id="47" class="node">
<title>47</title>
<polygon fill="#438dd5" stroke="#2e6295" points="2484.5,-1002.62 2105.5,-1002.62 2105.5,-819.62 2484.5,-819.62 2484.5,-1002.62"/>
<text text-anchor="start" x="2144" y="-954.42" font-family="Arial" font-size="34.00" fill="#ffffff">Acceptance test run</text>
<text text-anchor="start" x="2161" y="-932.42" font-family="Arial" font-size="19.00" fill="#ffffff">[Container: pytest, allure&#45;pytest]</text>
<text text-anchor="start" x="2134.5" y="-895.42" font-family="Arial" font-size="24.00" fill="#ffffff">Runs the tagged tests; RDM&#39;s</text>
<text text-anchor="start" x="2149" y="-871.42" font-family="Arial" font-size="24.00" fill="#ffffff">plugin labels each run from</text>
<text text-anchor="start" x="2240" y="-847.42" font-family="Arial" font-size="24.00" fill="#ffffff">the record</text>
</g>
<!-- 2&#45;&gt;47 -->
<g id="70" class="edge">
<title>2&#45;&gt;47</title>
<path fill="none" stroke="#444444" stroke-dasharray="5,2" d="M362.37,-1184C769.99,-1155.71 1747.97,-1081.7 2069,-1002.62 2077.82,-1000.45 2086.74,-998.01 2095.7,-995.35"/>
<polygon fill="#444444" stroke="#444444" points="2096.88,-998.65 2105.43,-992.39 2094.84,-991.96 2096.88,-998.65"/>
<text text-anchor="start" x="1841" y="-1053.92" font-family="Arial" font-size="24.00" fill="#444444">runs</text>
</g>
<!-- 53 -->
<g id="53" class="node">
<title>53</title>
<polygon fill="#438dd5" stroke="#2e6295" points="2035,-348.31 1637,-348.31 1637,-165.31 2035,-165.31 2035,-348.31"/>
<text text-anchor="start" x="1690" y="-300.11" font-family="Arial" font-size="34.00" fill="#ffffff">Documentation site</text>
<text text-anchor="start" x="1750" y="-278.11" font-family="Arial" font-size="19.00" fill="#ffffff">[Container: MkDocs]</text>
<text text-anchor="start" x="1691" y="-241.11" font-family="Arial" font-size="24.00" fill="#ffffff">The user manual, built with</text>
<text text-anchor="start" x="1666" y="-217.11" font-family="Arial" font-size="24.00" fill="#ffffff">MkDocs; a controlled document</text>
<text text-anchor="start" x="1763.5" y="-193.11" font-family="Arial" font-size="24.00" fill="#ffffff">lists its pages</text>
</g>
<!-- 2&#45;&gt;53 -->
<g id="92" class="edge">
<title>2&#45;&gt;53</title>
<path fill="none" stroke="#444444" stroke-dasharray="5,2" d="M163.3,-1117.55C149.59,-1036.55 141.16,-909.71 197,-819.62 351.41,-570.52 1220.44,-375.12 1626.67,-296.01"/>
<polygon fill="#444444" stroke="#444444" points="1627.63,-299.39 1636.77,-294.04 1626.29,-292.51 1627.63,-299.39"/>
<text text-anchor="start" x="303" y="-756.92" font-family="Arial" font-size="24.00" fill="#444444">learns to keep the record</text>
<text text-anchor="start" x="413" y="-730.92" font-family="Arial" font-size="24.00" fill="#444444">from</text>
</g>
<!-- 58 -->
<g id="58" class="node">
<title>58</title>
<polygon fill="#999999" stroke="#6b6b6b" points="3227.5,-336.31 2854.5,-336.31 2854.5,-177.31 3227.5,-177.31 3227.5,-336.31"/>
<text text-anchor="start" x="2902.5" y="-288.11" font-family="Arial" font-size="34.00" fill="#ffffff">Product repository</text>
<text text-anchor="start" x="2964" y="-266.11" font-family="Arial" font-size="19.00" fill="#ffffff">[Software System]</text>
<text text-anchor="start" x="2883.5" y="-229.11" font-family="Arial" font-size="24.00" fill="#ffffff">git: the Markdown record, the</text>
<text text-anchor="start" x="2892" y="-205.11" font-family="Arial" font-size="24.00" fill="#ffffff">tests and their Allure results</text>
</g>
<!-- 59 -->
<g id="59" class="node">
<title>59</title>
<polygon fill="#999999" stroke="#6b6b6b" points="2483.5,-1559.62 2106.5,-1559.62 2106.5,-1400.62 2483.5,-1400.62 2483.5,-1559.62"/>
<text text-anchor="start" x="2242" y="-1511.42" font-family="Arial" font-size="34.00" fill="#ffffff">GitHub</text>
<text text-anchor="start" x="2218" y="-1489.42" font-family="Arial" font-size="19.00" fill="#ffffff">[Software System]</text>
<text text-anchor="start" x="2135.5" y="-1452.42" font-family="Arial" font-size="24.00" fill="#ffffff">Pull requests, Actions and the</text>
<text text-anchor="start" x="2218.5" y="-1428.42" font-family="Arial" font-size="24.00" fill="#ffffff">image registry</text>
</g>
<!-- 49 -->
<g id="49" class="node">
<title>49</title>
<polygon fill="#438dd5" stroke="#2e6295" points="2492,-1276.62 2098,-1276.62 2098,-1117.62 2492,-1117.62 2492,-1276.62"/>
<text text-anchor="start" x="2176.5" y="-1228.42" font-family="Arial" font-size="34.00" fill="#ffffff">Reusable gates</text>
<text text-anchor="start" x="2180" y="-1206.42" font-family="Arial" font-size="19.00" fill="#ffffff">[Container: GitHub Actions]</text>
<text text-anchor="start" x="2127" y="-1169.42" font-family="Arial" font-size="24.00" fill="#ffffff">The workflow and actions other</text>
<text text-anchor="start" x="2210.5" y="-1145.42" font-family="Arial" font-size="24.00" fill="#ffffff">repositories call</text>
</g>
<!-- 59&#45;&gt;49 -->
<g id="77" class="edge">
<title>59&#45;&gt;49</title>
<path fill="none" stroke="#444444" stroke-dasharray="5,2" d="M2295,-1400.48C2295,-1365.16 2295,-1323.32 2295,-1286.88"/>
<polygon fill="#444444" stroke="#444444" points="2298.5,-1286.75 2295,-1276.75 2291.5,-1286.75 2298.5,-1286.75"/>
<text text-anchor="start" x="2295" y="-1345.42" font-family="Arial" font-size="24.00" fill="#444444">runs on every push and</text>
<text text-anchor="start" x="2359" y="-1319.42" font-family="Arial" font-size="24.00" fill="#444444">pull request</text>
</g>
<!-- 60 -->
<g id="60" class="node">
<title>60</title>
<polygon fill="#999999" stroke="#6b6b6b" points="1537,-1002.62 1137,-1002.62 1137,-819.62 1537,-819.62 1537,-1002.62"/>
<text text-anchor="start" x="1227" y="-954.42" font-family="Arial" font-size="34.00" fill="#ffffff">Agent harness</text>
<text text-anchor="start" x="1260" y="-932.42" font-family="Arial" font-size="19.00" fill="#ffffff">[Software System]</text>
<text text-anchor="start" x="1174" y="-895.42" font-family="Arial" font-size="24.00" fill="#ffffff">An MCP client such as Claude</text>
<text text-anchor="start" x="1166" y="-871.42" font-family="Arial" font-size="24.00" fill="#ffffff">Code, working under a person&#39;s</text>
<text text-anchor="start" x="1291" y="-847.42" font-family="Arial" font-size="24.00" fill="#ffffff">direction</text>
</g>
<!-- 60&#45;&gt;5 -->
<g id="76" class="edge">
<title>60&#45;&gt;5</title>
<path fill="none" stroke="#444444" stroke-dasharray="5,2" d="M1400.01,-819.48C1432.07,-780.84 1474.53,-739.47 1523,-716.62 1618.55,-671.58 1894.8,-707.36 1997,-680.62 2005.52,-678.4 2014.11,-675.85 2022.7,-673.05"/>
<polygon fill="#444444" stroke="#444444" points="2024.04,-676.29 2032.41,-669.79 2021.81,-669.66 2024.04,-676.29"/>
<text text-anchor="start" x="1523" y="-753.42" font-family="Arial" font-size="24.00" fill="#444444">calls the agent server of</text>
<text text-anchor="start" x="1582" y="-733.42" font-family="Arial" font-size="19.00" fill="#444444">[MCP over stdio]</text>
</g>
<!-- 61 -->
<g id="61" class="node">
<title>61</title>
<polygon fill="#999999" stroke="#6b6b6b" points="607,-978.62 233,-978.62 233,-843.62 607,-843.62 607,-978.62"/>
<text text-anchor="start" x="262" y="-930.42" font-family="Arial" font-size="34.00" fill="#ffffff">AWS Graph Explorer</text>
<text text-anchor="start" x="343" y="-908.42" font-family="Arial" font-size="19.00" fill="#ffffff">[Software System]</text>
<text text-anchor="start" x="331" y="-871.42" font-family="Arial" font-size="24.00" fill="#ffffff">A graph browser</text>
</g>
<!-- 56 -->
<g id="56" class="node">
<title>56</title>
<polygon fill="#438dd5" stroke="#2e6295" points="1960.5,-668.62 1609.5,-668.62 1609.5,-485.62 1960.5,-485.62 1960.5,-668.62"/>
<text text-anchor="start" x="1648" y="-620.42" font-family="Arial" font-size="34.00" fill="#ffffff">SPARQL endpoint</text>
<text text-anchor="start" x="1652" y="-598.42" font-family="Arial" font-size="19.00" fill="#ffffff">[Container: Python, pyoxigraph]</text>
<text text-anchor="start" x="1639" y="-561.42" font-family="Arial" font-size="24.00" fill="#ffffff">rdm graph serve: the store,</text>
<text text-anchor="start" x="1638.5" y="-537.42" font-family="Arial" font-size="24.00" fill="#ffffff">read&#45;only, refusing updates</text>
<text text-anchor="start" x="1709" y="-513.42" font-family="Arial" font-size="24.00" fill="#ffffff">and SERVICE</text>
</g>
<!-- 61&#45;&gt;56 -->
<g id="75" class="edge">
<title>61&#45;&gt;56</title>
<path fill="none" stroke="#444444" stroke-dasharray="5,2" d="M538.46,-843.55C619.55,-800.85 730.85,-747.77 835,-716.62 1093.59,-639.31 1405.16,-604.39 1599.21,-589.16"/>
<polygon fill="#444444" stroke="#444444" points="1599.52,-592.65 1609.22,-588.39 1598.98,-585.67 1599.52,-592.65"/>
<text text-anchor="start" x="886" y="-753.42" font-family="Arial" font-size="24.00" fill="#444444">queries</text>
<text text-anchor="start" x="835" y="-733.42" font-family="Arial" font-size="19.00" fill="#444444">[SPARQL over HTTP]</text>
</g>
<!-- 47&#45;&gt;58 -->
<g id="72" class="edge">
<title>47&#45;&gt;58</title>
<path fill="none" stroke="#444444" stroke-dasharray="5,2" d="M2484.59,-827.27C2528.78,-807.43 2565.97,-790.1 2576,-783.62 2771.26,-657.62 2833.61,-627.21 2968,-437.62 2987.51,-410.1 3002.93,-376.59 3014.47,-346"/>
<polygon fill="#444444" stroke="#444444" points="3017.76,-347.2 3017.93,-336.61 3011.19,-344.78 3017.76,-347.2"/>
<text text-anchor="start" x="2937" y="-570.92" font-family="Arial" font-size="24.00" fill="#444444">writes Allure results to</text>
</g>
<!-- 47&#45;&gt;5 -->
<g id="115" class="edge">
<title>47&#45;&gt;5</title>
<path fill="none" stroke="#444444" stroke-dasharray="5,2" d="M2291.16,-819.57C2288.32,-786.77 2283.43,-749.68 2275,-716.62 2272.8,-708 2270.15,-699.21 2267.22,-690.46"/>
<polygon fill="#444444" stroke="#444444" points="2270.52,-689.28 2263.93,-680.98 2263.9,-691.57 2270.52,-689.28"/>
<text text-anchor="start" x="2318" y="-756.92" font-family="Arial" font-size="24.00" fill="#444444">finds the risks each</text>
<text text-anchor="start" x="2286" y="-730.92" font-family="Arial" font-size="24.00" fill="#444444">design input controls with</text>
</g>
<!-- 49&#45;&gt;47 -->
<g id="78" class="edge">
<title>49&#45;&gt;47</title>
<path fill="none" stroke="#444444" stroke-dasharray="5,2" d="M2295,-1117.39C2295,-1085.05 2295,-1047.19 2295,-1012.86"/>
<polygon fill="#444444" stroke="#444444" points="2298.5,-1012.81 2295,-1002.81 2291.5,-1012.81 2298.5,-1012.81"/>
<text text-anchor="start" x="2295" y="-1053.92" font-family="Arial" font-size="24.00" fill="#444444">runs</text>
</g>
<!-- 49&#45;&gt;5 -->
<g id="79" class="edge">
<title>49&#45;&gt;5</title>
<path fill="none" stroke="#444444" stroke-dasharray="5,2" d="M2413.61,-1117.53C2452.97,-1086.07 2493.67,-1046.76 2521,-1002.62 2589.14,-892.57 2649.23,-823.36 2576,-716.62 2537.99,-661.22 2474.42,-627.97 2411.25,-608.02"/>
<polygon fill="#444444" stroke="#444444" points="2412.12,-604.62 2401.53,-605.05 2410.07,-611.32 2412.12,-604.62"/>
<text text-anchor="start" x="2609" y="-904.92" font-family="Arial" font-size="24.00" fill="#444444">installs and runs</text>
</g>
<!-- 57 -->
<g id="57" class="node">
<title>57</title>
<polygon fill="#438dd5" stroke="#2e6295" points="2033,-978.62 1609,-978.62 1609,-843.62 2033,-843.62 2033,-978.62"/>
<text text-anchor="start" x="1683.5" y="-930.42" font-family="Arial" font-size="34.00" fill="#ffffff">Documents image</text>
<text text-anchor="start" x="1638" y="-908.42" font-family="Arial" font-size="19.00" fill="#ffffff">[Container: Docker: Ubuntu, Pandoc, Typst]</text>
<text text-anchor="start" x="1651" y="-871.42" font-family="Arial" font-size="24.00" fill="#ffffff">Renders the documents to PDF</text>
</g>
<!-- 49&#45;&gt;57 -->
<g id="133" class="edge">
<title>49&#45;&gt;57</title>
<path fill="none" stroke="#444444" stroke-dasharray="5,2" d="M2097.62,-1130.51C2064.98,-1116.37 2032.26,-1100.04 2003,-1081.62 1961.21,-1055.32 1920.44,-1018.7 1888.12,-986.22"/>
<polygon fill="#444444" stroke="#444444" points="1890.45,-983.6 1880.93,-978.93 1885.46,-988.51 1890.45,-983.6"/>
<text text-anchor="start" x="2003" y="-1063.42" font-family="Arial" font-size="24.00" fill="#444444">renders the documents in</text>
<text text-anchor="start" x="2043.5" y="-1043.42" font-family="Arial" font-size="19.00" fill="#444444">[docker run make pdfs]</text>
</g>
<!-- 5&#45;&gt;58 -->
<g id="71" class="edge">
<title>5&#45;&gt;58</title>
<path fill="none" stroke="#444444" stroke-dasharray="5,2" d="M2401.57,-494.44C2488.55,-457.94 2594.43,-416.32 2692,-385.62 2759.46,-364.4 2780.21,-372.88 2847,-349.62 2855.46,-346.68 2864.05,-343.47 2872.66,-340.09"/>
<polygon fill="#444444" stroke="#444444" points="2874.02,-343.31 2882.01,-336.34 2871.42,-336.81 2874.02,-343.31"/>
<text text-anchor="start" x="2692" y="-418.43" font-family="Arial" font-size="24.00" fill="#444444">reads the record, results</text>
<text text-anchor="start" x="2719.5" y="-392.43" font-family="Arial" font-size="24.00" fill="#444444">and git history from</text>
</g>
<!-- 5&#45;&gt;47 -->
<g id="143" class="edge">
<title>5&#45;&gt;47</title>
<path fill="none" stroke="#444444" stroke-dasharray="5,2" d="M2032.42,-664.6C1986.72,-698.17 1958.28,-739.24 1988,-783.62 1990.03,-786.65 2038.33,-807.01 2096.04,-830.55"/>
<polygon fill="#444444" stroke="#444444" points="2094.79,-833.82 2105.37,-834.35 2097.43,-827.34 2094.79,-833.82"/>
<text text-anchor="start" x="1988" y="-765.42" font-family="Arial" font-size="24.00" fill="#444444">runs one test, unmutated</text>
<text text-anchor="start" x="2035" y="-741.42" font-family="Arial" font-size="24.00" fill="#444444">then mutated, in</text>
<text text-anchor="start" x="2040" y="-721.42" font-family="Arial" font-size="19.00" fill="#444444">[pytest subprocess]</text>
</g>
<!-- 5&#45;&gt;53 -->
<g id="91" class="edge">
<title>5&#45;&gt;53</title>
<path fill="none" stroke="#444444" stroke-dasharray="5,2" d="M2083.1,-473.43C2068.12,-461.49 2053.16,-449.38 2039,-437.62 2007.53,-411.49 1974.04,-382.38 1943.52,-355.33"/>
<polygon fill="#444444" stroke="#444444" points="1945.63,-352.52 1935.83,-348.5 1940.98,-357.76 1945.63,-352.52"/>
<text text-anchor="start" x="2039" y="-405.43" font-family="Arial" font-size="24.00" fill="#444444">reads the pages of</text>
</g>
<!-- 55 -->
<g id="55" class="node">
<title>55</title>
<path fill="#438dd5" stroke="#2e6295" d="M2506.5,-332.6C2506.5,-341.89 2420.22,-349.44 2314,-349.44 2207.78,-349.44 2121.5,-341.89 2121.5,-332.6 2121.5,-332.6 2121.5,-181.03 2121.5,-181.03 2121.5,-171.74 2207.78,-164.19 2314,-164.19 2420.22,-164.19 2506.5,-171.74 2506.5,-181.03 2506.5,-181.03 2506.5,-332.6 2506.5,-332.6"/>
<path fill="none" stroke="#2e6295" d="M2506.5,-332.6C2506.5,-323.3 2420.22,-315.76 2314,-315.76 2207.78,-315.76 2121.5,-323.3 2121.5,-332.6"/>
<text text-anchor="start" x="2224" y="-276.11" font-family="Arial" font-size="34.00" fill="#ffffff">Graph store</text>
<text text-anchor="start" x="2223.5" y="-254.11" font-family="Arial" font-size="19.00" fill="#ffffff">[Container: Oxigraph]</text>
<text text-anchor="start" x="2150.5" y="-217.11" font-family="Arial" font-size="24.00" fill="#ffffff">The record projected into RDF</text>
</g>
<!-- 5&#45;&gt;55 -->
<g id="73" class="edge">
<title>5&#45;&gt;55</title>
<path fill="none" stroke="#444444" stroke-dasharray="5,2" d="M2248.36,-473.22C2259.49,-436.7 2272,-395.65 2283.09,-359.26"/>
<polygon fill="#444444" stroke="#444444" points="2286.46,-360.21 2286.02,-349.62 2279.76,-358.17 2286.46,-360.21"/>
<text text-anchor="start" x="2274" y="-405.43" font-family="Arial" font-size="24.00" fill="#444444">builds</text>
</g>
<!-- 56&#45;&gt;55 -->
<g id="74" class="edge">
<title>56&#45;&gt;55</title>
<path fill="none" stroke="#444444" stroke-dasharray="5,2" d="M1756.31,-485.58C1751.03,-450.48 1753.31,-412.4 1777,-385.62 1820.62,-336.33 2007.09,-365.37 2071,-349.62 2084.3,-346.35 2097.87,-342.56 2111.45,-338.42"/>
<polygon fill="#444444" stroke="#444444" points="2112.83,-341.65 2121.34,-335.34 2110.75,-334.97 2112.83,-341.65"/>
<text text-anchor="start" x="1777" y="-405.43" font-family="Arial" font-size="24.00" fill="#444444">serves, read&#45;only</text>
</g>
<!-- 57&#45;&gt;5 -->
<g id="80" class="edge">
<title>57&#45;&gt;5</title>
<path fill="none" stroke="#444444" stroke-dasharray="5,2" d="M1802.78,-843.36C1795.84,-802.34 1795.43,-751.2 1824,-716.62 1874.03,-656.08 1922.47,-705.37 1997,-680.62 2005.59,-677.77 2014.29,-674.68 2023.01,-671.4"/>
<polygon fill="#444444" stroke="#444444" points="2024.4,-674.62 2032.49,-667.78 2021.9,-668.08 2024.4,-674.62"/>
<text text-anchor="start" x="1824" y="-743.92" font-family="Arial" font-size="24.00" fill="#444444">renders with</text>
</g>
</g>
</svg>
