<?xml version="1.0" encoding="UTF-8" standalone="no"?>
<!-- rdm c4 draw: view C3_architecture, workspace sha256:fc0246e8b8da42d60cd2ac2dcf76379f8a6c6302363d7a29582aadc475f7f51e -->
<!DOCTYPE svg PUBLIC "-//W3C//DTD SVG 1.1//EN"
 "http://www.w3.org/Graphics/SVG/1.1/DTD/svg11.dtd">
<!-- Generated by graphviz version 2.43.0 (0)
 -->
<!-- Title: %3 Pages: 1 -->
<svg width="1939pt" height="1043pt"
 viewBox="0.00 0.00 1938.50 1042.60" xmlns="http://www.w3.org/2000/svg" xmlns:xlink="http://www.w3.org/1999/xlink">
<g id="graph0" class="graph" transform="scale(1 1) rotate(0) translate(4 1038.6)">
<title>%3</title>
<polygon fill="white" stroke="transparent" points="-4,4 -4,-1038.6 1934.5,-1038.6 1934.5,4 -4,4"/>
<text text-anchor="start" x="733.75" y="-11.8" font-family="Arial" font-size="34.00">Architecture: components (C3)</text>
<g id="clust1" class="cluster">
<title>cluster_4</title>
<polygon fill="none" stroke="#444444" points="8,-64 8,-1026.6 1532,-1026.6 1532,-64 8,-64"/>
<text text-anchor="start" x="742.5" y="-92.8" font-family="Arial" font-size="24.00" fill="#444444">RDM</text>
<text text-anchor="start" x="693" y="-72.8" font-family="Arial" font-size="19.00" fill="#444444">[Software System]</text>
</g>
<g id="clust2" class="cluster">
<title>cluster_5</title>
<polygon fill="none" stroke="#444444" points="33,-164 33,-1001.6 1507,-1001.6 1507,-164 33,-164"/>
<text text-anchor="start" x="748.5" y="-192.8" font-family="Arial" font-size="24.00" fill="#444444">rdm</text>
<text text-anchor="start" x="688.5" y="-172.8" font-family="Arial" font-size="19.00" fill="#444444">[Container: Python]</text>
</g>
<g id="clust3" class="cluster">
<title>cluster_group_architecture</title>
<polygon fill="none" stroke="#cccccc" stroke-dasharray="5,2" points="529,-264 529,-952.6 997,-952.6 997,-264 529,-264"/>
<text text-anchor="start" x="699.5" y="-277.6" font-family="Arial" font-size="24.00" fill="#cccccc">architecture</text>
</g>
<g id="clust4" class="cluster">
<title>cluster_group_graph</title>
<polygon fill="none" stroke="#cccccc" stroke-dasharray="5,2" points="1022,-656.8 1022,-976.6 1482,-976.6 1482,-656.8 1022,-656.8"/>
<text text-anchor="start" x="1220.5" y="-670.4" font-family="Arial" font-size="24.00" fill="#cccccc">graph</text>
</g>
<g id="clust5" class="cluster">
<title>cluster_group_specification</title>
<polygon fill="none" stroke="#cccccc" stroke-dasharray="5,2" points="58,-668.8 58,-964.6 504,-964.6 504,-668.8 58,-668.8"/>
<text text-anchor="start" x="214.5" y="-682.4" font-family="Arial" font-size="24.00" fill="#cccccc">specification</text>
</g>
<!-- 54 -->
<g id="54" class="node">
<title>54</title>
<polygon fill="#999999" stroke="#6b6b6b" points="1930.5,-522.8 1557.5,-522.8 1557.5,-363.8 1930.5,-363.8 1930.5,-522.8"/>
<text text-anchor="start" x="1605.5" y="-474.6" font-family="Arial" font-size="34.00" fill="#ffffff">Product repository</text>
<text text-anchor="start" x="1667" y="-452.6" font-family="Arial" font-size="19.00" fill="#ffffff">[Software System]</text>
<text text-anchor="start" x="1586.5" y="-415.6" font-family="Arial" font-size="24.00" fill="#ffffff">git: the Markdown record, the</text>
<text text-anchor="start" x="1595" y="-391.6" font-family="Arial" font-size="24.00" fill="#ffffff">tests and their Allure results</text>
</g>
<!-- 27 -->
<g id="27" class="node">
<title>27</title>
<polygon fill="#85bbf0" stroke="#5d82a8" points="923.5,-534.8 554.5,-534.8 554.5,-351.8 923.5,-351.8 923.5,-534.8"/>
<text text-anchor="start" x="597" y="-486.6" font-family="Arial" font-size="34.00" fill="#000000">Architecture model</text>
<text text-anchor="start" x="650" y="-464.6" font-family="Arial" font-size="19.00" fill="#000000">[Component: Python]</text>
<text text-anchor="start" x="583.5" y="-427.6" font-family="Arial" font-size="24.00" fill="#000000">The C4 model, read from the</text>
<text text-anchor="start" x="605" y="-403.6" font-family="Arial" font-size="24.00" fill="#000000">workspace&#39;s export; view</text>
<text text-anchor="start" x="686" y="-379.6" font-family="Arial" font-size="24.00" fill="#000000">freshness</text>
</g>
<!-- 28 -->
<g id="28" class="node">
<title>28</title>
<polygon fill="#85bbf0" stroke="#5d82a8" points="972.5,-927.6 553.5,-927.6 553.5,-768.6 972.5,-768.6 972.5,-927.6"/>
<text text-anchor="start" x="608" y="-879.4" font-family="Arial" font-size="34.00" fill="#000000">Architecture drawing</text>
<text text-anchor="start" x="582.5" y="-857.4" font-family="Arial" font-size="19.00" fill="#000000">[Component: Python, Structurizr, Graphviz]</text>
<text text-anchor="start" x="634" y="-820.4" font-family="Arial" font-size="24.00" fill="#000000">rdm c4 draw: Structurizr</text>
<text text-anchor="start" x="594.5" y="-796.4" font-family="Arial" font-size="24.00" fill="#000000">export, Graphviz views, stamps</text>
</g>
<!-- 28&#45;&gt;54 -->
<g id="112" class="edge">
<title>28&#45;&gt;54</title>
<path fill="none" stroke="#444444" stroke-dasharray="5,2" d="M836.11,-768.51C880.23,-726.89 940.15,-679.73 1004,-656.8 1043.33,-642.67 1339.69,-659.81 1380,-648.8 1469.19,-624.45 1559.86,-573.6 1628.39,-528.7"/>
<polygon fill="#444444" stroke="#444444" points="1630.65,-531.41 1637.07,-522.97 1626.79,-525.56 1630.65,-531.41"/>
<text text-anchor="start" x="1571.5" y="-616.6" font-family="Arial" font-size="24.00" fill="#444444">writes the exported model</text>
<text text-anchor="start" x="1557" y="-590.6" font-family="Arial" font-size="24.00" fill="#444444">and stamped view images to</text>
</g>
<!-- 28&#45;&gt;27 -->
<g id="104" class="edge">
<title>28&#45;&gt;27</title>
<path fill="none" stroke="#444444" stroke-dasharray="5,2" d="M758.32,-768.48C754.51,-704.65 749.12,-614.22 745,-545.08"/>
<polygon fill="#444444" stroke="#444444" points="748.49,-544.81 744.41,-535.03 741.51,-545.23 748.49,-544.81"/>
<text text-anchor="start" x="764.5" y="-629.6" font-family="Arial" font-size="24.00" fill="#444444">takes the paths, view</text>
<text text-anchor="start" x="751" y="-603.6" font-family="Arial" font-size="24.00" fill="#444444">keys, stamp format and</text>
<text text-anchor="start" x="756" y="-577.6" font-family="Arial" font-size="24.00" fill="#444444">workspace digest from</text>
</g>
<!-- 39 -->
<g id="39" class="node">
<title>39</title>
<polygon fill="#85bbf0" stroke="#5d82a8" points="1457,-951.6 1047,-951.6 1047,-744.6 1457,-744.6 1457,-951.6"/>
<text text-anchor="start" x="1176.5" y="-903.4" font-family="Arial" font-size="34.00" fill="#000000">Projection</text>
<text text-anchor="start" x="1111" y="-881.4" font-family="Arial" font-size="19.00" fill="#000000">[Component: Python, pyoxigraph]</text>
<text text-anchor="start" x="1076" y="-844.4" font-family="Arial" font-size="24.00" fill="#000000">The record into RDF, one named</text>
<text text-anchor="start" x="1102.5" y="-820.4" font-family="Arial" font-size="24.00" fill="#000000">graph per source; the store;</text>
<text text-anchor="start" x="1094.5" y="-796.4" font-family="Arial" font-size="24.00" fill="#000000">rdm graph build, query, serve</text>
<text text-anchor="start" x="1164.5" y="-772.4" font-family="Arial" font-size="24.00" fill="#000000">and explorer&#45;file</text>
</g>
<!-- 39&#45;&gt;27 -->
<g id="107" class="edge">
<title>39&#45;&gt;27</title>
<path fill="none" stroke="#444444" stroke-dasharray="5,2" d="M1184.27,-744.47C1142.72,-687.59 1085.42,-618.86 1022,-570.8 994.97,-550.31 964.09,-532.25 932.9,-516.65"/>
<polygon fill="#444444" stroke="#444444" points="934.18,-513.38 923.66,-512.1 931.09,-519.66 934.18,-513.38"/>
<text text-anchor="start" x="1102.5" y="-616.6" font-family="Arial" font-size="24.00" fill="#444444">reads the C4 model and</text>
<text text-anchor="start" x="1102" y="-590.6" font-family="Arial" font-size="24.00" fill="#444444">code dependencies with</text>
</g>
<!-- 9 -->
<g id="9" class="node">
<title>9</title>
<polygon fill="#85bbf0" stroke="#5d82a8" points="479,-939.6 83,-939.6 83,-756.6 479,-756.6 479,-939.6"/>
<text text-anchor="start" x="190" y="-891.4" font-family="Arial" font-size="34.00" fill="#000000">Design gate</text>
<text text-anchor="start" x="192" y="-869.4" font-family="Arial" font-size="19.00" fill="#000000">[Component: Python]</text>
<text text-anchor="start" x="112" y="-832.4" font-family="Arial" font-size="24.00" fill="#000000">The record complete, approved</text>
<text text-anchor="start" x="157.5" y="-808.4" font-family="Arial" font-size="24.00" fill="#000000">and declared once; the</text>
<text text-anchor="start" x="153.5" y="-784.4" font-family="Arial" font-size="24.00" fill="#000000">architecture views fresh</text>
</g>
<!-- 9&#45;&gt;27 -->
<g id="105" class="edge">
<title>9&#45;&gt;27</title>
<path fill="none" stroke="#444444" stroke-dasharray="5,2" d="M316.27,-756.46C343.31,-697.02 385.73,-621.25 443,-570.8 472.67,-544.66 508.55,-523.31 544.94,-506.09"/>
<polygon fill="#444444" stroke="#444444" points="546.6,-509.18 554.2,-501.81 543.66,-502.83 546.6,-509.18"/>
<text text-anchor="start" x="443" y="-616.6" font-family="Arial" font-size="24.00" fill="#444444">checks the views are fresh</text>
<text text-anchor="start" x="564.5" y="-590.6" font-family="Arial" font-size="24.00" fill="#444444">with</text>
</g>
</g>
</svg>
