<?xml version="1.0" encoding="UTF-8" standalone="no"?>
<!-- rdm c4 draw: view C3_graph, workspace sha256:3a97be1b07e0dbf85a05d1b03d66964e68c1106dbdc363c54f2832385f1a0473 -->
<!DOCTYPE svg PUBLIC "-//W3C//DTD SVG 1.1//EN"
 "http://www.w3.org/Graphics/SVG/1.1/DTD/svg11.dtd">
<!-- Generated by graphviz version 2.43.0 (0)
 -->
<!-- Title: %3 Pages: 1 -->
<svg width="4745pt" height="2695pt"
 viewBox="0.00 0.00 4745.00 2695.40" xmlns="http://www.w3.org/2000/svg" xmlns:xlink="http://www.w3.org/1999/xlink">
<g id="graph0" class="graph" transform="scale(1 1) rotate(0) translate(4 2691.4)">
<title>%3</title>
<polygon fill="white" stroke="transparent" points="-4,4 -4,-2691.4 4741,-2691.4 4741,4 -4,4"/>
<text text-anchor="start" x="2096.5" y="-11.8" font-family="Arial" font-size="34.00">Knowledge graph: components (C3)</text>
<g id="clust1" class="cluster">
<title>cluster_4</title>
<polygon fill="none" stroke="#444444" points="8,-64 8,-2417.4 4729,-2417.4 4729,-64 8,-64"/>
<text text-anchor="start" x="2341" y="-92.8" font-family="Arial" font-size="24.00" fill="#444444">RDM</text>
<text text-anchor="start" x="2291.5" y="-72.8" font-family="Arial" font-size="19.00" fill="#444444">[Software System]</text>
</g>
<g id="clust2" class="cluster">
<title>cluster_49</title>
<polygon fill="none" stroke="#cccccc" points="4224,-1875.6 4224,-2392.4 4704,-2392.4 4704,-1875.6 4224,-1875.6"/>
<text text-anchor="start" x="4379.5" y="-1904.4" font-family="Arial" font-size="24.00" fill="#cccccc">Reusable gates</text>
<text text-anchor="start" x="4349" y="-1884.4" font-family="Arial" font-size="19.00" fill="#cccccc">[Container: GitHub Actions]</text>
</g>
<g id="clust3" class="cluster">
<title>cluster_group_release</title>
<polygon fill="none" stroke="#cccccc" stroke-dasharray="5,2" points="4249,-1975.6 4249,-2367.4 4679,-2367.4 4679,-1975.6 4249,-1975.6"/>
<text text-anchor="start" x="4424" y="-1989.2" font-family="Arial" font-size="24.00" fill="#cccccc">release</text>
</g>
<g id="clust4" class="cluster">
<title>cluster_5</title>
<polygon fill="none" stroke="#444444" points="33,-626.8 33,-2368.4 4199,-2368.4 4199,-626.8 33,-626.8"/>
<text text-anchor="start" x="2094.5" y="-655.6" font-family="Arial" font-size="24.00" fill="#444444">rdm</text>
<text text-anchor="start" x="2034.5" y="-635.6" font-family="Arial" font-size="19.00" fill="#444444">[Container: Python]</text>
</g>
<g id="clust5" class="cluster">
<title>cluster_group_architecture</title>
<polygon fill="none" stroke="#cccccc" stroke-dasharray="5,2" points="1458,-726.8 1458,-1142.6 1900,-1142.6 1900,-726.8 1458,-726.8"/>
<text text-anchor="start" x="1615.5" y="-740.4" font-family="Arial" font-size="24.00" fill="#cccccc">architecture</text>
</g>
<g id="clust6" class="cluster">
<title>cluster_group_compliance</title>
<polygon fill="none" stroke="#cccccc" stroke-dasharray="5,2" points="1925,-738.8 1925,-1130.6 2349,-1130.6 2349,-738.8 1925,-738.8"/>
<text text-anchor="start" x="2075.5" y="-752.4" font-family="Arial" font-size="24.00" fill="#cccccc">compliance</text>
</g>
<g id="clust7" class="cluster">
<title>cluster_group_graph</title>
<polygon fill="none" stroke="#cccccc" stroke-dasharray="5,2" points="58,-750.8 58,-2343.4 1433,-2343.4 1433,-750.8 58,-750.8"/>
<text text-anchor="start" x="714" y="-764.4" font-family="Arial" font-size="24.00" fill="#cccccc">graph</text>
</g>
<g id="clust8" class="cluster">
<title>cluster_group_risk</title>
<polygon fill="none" stroke="#cccccc" stroke-dasharray="5,2" points="2374,-726.8 2374,-1142.6 2768,-1142.6 2768,-726.8 2374,-726.8"/>
<text text-anchor="start" x="2552" y="-740.4" font-family="Arial" font-size="24.00" fill="#cccccc">risk</text>
</g>
<g id="clust9" class="cluster">
<title>cluster_group_specification</title>
<polygon fill="none" stroke="#cccccc" stroke-dasharray="5,2" points="2793,-774.8 2793,-1094.6 3729,-1094.6 3729,-774.8 2793,-774.8"/>
<text text-anchor="start" x="3194.5" y="-788.4" font-family="Arial" font-size="24.00" fill="#cccccc">specification</text>
</g>
<g id="clust10" class="cluster">
<title>cluster_group_test_evidence</title>
<polygon fill="none" stroke="#cccccc" stroke-dasharray="5,2" points="3754,-738.8 3754,-1130.6 4174,-1130.6 4174,-738.8 3754,-738.8"/>
<text text-anchor="start" x="3889" y="-752.4" font-family="Arial" font-size="24.00" fill="#cccccc">test_evidence</text>
</g>
<g id="clust11" class="cluster">
<title>cluster_53</title>
<polygon fill="none" stroke="#cccccc" points="930,-164 930,-584.8 1426,-584.8 1426,-164 930,-164"/>
<text text-anchor="start" x="1074" y="-192.8" font-family="Arial" font-size="24.00" fill="#cccccc">Documentation site</text>
<text text-anchor="start" x="1092" y="-172.8" font-family="Arial" font-size="19.00" fill="#cccccc">[Container: MkDocs]</text>
</g>
<g id="clust12" class="cluster">
<title>cluster_group_publishing</title>
<polygon fill="none" stroke="#cccccc" stroke-dasharray="5,2" points="955,-264 955,-559.8 1401,-559.8 1401,-264 955,-264"/>
<text text-anchor="start" x="1123.5" y="-277.6" font-family="Arial" font-size="24.00" fill="#cccccc">publishing</text>
</g>
<!-- 60 -->
<g id="60" class="node">
<title>60</title>
<polygon fill="#999999" stroke="#6b6b6b" points="925,-2687.4 525,-2687.4 525,-2504.4 925,-2504.4 925,-2687.4"/>
<text text-anchor="start" x="615" y="-2639.2" font-family="Arial" font-size="34.00" fill="#ffffff">Agent harness</text>
<text text-anchor="start" x="648" y="-2617.2" font-family="Arial" font-size="19.00" fill="#ffffff">[Software System]</text>
<text text-anchor="start" x="562" y="-2580.2" font-family="Arial" font-size="24.00" fill="#ffffff">An MCP client such as Claude</text>
<text text-anchor="start" x="554" y="-2556.2" font-family="Arial" font-size="24.00" fill="#ffffff">Code, working under a person&#39;s</text>
<text text-anchor="start" x="679" y="-2532.2" font-family="Arial" font-size="24.00" fill="#ffffff">direction</text>
</g>
<!-- 46 -->
<g id="46" class="node">
<title>46</title>
<polygon fill="#85bbf0" stroke="#5d82a8" points="910.5,-2318.4 539.5,-2318.4 539.5,-2087.4 910.5,-2087.4 910.5,-2318.4"/>
<text text-anchor="start" x="628.5" y="-2270.2" font-family="Arial" font-size="34.00" fill="#000000">Agent server</text>
<text text-anchor="start" x="609.5" y="-2248.2" font-family="Arial" font-size="19.00" fill="#000000">[Component: Python, MCP]</text>
<text text-anchor="start" x="583" y="-2211.2" font-family="Arial" font-size="24.00" fill="#000000">rdm graph mcp: read&#45;only,</text>
<text text-anchor="start" x="579" y="-2187.2" font-family="Arial" font-size="24.00" fill="#000000">idempotent schema, query,</text>
<text text-anchor="start" x="568.5" y="-2163.2" font-family="Arial" font-size="24.00" fill="#000000">trace and validate for agents,</text>
<text text-anchor="start" x="584.5" y="-2139.2" font-family="Arial" font-size="24.00" fill="#000000">each projecting the record</text>
<text text-anchor="start" x="582" y="-2115.2" font-family="Arial" font-size="24.00" fill="#000000">afresh; query rows capped</text>
</g>
<!-- 60&#45;&gt;46 -->
<g id="149" class="edge">
<title>60&#45;&gt;46</title>
<path fill="none" stroke="#444444" stroke-dasharray="5,2" d="M725,-2504.21C725,-2452.07 725,-2385.81 725,-2328.8"/>
<polygon fill="#444444" stroke="#444444" points="728.5,-2328.64 725,-2318.64 721.5,-2328.64 728.5,-2328.64"/>
<text text-anchor="start" x="770.5" y="-2450.2" font-family="Arial" font-size="24.00" fill="#444444">calls</text>
<text text-anchor="start" x="725" y="-2430.2" font-family="Arial" font-size="19.00" fill="#444444">[MCP over stdio]</text>
</g>
<!-- 51 -->
<g id="51" class="node">
<title>51</title>
<polygon fill="#85bbf0" stroke="#5d82a8" points="4654,-2342.4 4274,-2342.4 4274,-2063.4 4654,-2063.4 4654,-2342.4"/>
<text text-anchor="start" x="4368" y="-2294.2" font-family="Arial" font-size="34.00" fill="#000000">Gates action</text>
<text text-anchor="start" x="4341" y="-2272.2" font-family="Arial" font-size="19.00" fill="#000000">[Component: GitHub Actions]</text>
<text text-anchor="start" x="4319" y="-2235.2" font-family="Arial" font-size="24.00" fill="#000000">The gates as steps: design</text>
<text text-anchor="start" x="4345" y="-2211.2" font-family="Arial" font-size="24.00" fill="#000000">gate, verification data,</text>
<text text-anchor="start" x="4359" y="-2187.2" font-family="Arial" font-size="24.00" fill="#000000">release gate, graph</text>
<text text-anchor="start" x="4318" y="-2163.2" font-family="Arial" font-size="24.00" fill="#000000">validation, evidence bundle</text>
<text text-anchor="start" x="4309.5" y="-2139.2" font-family="Arial" font-size="24.00" fill="#000000">(uploaded); each switchable;</text>
<text text-anchor="start" x="4303" y="-2115.2" font-family="Arial" font-size="24.00" fill="#000000">inputs passed as environment</text>
<text text-anchor="start" x="4415.5" y="-2091.2" font-family="Arial" font-size="24.00" fill="#000000">variables</text>
</g>
<!-- 43 -->
<g id="43" class="node">
<title>43</title>
<polygon fill="#85bbf0" stroke="#5d82a8" points="1403,-1805.6 1073,-1805.6 1073,-1670.6 1403,-1670.6 1403,-1805.6"/>
<text text-anchor="start" x="1105" y="-1757.4" font-family="Arial" font-size="34.00" fill="#000000">SHACL validation</text>
<text text-anchor="start" x="1102" y="-1735.4" font-family="Arial" font-size="19.00" fill="#000000">[Component: Python, pySHACL]</text>
<text text-anchor="start" x="1137" y="-1698.4" font-family="Arial" font-size="24.00" fill="#000000">rdm graph validate</text>
</g>
<!-- 51&#45;&gt;43 -->
<g id="137" class="edge">
<title>51&#45;&gt;43</title>
<path fill="none" stroke="#444444" stroke-dasharray="5,2" d="M4273.95,-2174.63C3696.92,-2091.86 1970.74,-1844.22 1413.52,-1764.28"/>
<polygon fill="#444444" stroke="#444444" points="1413.78,-1760.78 1403.39,-1762.83 1412.79,-1767.71 1413.78,-1760.78"/>
<text text-anchor="start" x="2103" y="-1848.4" font-family="Arial" font-size="24.00" fill="#444444">validates the graph with</text>
</g>
<!-- 28 -->
<g id="28" class="node">
<title>28</title>
<polygon fill="#85bbf0" stroke="#5d82a8" points="1875,-1117.6 1483,-1117.6 1483,-814.6 1875,-814.6 1875,-1117.6"/>
<text text-anchor="start" x="1537" y="-1069.4" font-family="Arial" font-size="34.00" fill="#000000">Architecture model</text>
<text text-anchor="start" x="1590" y="-1047.4" font-family="Arial" font-size="19.00" fill="#000000">[Component: Python]</text>
<text text-anchor="start" x="1523.5" y="-1010.4" font-family="Arial" font-size="24.00" fill="#000000">The C4 model, read from the</text>
<text text-anchor="start" x="1521.5" y="-986.4" font-family="Arial" font-size="24.00" fill="#000000">workspace&#39;s export (declared</text>
<text text-anchor="start" x="1550.5" y="-962.4" font-family="Arial" font-size="24.00" fill="#000000">relationships only); view</text>
<text text-anchor="start" x="1512" y="-938.4" font-family="Arial" font-size="24.00" fill="#000000">freshness from the stamps; the</text>
<text text-anchor="start" x="1548" y="-914.4" font-family="Arial" font-size="24.00" fill="#000000">component owning a file</text>
<text text-anchor="start" x="1521.5" y="-890.4" font-family="Arial" font-size="24.00" fill="#000000">(longest code match) and the</text>
<text text-anchor="start" x="1517" y="-866.4" font-family="Arial" font-size="24.00" fill="#000000">import dependencies between</text>
<text text-anchor="start" x="1612.5" y="-842.4" font-family="Arial" font-size="24.00" fill="#000000">components</text>
</g>
<!-- 30 -->
<g id="30" class="node">
<title>30</title>
<polygon fill="#85bbf0" stroke="#5d82a8" points="2323.5,-1105.6 1950.5,-1105.6 1950.5,-826.6 2323.5,-826.6 2323.5,-1105.6"/>
<text text-anchor="start" x="2038.5" y="-1057.4" font-family="Arial" font-size="34.00" fill="#000000">Gap analysis</text>
<text text-anchor="start" x="2048" y="-1035.4" font-family="Arial" font-size="19.00" fill="#000000">[Component: Python]</text>
<text text-anchor="start" x="2003" y="-998.4" font-family="Arial" font-size="24.00" fill="#000000">Reads a checklist and its</text>
<text text-anchor="start" x="1990.5" y="-974.4" font-family="Arial" font-size="24.00" fill="#000000">includes, finds the checklist</text>
<text text-anchor="start" x="2022.5" y="-950.4" font-family="Arial" font-size="24.00" fill="#000000">clauses no document</text>
<text text-anchor="start" x="1991" y="-926.4" font-family="Arial" font-size="24.00" fill="#000000">references, and reports the</text>
<text text-anchor="start" x="1986" y="-902.4" font-family="Arial" font-size="24.00" fill="#000000">gaps or the coverage; offers</text>
<text text-anchor="start" x="1979.5" y="-878.4" font-family="Arial" font-size="24.00" fill="#000000">its reader and key matcher to</text>
<text text-anchor="start" x="2060.5" y="-854.4" font-family="Arial" font-size="24.00" fill="#000000">other contexts</text>
</g>
<!-- 40 -->
<g id="40" class="node">
<title>40</title>
<polygon fill="#85bbf0" stroke="#5d82a8" points="996,-1546.6 586,-1546.6 586,-1267.6 996,-1267.6 996,-1546.6"/>
<text text-anchor="start" x="715.5" y="-1498.4" font-family="Arial" font-size="34.00" fill="#000000">Projection</text>
<text text-anchor="start" x="650" y="-1476.4" font-family="Arial" font-size="19.00" fill="#000000">[Component: Python, pyoxigraph]</text>
<text text-anchor="start" x="615" y="-1439.4" font-family="Arial" font-size="24.00" fill="#000000">The record into RDF, one named</text>
<text text-anchor="start" x="695.5" y="-1415.4" font-family="Arial" font-size="24.00" fill="#000000">graph per source,</text>
<text text-anchor="start" x="654" y="-1391.4" font-family="Arial" font-size="24.00" fill="#000000">de&#45;duplicated and sorted;</text>
<text text-anchor="start" x="648" y="-1367.4" font-family="Arial" font-size="24.00" fill="#000000">replaces the store on each</text>
<text text-anchor="start" x="634.5" y="-1343.4" font-family="Arial" font-size="24.00" fill="#000000">build; rdm graph build, query,</text>
<text text-anchor="start" x="675" y="-1319.4" font-family="Arial" font-size="24.00" fill="#000000">serve (read&#45;only) and</text>
<text text-anchor="start" x="727.5" y="-1295.4" font-family="Arial" font-size="24.00" fill="#000000">explorer&#45;file</text>
</g>
<!-- 40&#45;&gt;28 -->
<g id="119" class="edge">
<title>40&#45;&gt;28</title>
<path fill="none" stroke="#444444" stroke-dasharray="5,2" d="M996.32,-1281.24C1008.52,-1276.14 1020.79,-1271.54 1033,-1267.6 1179.73,-1220.29 1236.76,-1293.4 1378,-1231.6 1435.35,-1206.5 1489.58,-1166.37 1535.79,-1124.87"/>
<polygon fill="#444444" stroke="#444444" points="1538.38,-1127.24 1543.43,-1117.93 1533.67,-1122.06 1538.38,-1127.24"/>
<text text-anchor="start" x="1498.5" y="-1199.4" font-family="Arial" font-size="24.00" fill="#444444">reads the C4 model and</text>
<text text-anchor="start" x="1498" y="-1173.4" font-family="Arial" font-size="24.00" fill="#444444">code dependencies with</text>
</g>
<!-- 40&#45;&gt;30 -->
<g id="99" class="edge">
<title>40&#45;&gt;30</title>
<path fill="none" stroke="#444444" stroke-dasharray="5,2" d="M996.07,-1280.41C1008.33,-1275.53 1020.69,-1271.2 1033,-1267.6 1350.36,-1174.93 1460.56,-1330.61 1776,-1231.6 1852.09,-1207.72 1925.2,-1160.47 1985.48,-1112.42"/>
<polygon fill="#444444" stroke="#444444" points="1987.93,-1114.95 1993.52,-1105.95 1983.54,-1109.5 1987.93,-1114.95"/>
<text text-anchor="start" x="1927" y="-1212.4" font-family="Arial" font-size="24.00" fill="#444444">reads checklists and</text>
<text text-anchor="start" x="1941.5" y="-1186.4" font-family="Arial" font-size="24.00" fill="#444444">matches checklist</text>
<text text-anchor="start" x="1954.5" y="-1160.4" font-family="Arial" font-size="24.00" fill="#444444">references with</text>
</g>
<!-- 41 -->
<g id="41" class="node">
<title>41</title>
<polygon fill="#85bbf0" stroke="#5d82a8" points="436.5,-1045.6 83.5,-1045.6 83.5,-886.6 436.5,-886.6 436.5,-1045.6"/>
<text text-anchor="start" x="175.5" y="-997.4" font-family="Arial" font-size="34.00" fill="#000000">Vocabulary</text>
<text text-anchor="start" x="176.5" y="-975.4" font-family="Arial" font-size="19.00" fill="#000000">[Component: Turtle]</text>
<text text-anchor="start" x="112.5" y="-938.4" font-family="Arial" font-size="24.00" fill="#000000">Classes, properties and the</text>
<text text-anchor="start" x="124.5" y="-914.4" font-family="Arial" font-size="24.00" fill="#000000">rules that derive relations</text>
</g>
<!-- 40&#45;&gt;41 -->
<g id="86" class="edge">
<title>40&#45;&gt;41</title>
<path fill="none" stroke="#444444" stroke-dasharray="5,2" d="M585.68,-1371.2C437.18,-1341.28 254.89,-1293.27 209,-1231.6 171.46,-1181.15 187.43,-1110.72 211.05,-1055.22"/>
<polygon fill="#444444" stroke="#444444" points="214.39,-1056.31 215.22,-1045.75 207.99,-1053.49 214.39,-1056.31"/>
<text text-anchor="start" x="209" y="-1199.4" font-family="Arial" font-size="24.00" fill="#444444">declares terms and rules</text>
<text text-anchor="start" x="332.5" y="-1173.4" font-family="Arial" font-size="24.00" fill="#444444">in</text>
</g>
<!-- 44 -->
<g id="44" class="node">
<title>44</title>
<polygon fill="#85bbf0" stroke="#5d82a8" points="909,-1081.6 509,-1081.6 509,-850.6 909,-850.6 909,-1081.6"/>
<text text-anchor="start" x="619" y="-1033.4" font-family="Arial" font-size="34.00" fill="#000000">Explorer file</text>
<text text-anchor="start" x="620" y="-1011.4" font-family="Arial" font-size="19.00" fill="#000000">[Component: Python]</text>
<text text-anchor="start" x="563" y="-974.4" font-family="Arial" font-size="24.00" fill="#000000">rdm graph explorer&#45;file: the</text>
<text text-anchor="start" x="575" y="-950.4" font-family="Arial" font-size="24.00" fill="#000000">record as an AWS Graph</text>
<text text-anchor="start" x="587" y="-926.4" font-family="Arial" font-size="24.00" fill="#000000">Explorer file, optionally</text>
<text text-anchor="start" x="540.5" y="-902.4" font-family="Arial" font-size="24.00" fill="#000000">without chosen classes and the</text>
<text text-anchor="start" x="538" y="-878.4" font-family="Arial" font-size="24.00" fill="#000000">nodes that hang only from them</text>
</g>
<!-- 40&#45;&gt;44 -->
<g id="93" class="edge">
<title>40&#45;&gt;44</title>
<path fill="none" stroke="#444444" stroke-dasharray="5,2" d="M765.11,-1267.5C754.6,-1211.2 742.54,-1146.65 732.3,-1091.85"/>
<polygon fill="#444444" stroke="#444444" points="735.69,-1090.92 730.41,-1081.74 728.81,-1092.21 735.69,-1090.92"/>
<text text-anchor="start" x="757" y="-1199.4" font-family="Arial" font-size="24.00" fill="#444444">writes the explorer file</text>
<text text-anchor="start" x="853.5" y="-1173.4" font-family="Arial" font-size="24.00" fill="#444444">with</text>
</g>
<!-- 45 -->
<g id="45" class="node">
<title>45</title>
<polygon fill="#85bbf0" stroke="#5d82a8" points="1374.5,-1093.6 981.5,-1093.6 981.5,-838.6 1374.5,-838.6 1374.5,-1093.6"/>
<text text-anchor="start" x="1068.5" y="-1045.4" font-family="Arial" font-size="34.00" fill="#000000">Manual reader</text>
<text text-anchor="start" x="1089" y="-1023.4" font-family="Arial" font-size="19.00" fill="#000000">[Component: Python]</text>
<text text-anchor="start" x="1010.5" y="-986.4" font-family="Arial" font-size="24.00" fill="#000000">The pages a manual document</text>
<text text-anchor="start" x="1059" y="-962.4" font-family="Arial" font-size="24.00" fill="#000000">lists, and the files they</text>
<text text-anchor="start" x="1042" y="-938.4" font-family="Arial" font-size="24.00" fill="#000000">include whole: the design</text>
<text text-anchor="start" x="1032" y="-914.4" font-family="Arial" font-size="24.00" fill="#000000">inputs each names and the</text>
<text text-anchor="start" x="1039" y="-890.4" font-family="Arial" font-size="24.00" fill="#000000">labels of each tagged&#45;test</text>
<text text-anchor="start" x="1132" y="-866.4" font-family="Arial" font-size="24.00" fill="#000000">example</text>
</g>
<!-- 40&#45;&gt;45 -->
<g id="87" class="edge">
<title>40&#45;&gt;45</title>
<path fill="none" stroke="#444444" stroke-dasharray="5,2" d="M975.68,-1267.58C988.09,-1255.89 1000.01,-1243.84 1011,-1231.6 1045.87,-1192.77 1078.09,-1145.83 1104.74,-1102.33"/>
<polygon fill="#444444" stroke="#444444" points="1107.79,-1104.04 1109.99,-1093.68 1101.81,-1100.4 1107.79,-1104.04"/>
<text text-anchor="start" x="1068" y="-1186.4" font-family="Arial" font-size="24.00" fill="#444444">reads the user manual with</text>
</g>
<!-- 27 -->
<g id="27" class="node">
<title>27</title>
<polygon fill="#85bbf0" stroke="#5d82a8" points="2743,-1117.6 2399,-1117.6 2399,-814.6 2743,-814.6 2743,-1117.6"/>
<text text-anchor="start" x="2476" y="-1069.4" font-family="Arial" font-size="34.00" fill="#000000">Risk register</text>
<text text-anchor="start" x="2482" y="-1047.4" font-family="Arial" font-size="19.00" fill="#000000">[Component: Python]</text>
<text text-anchor="start" x="2428" y="-1010.4" font-family="Arial" font-size="24.00" fill="#000000">The risk register evaluated</text>
<text text-anchor="start" x="2439.5" y="-986.4" font-family="Arial" font-size="24.00" fill="#000000">against the declared risk</text>
<text text-anchor="start" x="2448.5" y="-962.4" font-family="Arial" font-size="24.00" fill="#000000">policy; the risk rules as</text>
<text text-anchor="start" x="2430" y="-938.4" font-family="Arial" font-size="24.00" fill="#000000">findings, written only here;</text>
<text text-anchor="start" x="2436.5" y="-914.4" font-family="Arial" font-size="24.00" fill="#000000">handed the declared and</text>
<text text-anchor="start" x="2431.5" y="-890.4" font-family="Arial" font-size="24.00" fill="#000000">verified design input ids, it</text>
<text text-anchor="start" x="2463.5" y="-866.4" font-family="Arial" font-size="24.00" fill="#000000">reads nothing of the</text>
<text text-anchor="start" x="2504.5" y="-842.4" font-family="Arial" font-size="24.00" fill="#000000">specification</text>
</g>
<!-- 40&#45;&gt;27 -->
<g id="84" class="edge">
<title>40&#45;&gt;27</title>
<path fill="none" stroke="#444444" stroke-dasharray="5,2" d="M996.34,-1280.03C1008.51,-1275.27 1020.77,-1271.06 1033,-1267.6 1275.17,-1199.06 1919.57,-1287.36 2165,-1231.6 2260.67,-1209.87 2284.02,-1194.94 2367,-1142.6 2376.4,-1136.67 2385.81,-1130.33 2395.15,-1123.7"/>
<polygon fill="#444444" stroke="#444444" points="2397.27,-1126.49 2403.34,-1117.81 2393.18,-1120.81 2397.27,-1126.49"/>
<text text-anchor="start" x="2348" y="-1199.4" font-family="Arial" font-size="24.00" fill="#444444">reads risks and findings</text>
<text text-anchor="start" x="2454" y="-1173.4" font-family="Arial" font-size="24.00" fill="#444444">with</text>
</g>
<!-- 7 -->
<g id="7" class="node">
<title>7</title>
<polygon fill="#85bbf0" stroke="#5d82a8" points="3221.5,-1069.6 2818.5,-1069.6 2818.5,-862.6 3221.5,-862.6 3221.5,-1069.6"/>
<text text-anchor="start" x="2911.5" y="-1021.4" font-family="Arial" font-size="34.00" fill="#000000">Record reader</text>
<text text-anchor="start" x="2931" y="-999.4" font-family="Arial" font-size="19.00" fill="#000000">[Component: Python]</text>
<text text-anchor="start" x="2876.5" y="-962.4" font-family="Arial" font-size="24.00" fill="#000000">User needs, design inputs,</text>
<text text-anchor="start" x="2882.5" y="-938.4" font-family="Arial" font-size="24.00" fill="#000000">realises and declarations,</text>
<text text-anchor="start" x="2847.5" y="-914.4" font-family="Arial" font-size="24.00" fill="#000000">from the design documents&#39; and</text>
<text text-anchor="start" x="2899.5" y="-890.4" font-family="Arial" font-size="24.00" fill="#000000">V&amp;V plan&#39;s frontmatter</text>
</g>
<!-- 40&#45;&gt;7 -->
<g id="165" class="edge">
<title>40&#45;&gt;7</title>
<path fill="none" stroke="#444444" stroke-dasharray="5,2" d="M996.31,-1279.9C1008.48,-1275.17 1020.76,-1271 1033,-1267.6 1373.07,-1173.03 2279.76,-1321.89 2621,-1231.6 2725.46,-1203.96 2826.73,-1136.18 2901.1,-1076.15"/>
<polygon fill="#444444" stroke="#444444" points="2903.58,-1078.65 2909.13,-1069.62 2899.16,-1073.22 2903.58,-1078.65"/>
<text text-anchor="start" x="2786" y="-1186.4" font-family="Arial" font-size="24.00" fill="#444444">reads the record with</text>
</g>
<!-- 8 -->
<g id="8" class="node">
<title>8</title>
<polygon fill="#85bbf0" stroke="#5d82a8" points="3704,-1057.6 3294,-1057.6 3294,-874.6 3704,-874.6 3704,-1057.6"/>
<text text-anchor="start" x="3430" y="-1009.4" font-family="Arial" font-size="34.00" fill="#000000">Test tags</text>
<text text-anchor="start" x="3410" y="-987.4" font-family="Arial" font-size="19.00" fill="#000000">[Component: Python]</text>
<text text-anchor="start" x="3346.5" y="-950.4" font-family="Arial" font-size="24.00" fill="#000000">The design&#45;input tags in test</text>
<text text-anchor="start" x="3323" y="-926.4" font-family="Arial" font-size="24.00" fill="#000000">sources, in every language RDM</text>
<text text-anchor="start" x="3468.5" y="-902.4" font-family="Arial" font-size="24.00" fill="#000000">reads</text>
</g>
<!-- 40&#45;&gt;8 -->
<g id="189" class="edge">
<title>40&#45;&gt;8</title>
<path fill="none" stroke="#444444" stroke-dasharray="5,2" d="M996.29,-1279.83C1008.47,-1275.12 1020.75,-1270.98 1033,-1267.6 1247.06,-1208.61 2813.21,-1274.8 3031,-1231.6 3137.29,-1210.51 3162.98,-1194.7 3258,-1142.6 3299.14,-1120.04 3341.36,-1091.46 3378.74,-1063.94"/>
<polygon fill="#444444" stroke="#444444" points="3381.18,-1066.49 3387.13,-1057.72 3377.02,-1060.86 3381.18,-1066.49"/>
<text text-anchor="start" x="3236" y="-1199.4" font-family="Arial" font-size="24.00" fill="#444444">reads the tagged tests</text>
<text text-anchor="start" x="3335" y="-1173.4" font-family="Arial" font-size="24.00" fill="#444444">with</text>
</g>
<!-- 22 -->
<g id="22" class="node">
<title>22</title>
<polygon fill="#85bbf0" stroke="#5d82a8" points="4149,-1105.6 3779,-1105.6 3779,-826.6 4149,-826.6 4149,-1105.6"/>
<text text-anchor="start" x="3867" y="-1057.4" font-family="Arial" font-size="34.00" fill="#000000">Allure reader</text>
<text text-anchor="start" x="3875" y="-1035.4" font-family="Arial" font-size="19.00" fill="#000000">[Component: Python]</text>
<text text-anchor="start" x="3821" y="-998.4" font-family="Arial" font-size="24.00" fill="#000000">Allure results into test runs</text>
<text text-anchor="start" x="3808" y="-974.4" font-family="Arial" font-size="24.00" fill="#000000">and a status per design input</text>
<text text-anchor="start" x="3830.5" y="-950.4" font-family="Arial" font-size="24.00" fill="#000000">(failed, else verified, else</text>
<text text-anchor="start" x="3811.5" y="-926.4" font-family="Arial" font-size="24.00" fill="#000000">untested; undeclared stories</text>
<text text-anchor="start" x="3843.5" y="-902.4" font-family="Arial" font-size="24.00" fill="#000000">as orphans); a result it</text>
<text text-anchor="start" x="3811.5" y="-878.4" font-family="Arial" font-size="24.00" fill="#000000">cannot read is never a pass;</text>
<text text-anchor="start" x="3858.5" y="-854.4" font-family="Arial" font-size="24.00" fill="#000000">run labels and facts</text>
</g>
<!-- 40&#45;&gt;22 -->
<g id="118" class="edge">
<title>40&#45;&gt;22</title>
<path fill="none" stroke="#444444" stroke-dasharray="5,2" d="M996.27,-1279.78C1008.46,-1275.08 1020.74,-1270.96 1033,-1267.6 1164.94,-1231.48 3367.46,-1281.06 3495,-1231.6 3543.73,-1212.7 3534.78,-1173.76 3583,-1153.6 3650.4,-1125.41 3678.98,-1169.26 3747,-1142.6 3767.73,-1134.48 3788.01,-1123.61 3807.33,-1111.26"/>
<polygon fill="#444444" stroke="#444444" points="3809.4,-1114.09 3815.84,-1105.68 3805.56,-1108.23 3809.4,-1114.09"/>
<text text-anchor="start" x="3583" y="-1199.4" font-family="Arial" font-size="24.00" fill="#444444">reads results and test</text>
<text text-anchor="start" x="3651" y="-1173.4" font-family="Arial" font-size="24.00" fill="#444444">tags with</text>
</g>
<!-- 55 -->
<g id="55" class="node">
<title>55</title>
<path fill="#438dd5" stroke="#2e6295" d="M4609.5,-1041.88C4609.5,-1051.18 4523.22,-1058.73 4417,-1058.73 4310.78,-1058.73 4224.5,-1051.18 4224.5,-1041.88 4224.5,-1041.88 4224.5,-890.32 4224.5,-890.32 4224.5,-881.02 4310.78,-873.47 4417,-873.47 4523.22,-873.47 4609.5,-881.02 4609.5,-890.32 4609.5,-890.32 4609.5,-1041.88 4609.5,-1041.88"/>
<path fill="none" stroke="#2e6295" d="M4609.5,-1041.88C4609.5,-1032.59 4523.22,-1025.04 4417,-1025.04 4310.78,-1025.04 4224.5,-1032.59 4224.5,-1041.88"/>
<text text-anchor="start" x="4327" y="-985.4" font-family="Arial" font-size="34.00" fill="#ffffff">Graph store</text>
<text text-anchor="start" x="4326.5" y="-963.4" font-family="Arial" font-size="19.00" fill="#ffffff">[Container: Oxigraph]</text>
<text text-anchor="start" x="4253.5" y="-926.4" font-family="Arial" font-size="24.00" fill="#ffffff">The record projected into RDF</text>
</g>
<!-- 40&#45;&gt;55 -->
<g id="148" class="edge">
<title>40&#45;&gt;55</title>
<path fill="none" stroke="#444444" stroke-dasharray="5,2" d="M996.27,-1279.75C1008.45,-1275.06 1020.74,-1270.94 1033,-1267.6 1183.08,-1226.65 3678.7,-1251.45 3833,-1231.6 3996.04,-1210.63 4044.17,-1214.5 4192,-1142.6 4233.52,-1122.4 4274.63,-1093.65 4310.13,-1065.25"/>
<polygon fill="#444444" stroke="#444444" points="4312.51,-1067.83 4318.08,-1058.82 4308.11,-1062.38 4312.51,-1067.83"/>
<text text-anchor="start" x="4166" y="-1186.4" font-family="Arial" font-size="24.00" fill="#444444">builds</text>
</g>
<!-- 42 -->
<g id="42" class="node">
<title>42</title>
<polygon fill="#85bbf0" stroke="#5d82a8" points="1407.5,-1498.6 1068.5,-1498.6 1068.5,-1315.6 1407.5,-1315.6 1407.5,-1498.6"/>
<text text-anchor="start" x="1141.5" y="-1450.4" font-family="Arial" font-size="34.00" fill="#000000">Gate shapes</text>
<text text-anchor="start" x="1147" y="-1428.4" font-family="Arial" font-size="19.00" fill="#000000">[Component: SHACL]</text>
<text text-anchor="start" x="1097.5" y="-1391.4" font-family="Arial" font-size="24.00" fill="#000000">The gate rules as SHACL:</text>
<text text-anchor="start" x="1101" y="-1367.4" font-family="Arial" font-size="24.00" fill="#000000">violations block, warnings</text>
<text text-anchor="start" x="1204" y="-1343.4" font-family="Arial" font-size="24.00" fill="#000000">inform</text>
</g>
<!-- 43&#45;&gt;40 -->
<g id="95" class="edge">
<title>43&#45;&gt;40</title>
<path fill="none" stroke="#444444" stroke-dasharray="5,2" d="M1072.83,-1682.23C1043.28,-1668.9 1013.73,-1653.05 988,-1634.6 956.6,-1612.09 926.87,-1583.63 900.48,-1554.54"/>
<polygon fill="#444444" stroke="#444444" points="902.76,-1551.85 893.48,-1546.74 897.55,-1556.52 902.76,-1551.85"/>
<text text-anchor="start" x="988" y="-1602.4" font-family="Arial" font-size="24.00" fill="#444444">validates the graph of</text>
</g>
<!-- 43&#45;&gt;42 -->
<g id="96" class="edge">
<title>43&#45;&gt;42</title>
<path fill="none" stroke="#444444" stroke-dasharray="5,2" d="M1238,-1670.52C1238,-1624.13 1238,-1561.4 1238,-1508.91"/>
<polygon fill="#444444" stroke="#444444" points="1241.5,-1508.89 1238,-1498.89 1234.5,-1508.89 1241.5,-1508.89"/>
<text text-anchor="start" x="1238" y="-1602.4" font-family="Arial" font-size="24.00" fill="#444444">checks with</text>
</g>
<!-- 44&#45;&gt;40 -->
<g id="94" class="edge">
<title>44&#45;&gt;40</title>
<path fill="none" stroke="#444444" stroke-dasharray="5,2" d="M546.91,-1081.86C504.03,-1126.61 476.86,-1179.59 506,-1231.6 523.43,-1262.71 548.92,-1288.95 577.6,-1310.85"/>
<polygon fill="#444444" stroke="#444444" points="575.66,-1313.76 585.77,-1316.91 579.83,-1308.14 575.66,-1313.76"/>
<text text-anchor="start" x="506" y="-1199.4" font-family="Arial" font-size="24.00" fill="#444444">takes the executions</text>
<text text-anchor="start" x="515.5" y="-1173.4" font-family="Arial" font-size="24.00" fill="#444444">graph&#39;s name from</text>
</g>
<!-- 54 -->
<g id="54" class="node">
<title>54</title>
<polygon fill="#85bbf0" stroke="#5d82a8" points="1375.5,-534.8 980.5,-534.8 980.5,-351.8 1375.5,-351.8 1375.5,-534.8"/>
<text text-anchor="start" x="1081.5" y="-486.6" font-family="Arial" font-size="34.00" fill="#000000">User manual</text>
<text text-anchor="start" x="1075" y="-464.6" font-family="Arial" font-size="19.00" fill="#000000">[Component: Markdown]</text>
<text text-anchor="start" x="1009.5" y="-427.6" font-family="Arial" font-size="24.00" fill="#000000">The pages that teach a team to</text>
<text text-anchor="start" x="1033" y="-403.6" font-family="Arial" font-size="24.00" fill="#000000">keep its record the way the</text>
<text text-anchor="start" x="1104" y="-379.6" font-family="Arial" font-size="24.00" fill="#000000">gates enforce</text>
</g>
<!-- 45&#45;&gt;54 -->
<g id="88" class="edge">
<title>45&#45;&gt;54</title>
<path fill="none" stroke="#444444" stroke-dasharray="5,2" d="M1178,-838.36C1178,-748.24 1178,-628.8 1178,-545.14"/>
<polygon fill="#444444" stroke="#444444" points="1181.5,-545.11 1178,-535.11 1174.5,-545.11 1181.5,-545.11"/>
<text text-anchor="start" x="1178" y="-599.6" font-family="Arial" font-size="24.00" fill="#444444">reads the pages of</text>
</g>
<!-- 46&#45;&gt;40 -->
<g id="97" class="edge">
<title>46&#45;&gt;40</title>
<path fill="none" stroke="#444444" stroke-dasharray="5,2" d="M731.24,-2087.26C737.46,-1979.57 747.95,-1814 761,-1670.6 764.34,-1633.86 768.55,-1594.29 772.74,-1557.29"/>
<polygon fill="#444444" stroke="#444444" points="776.27,-1557.27 773.92,-1546.93 769.31,-1556.47 776.27,-1557.27"/>
<text text-anchor="start" x="761" y="-1744.9" font-family="Arial" font-size="24.00" fill="#444444">projects the record afresh</text>
<text text-anchor="start" x="809.5" y="-1718.9" font-family="Arial" font-size="24.00" fill="#444444">on each call with</text>
</g>
<!-- 46&#45;&gt;41 -->
<g id="147" class="edge">
<title>46&#45;&gt;41</title>
<path fill="none" stroke="#444444" stroke-dasharray="5,2" d="M632.24,-2087.22C498.91,-1914.2 259.21,-1570.48 169,-1231.6 153.06,-1171.73 175.61,-1105.83 202.25,-1054.79"/>
<polygon fill="#444444" stroke="#444444" points="205.45,-1056.23 207.08,-1045.76 199.28,-1052.93 205.45,-1056.23"/>
<text text-anchor="start" x="334" y="-1615.4" font-family="Arial" font-size="24.00" fill="#444444">returns the vocabulary and</text>
<text text-anchor="start" x="438" y="-1589.4" font-family="Arial" font-size="24.00" fill="#444444">rules of</text>
</g>
<!-- 46&#45;&gt;43 -->
<g id="98" class="edge">
<title>46&#45;&gt;43</title>
<path fill="none" stroke="#444444" stroke-dasharray="5,2" d="M852.14,-2087.2C947.29,-2001.37 1074.6,-1886.51 1156.47,-1812.65"/>
<polygon fill="#444444" stroke="#444444" points="1159.17,-1814.93 1164.25,-1805.63 1154.48,-1809.73 1159.17,-1814.93"/>
<text text-anchor="start" x="1120" y="-1848.4" font-family="Arial" font-size="24.00" fill="#444444">validates with</text>
</g>
</g>
</svg>
