<?xml version="1.0" encoding="UTF-8" standalone="no"?>
<!-- rdm c4 draw: view C3_graph, workspace sha256:e2c3f52c1f827d844fef5727781e404e93caed8955ecb213550908f21b0850d5 -->
<!DOCTYPE svg PUBLIC "-//W3C//DTD SVG 1.1//EN"
 "http://www.w3.org/Graphics/SVG/1.1/DTD/svg11.dtd">
<!-- Generated by graphviz version 2.43.0 (0)
 -->
<!-- Title: %3 Pages: 1 -->
<svg width="3385pt" height="1790pt"
 viewBox="0.00 0.00 3385.00 1789.60" xmlns="http://www.w3.org/2000/svg" xmlns:xlink="http://www.w3.org/1999/xlink">
<g id="graph0" class="graph" transform="scale(1 1) rotate(0) translate(4 1785.6)">
<title>%3</title>
<polygon fill="white" stroke="transparent" points="-4,4 -4,-1785.6 3381,-1785.6 3381,4 -4,4"/>
<text text-anchor="start" x="1466" y="-11.8" font-family="Arial" font-size="34.00">Component View: RDM &#45; rdm</text>
<g id="clust1" class="cluster">
<title>cluster_4</title>
<polygon fill="none" stroke="#444444" points="8,-64 8,-1773.6 3369,-1773.6 3369,-64 8,-64"/>
<text text-anchor="start" x="1661" y="-92.8" font-family="Arial" font-size="24.00" fill="#444444">RDM</text>
<text text-anchor="start" x="1611.5" y="-72.8" font-family="Arial" font-size="19.00" fill="#444444">[Software System]</text>
</g>
<g id="clust2" class="cluster">
<title>cluster_5</title>
<polygon fill="none" stroke="#444444" points="33,-164 33,-1748.6 3344,-1748.6 3344,-164 33,-164"/>
<text text-anchor="start" x="1667" y="-192.8" font-family="Arial" font-size="24.00" fill="#444444">rdm</text>
<text text-anchor="start" x="1607" y="-172.8" font-family="Arial" font-size="19.00" fill="#444444">[Container: Python]</text>
</g>
<g id="clust3" class="cluster">
<title>cluster_group_architecture</title>
<polygon fill="none" stroke="#cccccc" stroke-dasharray="5,2" points="1138,-630.8 1138,-926.6 1558,-926.6 1558,-630.8 1138,-630.8"/>
<text text-anchor="start" x="1284.5" y="-644.4" font-family="Arial" font-size="24.00" fill="#cccccc">architecture</text>
</g>
<g id="clust4" class="cluster">
<title>cluster_group_compliance</title>
<polygon fill="none" stroke="#cccccc" stroke-dasharray="5,2" points="1583,-654.8 1583,-902.6 2011,-902.6 2011,-654.8 1583,-654.8"/>
<text text-anchor="start" x="1735.5" y="-668.4" font-family="Arial" font-size="24.00" fill="#cccccc">compliance</text>
</g>
<g id="clust5" class="cluster">
<title>cluster_group_graph</title>
<polygon fill="none" stroke="#cccccc" stroke-dasharray="5,2" points="58,-642.8 58,-1723.6 1113,-1723.6 1113,-642.8 58,-642.8"/>
<text text-anchor="start" x="554" y="-656.4" font-family="Arial" font-size="24.00" fill="#cccccc">graph</text>
</g>
<g id="clust6" class="cluster">
<title>cluster_group_risk</title>
<polygon fill="none" stroke="#cccccc" stroke-dasharray="5,2" points="2036,-642.8 2036,-914.6 2454,-914.6 2454,-642.8 2036,-642.8"/>
<text text-anchor="start" x="2226" y="-656.4" font-family="Arial" font-size="24.00" fill="#cccccc">risk</text>
</g>
<g id="clust7" class="cluster">
<title>cluster_group_specification</title>
<polygon fill="none" stroke="#cccccc" stroke-dasharray="5,2" points="2507,-264 2507,-559.8 2921,-559.8 2921,-264 2507,-264"/>
<text text-anchor="start" x="2647.5" y="-277.6" font-family="Arial" font-size="24.00" fill="#cccccc">specification</text>
</g>
<g id="clust8" class="cluster">
<title>cluster_group_test_evidence</title>
<polygon fill="none" stroke="#cccccc" stroke-dasharray="5,2" points="2882,-642.8 2882,-914.6 3270,-914.6 3270,-642.8 2882,-642.8"/>
<text text-anchor="start" x="3001" y="-656.4" font-family="Arial" font-size="24.00" fill="#cccccc">test_evidence</text>
</g>
<!-- 26 -->
<g id="26" class="node">
<title>26</title>
<polygon fill="#85bbf0" stroke="#5d82a8" points="1532.5,-901.6 1163.5,-901.6 1163.5,-718.6 1532.5,-718.6 1532.5,-901.6"/>
<text text-anchor="start" x="1206" y="-853.4" font-family="Arial" font-size="34.00" fill="#000000">Architecture model</text>
<text text-anchor="start" x="1259" y="-831.4" font-family="Arial" font-size="19.00" fill="#000000">[Component: Python]</text>
<text text-anchor="start" x="1192.5" y="-794.4" font-family="Arial" font-size="24.00" fill="#000000">The C4 model, read from the</text>
<text text-anchor="start" x="1214" y="-770.4" font-family="Arial" font-size="24.00" fill="#000000">workspace&#39;s export; view</text>
<text text-anchor="start" x="1295" y="-746.4" font-family="Arial" font-size="24.00" fill="#000000">freshness</text>
</g>
<!-- 28 -->
<g id="28" class="node">
<title>28</title>
<polygon fill="#85bbf0" stroke="#5d82a8" points="1985.5,-877.6 1608.5,-877.6 1608.5,-742.6 1985.5,-742.6 1985.5,-877.6"/>
<text text-anchor="start" x="1698.5" y="-829.4" font-family="Arial" font-size="34.00" fill="#000000">Gap analysis</text>
<text text-anchor="start" x="1708" y="-807.4" font-family="Arial" font-size="19.00" fill="#000000">[Component: Python]</text>
<text text-anchor="start" x="1637.5" y="-770.4" font-family="Arial" font-size="24.00" fill="#000000">Documents against checklists</text>
</g>
<!-- 36 -->
<g id="36" class="node">
<title>36</title>
<polygon fill="#85bbf0" stroke="#5d82a8" points="684,-1208.6 318,-1208.6 318,-1025.6 684,-1025.6 684,-1208.6"/>
<text text-anchor="start" x="425.5" y="-1160.4" font-family="Arial" font-size="34.00" fill="#000000">Projection</text>
<text text-anchor="start" x="360" y="-1138.4" font-family="Arial" font-size="19.00" fill="#000000">[Component: Python, pyoxigraph]</text>
<text text-anchor="start" x="347" y="-1101.4" font-family="Arial" font-size="24.00" fill="#000000">The record into RDF: named</text>
<text text-anchor="start" x="372.5" y="-1077.4" font-family="Arial" font-size="24.00" fill="#000000">graphs, rules, the graph</text>
<text text-anchor="start" x="441.5" y="-1053.4" font-family="Arial" font-size="24.00" fill="#000000">commands</text>
</g>
<!-- 36&#45;&gt;26 -->
<g id="128" class="edge">
<title>36&#45;&gt;26</title>
<path fill="none" stroke="#444444" stroke-dasharray="5,2" d="M684.27,-1036.31C696.58,-1032.32 708.9,-1028.69 721,-1025.6 862.23,-989.52 908.75,-1035.82 1047,-989.6 1105.01,-970.21 1163.94,-938.46 1214.11,-907.08"/>
<polygon fill="#444444" stroke="#444444" points="1216.14,-909.93 1222.72,-901.64 1212.4,-904.02 1216.14,-909.93"/>
<text text-anchor="start" x="1160.5" y="-970.4" font-family="Arial" font-size="24.00" fill="#444444">reads the C4 model and</text>
<text text-anchor="start" x="1160" y="-944.4" font-family="Arial" font-size="24.00" fill="#444444">code dependencies with</text>
</g>
<!-- 36&#45;&gt;28 -->
<g id="91" class="edge">
<title>36&#45;&gt;28</title>
<path fill="none" stroke="#444444" stroke-dasharray="5,2" d="M684.07,-1035.46C696.43,-1031.68 708.81,-1028.33 721,-1025.6 1032.36,-955.9 1128.02,-1065.2 1438,-989.6 1525.87,-968.17 1617.03,-922.5 1685.5,-882.73"/>
<polygon fill="#444444" stroke="#444444" points="1687.3,-885.73 1694.16,-877.66 1683.76,-879.69 1687.3,-885.73"/>
<text text-anchor="start" x="1572" y="-970.4" font-family="Arial" font-size="24.00" fill="#444444">matches checklist</text>
<text text-anchor="start" x="1585" y="-944.4" font-family="Arial" font-size="24.00" fill="#444444">references with</text>
</g>
<!-- 37 -->
<g id="37" class="node">
<title>37</title>
<polygon fill="#85bbf0" stroke="#5d82a8" points="436.5,-889.6 83.5,-889.6 83.5,-730.6 436.5,-730.6 436.5,-889.6"/>
<text text-anchor="start" x="175.5" y="-841.4" font-family="Arial" font-size="34.00" fill="#000000">Vocabulary</text>
<text text-anchor="start" x="176.5" y="-819.4" font-family="Arial" font-size="19.00" fill="#000000">[Component: Turtle]</text>
<text text-anchor="start" x="112.5" y="-782.4" font-family="Arial" font-size="24.00" fill="#000000">Classes, properties and the</text>
<text text-anchor="start" x="124.5" y="-758.4" font-family="Arial" font-size="24.00" fill="#000000">rules that derive relations</text>
</g>
<!-- 36&#45;&gt;37 -->
<g id="83" class="edge">
<title>36&#45;&gt;37</title>
<path fill="none" stroke="#444444" stroke-dasharray="5,2" d="M317.84,-1082.78C266.66,-1064.12 216.7,-1035.01 186,-989.6 167.28,-961.9 174.34,-928.72 189.96,-898.51"/>
<polygon fill="#444444" stroke="#444444" points="193.08,-900.12 194.82,-889.67 186.94,-896.75 193.08,-900.12"/>
<text text-anchor="start" x="186" y="-970.4" font-family="Arial" font-size="24.00" fill="#444444">declares terms and rules</text>
<text text-anchor="start" x="309.5" y="-944.4" font-family="Arial" font-size="24.00" fill="#444444">in</text>
</g>
<!-- 40 -->
<g id="40" class="node">
<title>40</title>
<polygon fill="#85bbf0" stroke="#5d82a8" points="897.5,-877.6 580.5,-877.6 580.5,-742.6 897.5,-742.6 897.5,-877.6"/>
<text text-anchor="start" x="649" y="-829.4" font-family="Arial" font-size="34.00" fill="#000000">Explorer file</text>
<text text-anchor="start" x="650" y="-807.4" font-family="Arial" font-size="19.00" fill="#000000">[Component: Python]</text>
<text text-anchor="start" x="609.5" y="-770.4" font-family="Arial" font-size="24.00" fill="#000000">A file for Graph Explorer</text>
</g>
<!-- 36&#45;&gt;40 -->
<g id="84" class="edge">
<title>36&#45;&gt;40</title>
<path fill="none" stroke="#444444" stroke-dasharray="5,2" d="M471.83,-1025.22C467.55,-995.43 469.03,-963.39 485,-937.6 505.29,-904.82 536.92,-880.26 571.04,-861.96"/>
<polygon fill="#444444" stroke="#444444" points="572.97,-864.9 580.25,-857.2 569.76,-858.69 572.97,-864.9"/>
<text text-anchor="start" x="485" y="-970.4" font-family="Arial" font-size="24.00" fill="#444444">writes the explorer file</text>
<text text-anchor="start" x="581.5" y="-944.4" font-family="Arial" font-size="24.00" fill="#444444">with</text>
</g>
<!-- 25 -->
<g id="25" class="node">
<title>25</title>
<polygon fill="#85bbf0" stroke="#5d82a8" points="2429,-889.6 2061,-889.6 2061,-730.6 2429,-730.6 2429,-889.6"/>
<text text-anchor="start" x="2150" y="-841.4" font-family="Arial" font-size="34.00" fill="#000000">Risk register</text>
<text text-anchor="start" x="2156" y="-819.4" font-family="Arial" font-size="19.00" fill="#000000">[Component: Python]</text>
<text text-anchor="start" x="2090" y="-782.4" font-family="Arial" font-size="24.00" fill="#000000">Risks scored from the policy;</text>
<text text-anchor="start" x="2155" y="-758.4" font-family="Arial" font-size="24.00" fill="#000000">the release rules</text>
</g>
<!-- 36&#45;&gt;25 -->
<g id="82" class="edge">
<title>36&#45;&gt;25</title>
<path fill="none" stroke="#444444" stroke-dasharray="5,2" d="M684.02,-1035.23C696.39,-1031.5 708.79,-1028.23 721,-1025.6 951.41,-975.98 1547.66,-1022.81 1781,-989.6 1893.59,-973.58 1922.97,-967.71 2029,-926.6 2052.82,-917.36 2077.35,-906.1 2100.96,-894.27"/>
<polygon fill="#444444" stroke="#444444" points="2102.61,-897.36 2109.95,-889.72 2099.45,-891.11 2102.61,-897.36"/>
<text text-anchor="start" x="1999" y="-970.4" font-family="Arial" font-size="24.00" fill="#444444">reads risks and findings</text>
<text text-anchor="start" x="2105" y="-944.4" font-family="Arial" font-size="24.00" fill="#444444">with</text>
</g>
<!-- 6 -->
<g id="6" class="node">
<title>6</title>
<polygon fill="#85bbf0" stroke="#5d82a8" points="2896.5,-534.8 2531.5,-534.8 2531.5,-351.8 2896.5,-351.8 2896.5,-534.8"/>
<text text-anchor="start" x="2608" y="-486.6" font-family="Arial" font-size="34.00" fill="#000000">Record kernel</text>
<text text-anchor="start" x="2625" y="-464.6" font-family="Arial" font-size="19.00" fill="#000000">[Component: Python]</text>
<text text-anchor="start" x="2560.5" y="-427.6" font-family="Arial" font-size="24.00" fill="#000000">Design and V&amp;V frontmatter,</text>
<text text-anchor="start" x="2563" y="-403.6" font-family="Arial" font-size="24.00" fill="#000000">ids, git, the shared reconcile</text>
<text text-anchor="start" x="2674" y="-379.6" font-family="Arial" font-size="24.00" fill="#000000">helpers</text>
</g>
<!-- 36&#45;&gt;6 -->
<g id="81" class="edge">
<title>36&#45;&gt;6</title>
<path fill="none" stroke="#444444" stroke-dasharray="5,2" d="M684.29,-1034.98C696.57,-1031.33 708.87,-1028.14 721,-1025.6 1058.42,-954.83 1931.88,-1045.95 2272,-989.6 2363.94,-974.37 2402.61,-988.81 2472,-926.6 2578.92,-830.74 2536.01,-758.34 2602,-630.8 2616.88,-602.04 2634.35,-571.64 2651.01,-543.9"/>
<polygon fill="#444444" stroke="#444444" points="2654.21,-545.37 2656.39,-535 2648.22,-541.75 2654.21,-545.37"/>
<text text-anchor="start" x="2602" y="-816.9" font-family="Arial" font-size="24.00" fill="#444444">reads the record, results</text>
<text text-anchor="start" x="2671.5" y="-790.9" font-family="Arial" font-size="24.00" fill="#444444">and git with</text>
</g>
<!-- 21 -->
<g id="21" class="node">
<title>21</title>
<polygon fill="#85bbf0" stroke="#5d82a8" points="3245,-889.6 2907,-889.6 2907,-730.6 3245,-730.6 3245,-889.6"/>
<text text-anchor="start" x="2979" y="-841.4" font-family="Arial" font-size="34.00" fill="#000000">Allure reader</text>
<text text-anchor="start" x="2987" y="-819.4" font-family="Arial" font-size="19.00" fill="#000000">[Component: Python]</text>
<text text-anchor="start" x="2936" y="-782.4" font-family="Arial" font-size="24.00" fill="#000000">Allure results, and the test</text>
<text text-anchor="start" x="2971.5" y="-758.4" font-family="Arial" font-size="24.00" fill="#000000">tags in test sources</text>
</g>
<!-- 36&#45;&gt;21 -->
<g id="127" class="edge">
<title>36&#45;&gt;21</title>
<path fill="none" stroke="#444444" stroke-dasharray="5,2" d="M684.28,-1034.93C696.56,-1031.29 708.87,-1028.12 721,-1025.6 1128.17,-941.05 2179.55,-1042.7 2592,-989.6 2710.35,-974.36 2741.21,-968.34 2853,-926.6 2877.74,-917.36 2903.25,-906.03 2927.79,-894.12"/>
<polygon fill="#444444" stroke="#444444" points="2929.35,-897.25 2936.78,-889.7 2926.26,-890.97 2929.35,-897.25"/>
<text text-anchor="start" x="2821" y="-970.4" font-family="Arial" font-size="24.00" fill="#444444">reads results and test</text>
<text text-anchor="start" x="2889" y="-944.4" font-family="Arial" font-size="24.00" fill="#444444">tags with</text>
</g>
<!-- 38 -->
<g id="38" class="node">
<title>38</title>
<polygon fill="#85bbf0" stroke="#5d82a8" points="1087.5,-1184.6 756.5,-1184.6 756.5,-1049.6 1087.5,-1049.6 1087.5,-1184.6"/>
<text text-anchor="start" x="825.5" y="-1136.4" font-family="Arial" font-size="34.00" fill="#000000">Gate shapes</text>
<text text-anchor="start" x="831" y="-1114.4" font-family="Arial" font-size="19.00" fill="#000000">[Component: SHACL]</text>
<text text-anchor="start" x="785.5" y="-1077.4" font-family="Arial" font-size="24.00" fill="#000000">The gate rules as shapes</text>
</g>
<!-- 39 -->
<g id="39" class="node">
<title>39</title>
<polygon fill="#85bbf0" stroke="#5d82a8" points="1018,-1441.6 688,-1441.6 688,-1306.6 1018,-1306.6 1018,-1441.6"/>
<text text-anchor="start" x="720" y="-1393.4" font-family="Arial" font-size="34.00" fill="#000000">SHACL validation</text>
<text text-anchor="start" x="717" y="-1371.4" font-family="Arial" font-size="19.00" fill="#000000">[Component: Python, pySHACL]</text>
<text text-anchor="start" x="752" y="-1334.4" font-family="Arial" font-size="24.00" fill="#000000">rdm graph validate</text>
</g>
<!-- 39&#45;&gt;36 -->
<g id="86" class="edge">
<title>39&#45;&gt;36</title>
<path fill="none" stroke="#444444" stroke-dasharray="5,2" d="M687.98,-1306.82C668.01,-1295.97 648.51,-1283.87 631,-1270.6 610.56,-1255.11 591.12,-1235.89 573.79,-1216.38"/>
<polygon fill="#444444" stroke="#444444" points="576.21,-1213.84 567,-1208.6 570.94,-1218.44 576.21,-1213.84"/>
<text text-anchor="start" x="631" y="-1251.4" font-family="Arial" font-size="24.00" fill="#444444">validates the graph of</text>
</g>
<!-- 39&#45;&gt;38 -->
<g id="87" class="edge">
<title>39&#45;&gt;38</title>
<path fill="none" stroke="#444444" stroke-dasharray="5,2" d="M871.04,-1306.43C880.31,-1272.17 891.65,-1230.26 901.28,-1194.68"/>
<polygon fill="#444444" stroke="#444444" points="904.71,-1195.39 903.95,-1184.82 897.96,-1193.56 904.71,-1195.39"/>
<text text-anchor="start" x="887" y="-1251.4" font-family="Arial" font-size="24.00" fill="#444444">checks with</text>
</g>
<!-- 40&#45;&gt;36 -->
<g id="85" class="edge">
<title>40&#45;&gt;36</title>
<path fill="none" stroke="#444444" stroke-dasharray="5,2" d="M752.85,-877.95C756.63,-913.56 755.13,-956.68 735,-989.6 723.87,-1007.8 709.14,-1023.55 692.47,-1037.14"/>
<polygon fill="#444444" stroke="#444444" points="689.87,-1034.73 684.14,-1043.64 694.18,-1040.25 689.87,-1034.73"/>
<text text-anchor="start" x="752" y="-970.4" font-family="Arial" font-size="24.00" fill="#444444">reads the projected graph</text>
<text text-anchor="start" x="866" y="-944.4" font-family="Arial" font-size="24.00" fill="#444444">from</text>
</g>
<!-- 41 -->
<g id="41" class="node">
<title>41</title>
<polygon fill="#85bbf0" stroke="#5d82a8" points="1053.5,-1698.6 652.5,-1698.6 652.5,-1539.6 1053.5,-1539.6 1053.5,-1698.6"/>
<text text-anchor="start" x="756.5" y="-1650.4" font-family="Arial" font-size="34.00" fill="#000000">Agent server</text>
<text text-anchor="start" x="737.5" y="-1628.4" font-family="Arial" font-size="19.00" fill="#000000">[Component: Python, MCP]</text>
<text text-anchor="start" x="681.5" y="-1591.4" font-family="Arial" font-size="24.00" fill="#000000">Read&#45;only schema, query, trace</text>
<text text-anchor="start" x="730" y="-1567.4" font-family="Arial" font-size="24.00" fill="#000000">and validate for agents</text>
</g>
<!-- 41&#45;&gt;36 -->
<g id="88" class="edge">
<title>41&#45;&gt;36</title>
<path fill="none" stroke="#444444" stroke-dasharray="5,2" d="M680.25,-1539.51C639.43,-1513.6 599.76,-1481.06 572,-1441.6 526.22,-1376.51 509.18,-1287.25 503.2,-1218.98"/>
<polygon fill="#444444" stroke="#444444" points="506.66,-1218.32 502.36,-1208.64 499.68,-1218.89 506.66,-1218.32"/>
<text text-anchor="start" x="572" y="-1367.9" font-family="Arial" font-size="24.00" fill="#444444">queries</text>
</g>
<!-- 41&#45;&gt;39 -->
<g id="89" class="edge">
<title>41&#45;&gt;39</title>
<path fill="none" stroke="#444444" stroke-dasharray="5,2" d="M853,-1539.54C853,-1511.51 853,-1479.97 853,-1452.07"/>
<polygon fill="#444444" stroke="#444444" points="856.5,-1451.97 853,-1441.97 849.5,-1451.97 856.5,-1451.97"/>
<text text-anchor="start" x="853" y="-1484.4" font-family="Arial" font-size="24.00" fill="#444444">validates with</text>
</g>
<!-- 41&#45;&gt;6 -->
<g id="90" class="edge">
<title>41&#45;&gt;6</title>
<path fill="none" stroke="#444444" stroke-dasharray="5,2" d="M1053.56,-1592.17C1586.22,-1518.77 3014.38,-1290.96 3288,-926.6 3366.95,-821.48 3359.33,-741.23 3288,-630.8 3245.44,-564.91 3056.35,-512.31 2906.67,-479.98"/>
<polygon fill="#444444" stroke="#444444" points="2907.38,-476.55 2896.87,-477.88 2905.91,-483.4 2907.38,-476.55"/>
<text text-anchor="start" x="3181" y="-1110.9" font-family="Arial" font-size="24.00" fill="#444444">checks ids with</text>
</g>
<!-- 25&#45;&gt;6 -->
<g id="97" class="edge">
<title>25&#45;&gt;6</title>
<path fill="none" stroke="#444444" stroke-dasharray="5,2" d="M2250.93,-730.38C2258.83,-678.71 2277.07,-613.1 2319,-570.8 2372.68,-516.64 2449.54,-485.65 2521.21,-467.91"/>
<polygon fill="#444444" stroke="#444444" points="2522.38,-471.23 2531.29,-465.5 2520.75,-464.43 2522.38,-471.23"/>
<text text-anchor="start" x="2319" y="-590.6" font-family="Arial" font-size="24.00" fill="#444444">reads frontmatter with</text>
</g>
<!-- 21&#45;&gt;6 -->
<g id="122" class="edge">
<title>21&#45;&gt;6</title>
<path fill="none" stroke="#444444" stroke-dasharray="5,2" d="M2997.9,-730.39C2943.17,-675.24 2869.65,-601.16 2811.14,-542.19"/>
<polygon fill="#444444" stroke="#444444" points="2813.61,-539.71 2804.08,-535.08 2808.64,-544.65 2813.61,-539.71"/>
<text text-anchor="start" x="2884" y="-603.6" font-family="Arial" font-size="24.00" fill="#444444">finds the repository and</text>
<text text-anchor="start" x="2929" y="-577.6" font-family="Arial" font-size="24.00" fill="#444444">checks ids with</text>
</g>
</g>
</svg>
