<?xml version="1.0" encoding="UTF-8" standalone="no"?>
<!-- rdm c4 draw: view C3_risk, workspace sha256:20b5ae7b011ede3fee3c122361ad5a031cfd45339e88d84b2a8c71d84c3364d6 -->
<!DOCTYPE svg PUBLIC "-//W3C//DTD SVG 1.1//EN"
 "http://www.w3.org/Graphics/SVG/1.1/DTD/svg11.dtd">
<!-- Generated by graphviz version 2.43.0 (0)
 -->
<!-- Title: %3 Pages: 1 -->
<svg width="2019pt" height="1297pt"
 viewBox="0.00 0.00 2019.00 1296.60" xmlns="http://www.w3.org/2000/svg" xmlns:xlink="http://www.w3.org/1999/xlink">
<g id="graph0" class="graph" transform="scale(1 1) rotate(0) translate(4 1292.6)">
<title>%3</title>
<polygon fill="white" stroke="transparent" points="-4,4 -4,-1292.6 2015,-1292.6 2015,4 -4,4"/>
<text text-anchor="start" x="831.5" y="-11.8" font-family="Arial" font-size="34.00">Risk: components (C3)</text>
<g id="clust1" class="cluster">
<title>cluster_4</title>
<polygon fill="none" stroke="#444444" points="8,-64 8,-1280.6 2003,-1280.6 2003,-64 8,-64"/>
<text text-anchor="start" x="978" y="-92.8" font-family="Arial" font-size="24.00" fill="#444444">RDM</text>
<text text-anchor="start" x="928.5" y="-72.8" font-family="Arial" font-size="19.00" fill="#444444">[Software System]</text>
</g>
<g id="clust2" class="cluster">
<title>cluster_45</title>
<polygon fill="none" stroke="#cccccc" points="1486,-750.8 1486,-1195.6 1978,-1195.6 1978,-750.8 1486,-750.8"/>
<text text-anchor="start" x="1625" y="-779.6" font-family="Arial" font-size="24.00" fill="#cccccc">Acceptance test run</text>
<text text-anchor="start" x="1598" y="-759.6" font-family="Arial" font-size="19.00" fill="#cccccc">[Container: pytest, allure&#45;pytest]</text>
</g>
<g id="clust3" class="cluster">
<title>cluster_group_test_evidence</title>
<polygon fill="none" stroke="#cccccc" stroke-dasharray="5,2" points="1511,-850.8 1511,-1170.6 1953,-1170.6 1953,-850.8 1511,-850.8"/>
<text text-anchor="start" x="1657" y="-864.4" font-family="Arial" font-size="24.00" fill="#cccccc">test_evidence</text>
</g>
<g id="clust4" class="cluster">
<title>cluster_5</title>
<polygon fill="none" stroke="#444444" points="33,-164 33,-1255.6 1461,-1255.6 1461,-164 33,-164"/>
<text text-anchor="start" x="725.5" y="-192.8" font-family="Arial" font-size="24.00" fill="#444444">rdm</text>
<text text-anchor="start" x="665.5" y="-172.8" font-family="Arial" font-size="19.00" fill="#444444">[Container: Python]</text>
</g>
<g id="clust5" class="cluster">
<title>cluster_group_graph</title>
<polygon fill="none" stroke="#cccccc" stroke-dasharray="5,2" points="976,-814.8 976,-1206.6 1436,-1206.6 1436,-814.8 976,-814.8"/>
<text text-anchor="start" x="1174.5" y="-828.4" font-family="Arial" font-size="24.00" fill="#cccccc">graph</text>
</g>
<g id="clust6" class="cluster">
<title>cluster_group_publishing</title>
<polygon fill="none" stroke="#cccccc" stroke-dasharray="5,2" points="519,-862.8 519,-1158.6 951,-1158.6 951,-862.8 519,-862.8"/>
<text text-anchor="start" x="680.5" y="-876.4" font-family="Arial" font-size="24.00" fill="#cccccc">publishing</text>
</g>
<g id="clust7" class="cluster">
<title>cluster_group_release</title>
<polygon fill="none" stroke="#cccccc" stroke-dasharray="5,2" points="58,-790.8 58,-1230.6 494,-1230.6 494,-790.8 58,-790.8"/>
<text text-anchor="start" x="236" y="-804.4" font-family="Arial" font-size="24.00" fill="#cccccc">release</text>
</g>
<g id="clust8" class="cluster">
<title>cluster_group_risk</title>
<polygon fill="none" stroke="#cccccc" stroke-dasharray="5,2" points="761,-264 761,-679.8 1155,-679.8 1155,-264 761,-264"/>
<text text-anchor="start" x="939" y="-277.6" font-family="Arial" font-size="24.00" fill="#cccccc">risk</text>
</g>
<!-- 46 -->
<g id="46" class="node">
<title>46</title>
<polygon fill="#85bbf0" stroke="#5d82a8" points="1928,-1145.6 1536,-1145.6 1536,-938.6 1928,-938.6 1928,-1145.6"/>
<text text-anchor="start" x="1636" y="-1097.4" font-family="Arial" font-size="34.00" fill="#000000">pytest plugin</text>
<text text-anchor="start" x="1612" y="-1075.4" font-family="Arial" font-size="19.00" fill="#000000">[Component: Python, pytest]</text>
<text text-anchor="start" x="1597.5" y="-1038.4" font-family="Arial" font-size="24.00" fill="#000000">Labels each run from the</text>
<text text-anchor="start" x="1571" y="-1014.4" font-family="Arial" font-size="24.00" fill="#000000">record; the run&#39;s executor and</text>
<text text-anchor="start" x="1565" y="-990.4" font-family="Arial" font-size="24.00" fill="#000000">environment, written only when</text>
<text text-anchor="start" x="1586.5" y="-966.4" font-family="Arial" font-size="24.00" fill="#000000">the run writes Allure results</text>
</g>
<!-- 26 -->
<g id="26" class="node">
<title>26</title>
<polygon fill="#85bbf0" stroke="#5d82a8" points="1130,-654.8 786,-654.8 786,-351.8 1130,-351.8 1130,-654.8"/>
<text text-anchor="start" x="863" y="-606.6" font-family="Arial" font-size="34.00" fill="#000000">Risk register</text>
<text text-anchor="start" x="869" y="-584.6" font-family="Arial" font-size="19.00" fill="#000000">[Component: Python]</text>
<text text-anchor="start" x="815" y="-547.6" font-family="Arial" font-size="24.00" fill="#000000">The risk register evaluated</text>
<text text-anchor="start" x="826.5" y="-523.6" font-family="Arial" font-size="24.00" fill="#000000">against the declared risk</text>
<text text-anchor="start" x="835.5" y="-499.6" font-family="Arial" font-size="24.00" fill="#000000">policy; the risk rules as</text>
<text text-anchor="start" x="817" y="-475.6" font-family="Arial" font-size="24.00" fill="#000000">findings, written only here;</text>
<text text-anchor="start" x="823.5" y="-451.6" font-family="Arial" font-size="24.00" fill="#000000">handed the declared and</text>
<text text-anchor="start" x="818.5" y="-427.6" font-family="Arial" font-size="24.00" fill="#000000">verified design input ids, it</text>
<text text-anchor="start" x="850.5" y="-403.6" font-family="Arial" font-size="24.00" fill="#000000">reads nothing of the</text>
<text text-anchor="start" x="891.5" y="-379.6" font-family="Arial" font-size="24.00" fill="#000000">specification</text>
</g>
<!-- 46&#45;&gt;26 -->
<g id="100" class="edge">
<title>46&#45;&gt;26</title>
<path fill="none" stroke="#444444" stroke-dasharray="5,2" d="M1643.08,-938.36C1590.69,-880.43 1521.61,-808.37 1454,-750.8 1361.44,-671.98 1239.33,-610.89 1139.43,-569.25"/>
<polygon fill="#444444" stroke="#444444" points="1140.72,-565.99 1130.14,-565.4 1138.05,-572.46 1140.72,-565.99"/>
<text text-anchor="start" x="1474" y="-723.6" font-family="Arial" font-size="24.00" fill="#444444">finds the risks each</text>
<text text-anchor="start" x="1442" y="-697.6" font-family="Arial" font-size="24.00" fill="#444444">design input controls with</text>
</g>
<!-- 39 -->
<g id="39" class="node">
<title>39</title>
<polygon fill="#85bbf0" stroke="#5d82a8" points="1411,-1181.6 1001,-1181.6 1001,-902.6 1411,-902.6 1411,-1181.6"/>
<text text-anchor="start" x="1130.5" y="-1133.4" font-family="Arial" font-size="34.00" fill="#000000">Projection</text>
<text text-anchor="start" x="1065" y="-1111.4" font-family="Arial" font-size="19.00" fill="#000000">[Component: Python, pyoxigraph]</text>
<text text-anchor="start" x="1030" y="-1074.4" font-family="Arial" font-size="24.00" fill="#000000">The record into RDF, one named</text>
<text text-anchor="start" x="1110.5" y="-1050.4" font-family="Arial" font-size="24.00" fill="#000000">graph per source,</text>
<text text-anchor="start" x="1069" y="-1026.4" font-family="Arial" font-size="24.00" fill="#000000">de&#45;duplicated and sorted;</text>
<text text-anchor="start" x="1063" y="-1002.4" font-family="Arial" font-size="24.00" fill="#000000">replaces the store on each</text>
<text text-anchor="start" x="1049.5" y="-978.4" font-family="Arial" font-size="24.00" fill="#000000">build; rdm graph build, query,</text>
<text text-anchor="start" x="1090" y="-954.4" font-family="Arial" font-size="24.00" fill="#000000">serve (read&#45;only) and</text>
<text text-anchor="start" x="1142.5" y="-930.4" font-family="Arial" font-size="24.00" fill="#000000">explorer&#45;file</text>
</g>
<!-- 39&#45;&gt;26 -->
<g id="80" class="edge">
<title>39&#45;&gt;26</title>
<path fill="none" stroke="#444444" stroke-dasharray="5,2" d="M1160.24,-902.55C1136.91,-837.1 1106.42,-758.64 1073,-690.8 1068.62,-681.91 1063.94,-672.89 1059.06,-663.87"/>
<polygon fill="#444444" stroke="#444444" points="1062,-661.94 1054.13,-654.85 1055.86,-665.3 1062,-661.94"/>
<text text-anchor="start" x="1094" y="-723.6" font-family="Arial" font-size="24.00" fill="#444444">reads risks and findings</text>
<text text-anchor="start" x="1200" y="-697.6" font-family="Arial" font-size="24.00" fill="#444444">with</text>
</g>
<!-- 37 -->
<g id="37" class="node">
<title>37</title>
<polygon fill="#85bbf0" stroke="#5d82a8" points="926.5,-1133.6 543.5,-1133.6 543.5,-950.6 926.5,-950.6 926.5,-1133.6"/>
<text text-anchor="start" x="602.5" y="-1085.4" font-family="Arial" font-size="34.00" fill="#000000">Verification report</text>
<text text-anchor="start" x="646" y="-1063.4" font-family="Arial" font-size="19.00" fill="#000000">[Component: Python]</text>
<text text-anchor="start" x="572.5" y="-1026.4" font-family="Arial" font-size="24.00" fill="#000000">rdm story evidence&#45;report: the</text>
<text text-anchor="start" x="574" y="-1002.4" font-family="Arial" font-size="24.00" fill="#000000">PDF of every run behind each</text>
<text text-anchor="start" x="669.5" y="-978.4" font-family="Arial" font-size="24.00" fill="#000000">design input</text>
</g>
<!-- 37&#45;&gt;26 -->
<g id="98" class="edge">
<title>37&#45;&gt;26</title>
<path fill="none" stroke="#444444" stroke-dasharray="5,2" d="M745.67,-950.24C756.68,-877.44 777.94,-774.07 817,-690.8 821.23,-681.77 825.95,-672.76 831.03,-663.85"/>
<polygon fill="#444444" stroke="#444444" points="834.19,-665.37 836.21,-654.97 828.15,-661.84 834.19,-665.37"/>
<text text-anchor="start" x="826" y="-723.6" font-family="Arial" font-size="24.00" fill="#444444">reads risk status and</text>
<text text-anchor="start" x="817" y="-697.6" font-family="Arial" font-size="24.00" fill="#444444">residual decisions with</text>
</g>
<!-- 21 -->
<g id="21" class="node">
<title>21</title>
<polygon fill="#85bbf0" stroke="#5d82a8" points="469,-1205.6 83,-1205.6 83,-878.6 469,-878.6 469,-1205.6"/>
<text text-anchor="start" x="175.5" y="-1157.4" font-family="Arial" font-size="34.00" fill="#000000">Release gate</text>
<text text-anchor="start" x="187" y="-1135.4" font-family="Arial" font-size="19.00" fill="#000000">[Component: Python]</text>
<text text-anchor="start" x="170.5" y="-1098.4" font-family="Arial" font-size="24.00" fill="#000000">Blocks a release on</text>
<text text-anchor="start" x="134.5" y="-1074.4" font-family="Arial" font-size="24.00" fill="#000000">design&#45;gate failures, failed</text>
<text text-anchor="start" x="137" y="-1050.4" font-family="Arial" font-size="24.00" fill="#000000">or untested design inputs,</text>
<text text-anchor="start" x="133" y="-1026.4" font-family="Arial" font-size="24.00" fill="#000000">blocking risk findings or an</text>
<text text-anchor="start" x="112" y="-1002.4" font-family="Arial" font-size="24.00" fill="#000000">unrefined user need; warns on</text>
<text text-anchor="start" x="127" y="-978.4" font-family="Arial" font-size="24.00" fill="#000000">unvalidated user needs and</text>
<text text-anchor="start" x="113.5" y="-954.4" font-family="Arial" font-size="24.00" fill="#000000">orphan tags; the design gate&#39;s</text>
<text text-anchor="start" x="134.5" y="-930.4" font-family="Arial" font-size="24.00" fill="#000000">results warnings; the trace</text>
<text text-anchor="start" x="251.5" y="-906.4" font-family="Arial" font-size="24.00" fill="#000000">slice</text>
</g>
<!-- 21&#45;&gt;26 -->
<g id="171" class="edge">
<title>21&#45;&gt;26</title>
<path fill="none" stroke="#444444" stroke-dasharray="5,2" d="M367.15,-878.4C409.72,-813.51 465.15,-742.19 529,-690.8 601.42,-632.51 694.85,-589.06 776.03,-558.83"/>
<polygon fill="#444444" stroke="#444444" points="777.69,-561.95 785.86,-555.21 775.27,-555.38 777.69,-561.95"/>
<text text-anchor="start" x="529" y="-723.6" font-family="Arial" font-size="24.00" fill="#444444">reports the risk findings</text>
<text text-anchor="start" x="644" y="-697.6" font-family="Arial" font-size="24.00" fill="#444444">of</text>
</g>
</g>
</svg>
