<?xml version="1.0" encoding="UTF-8" standalone="no"?>
<!-- rdm c4 draw: view C3_risk, workspace sha256:fc0246e8b8da42d60cd2ac2dcf76379f8a6c6302363d7a29582aadc475f7f51e -->
<!DOCTYPE svg PUBLIC "-//W3C//DTD SVG 1.1//EN"
 "http://www.w3.org/Graphics/SVG/1.1/DTD/svg11.dtd">
<!-- Generated by graphviz version 2.43.0 (0)
 -->
<!-- Title: %3 Pages: 1 -->
<svg width="1949pt" height="1129pt"
 viewBox="0.00 0.00 1949.00 1128.60" xmlns="http://www.w3.org/2000/svg" xmlns:xlink="http://www.w3.org/1999/xlink">
<g id="graph0" class="graph" transform="scale(1 1) rotate(0) translate(4 1124.6)">
<title>%3</title>
<polygon fill="white" stroke="transparent" points="-4,4 -4,-1124.6 1945,-1124.6 1945,4 -4,4"/>
<text text-anchor="start" x="796.5" y="-11.8" font-family="Arial" font-size="34.00">Risk: components (C3)</text>
<g id="clust1" class="cluster">
<title>cluster_4</title>
<polygon fill="none" stroke="#444444" points="8,-64 8,-1112.6 1933,-1112.6 1933,-64 8,-64"/>
<text text-anchor="start" x="943" y="-92.8" font-family="Arial" font-size="24.00" fill="#444444">RDM</text>
<text text-anchor="start" x="893.5" y="-72.8" font-family="Arial" font-size="19.00" fill="#444444">[Software System]</text>
</g>
<g id="clust2" class="cluster">
<title>cluster_45</title>
<polygon fill="none" stroke="#cccccc" points="1428,-654.8 1428,-1075.6 1908,-1075.6 1908,-654.8 1428,-654.8"/>
<text text-anchor="start" x="1561" y="-683.6" font-family="Arial" font-size="24.00" fill="#cccccc">Acceptance test run</text>
<text text-anchor="start" x="1534" y="-663.6" font-family="Arial" font-size="19.00" fill="#cccccc">[Container: pytest, allure&#45;pytest]</text>
</g>
<g id="clust3" class="cluster">
<title>cluster_group_test_evidence</title>
<polygon fill="none" stroke="#cccccc" stroke-dasharray="5,2" points="1453,-754.8 1453,-1050.6 1883,-1050.6 1883,-754.8 1453,-754.8"/>
<text text-anchor="start" x="1593" y="-768.4" font-family="Arial" font-size="24.00" fill="#cccccc">test_evidence</text>
</g>
<g id="clust4" class="cluster">
<title>cluster_5</title>
<polygon fill="none" stroke="#444444" points="33,-164 33,-1087.6 1403,-1087.6 1403,-164 33,-164"/>
<text text-anchor="start" x="696.5" y="-192.8" font-family="Arial" font-size="24.00" fill="#444444">rdm</text>
<text text-anchor="start" x="636.5" y="-172.8" font-family="Arial" font-size="19.00" fill="#444444">[Container: Python]</text>
</g>
<g id="clust5" class="cluster">
<title>cluster_group_graph</title>
<polygon fill="none" stroke="#cccccc" stroke-dasharray="5,2" points="918,-742.8 918,-1062.6 1378,-1062.6 1378,-742.8 918,-742.8"/>
<text text-anchor="start" x="1116.5" y="-756.4" font-family="Arial" font-size="24.00" fill="#cccccc">graph</text>
</g>
<g id="clust6" class="cluster">
<title>cluster_group_publishing</title>
<polygon fill="none" stroke="#cccccc" stroke-dasharray="5,2" points="461,-754.8 461,-1050.6 893,-1050.6 893,-754.8 461,-754.8"/>
<text text-anchor="start" x="622.5" y="-768.4" font-family="Arial" font-size="24.00" fill="#cccccc">publishing</text>
</g>
<g id="clust7" class="cluster">
<title>cluster_group_release</title>
<polygon fill="none" stroke="#cccccc" stroke-dasharray="5,2" points="58,-754.8 58,-1050.6 436,-1050.6 436,-754.8 58,-754.8"/>
<text text-anchor="start" x="207" y="-768.4" font-family="Arial" font-size="24.00" fill="#cccccc">release</text>
</g>
<g id="clust8" class="cluster">
<title>cluster_group_risk</title>
<polygon fill="none" stroke="#cccccc" stroke-dasharray="5,2" points="703,-264 703,-583.8 1097,-583.8 1097,-264 703,-264"/>
<text text-anchor="start" x="881" y="-277.6" font-family="Arial" font-size="24.00" fill="#cccccc">risk</text>
</g>
<!-- 46 -->
<g id="46" class="node">
<title>46</title>
<polygon fill="#85bbf0" stroke="#5d82a8" points="1858,-1025.6 1478,-1025.6 1478,-842.6 1858,-842.6 1858,-1025.6"/>
<text text-anchor="start" x="1572" y="-977.4" font-family="Arial" font-size="34.00" fill="#000000">pytest plugin</text>
<text text-anchor="start" x="1548" y="-955.4" font-family="Arial" font-size="19.00" fill="#000000">[Component: Python, pytest]</text>
<text text-anchor="start" x="1533.5" y="-918.4" font-family="Arial" font-size="24.00" fill="#000000">Labels each run from the</text>
<text text-anchor="start" x="1507" y="-894.4" font-family="Arial" font-size="24.00" fill="#000000">record; the run&#39;s executor and</text>
<text text-anchor="start" x="1601" y="-870.4" font-family="Arial" font-size="24.00" fill="#000000">environment</text>
</g>
<!-- 26 -->
<g id="26" class="node">
<title>26</title>
<polygon fill="#85bbf0" stroke="#5d82a8" points="1072,-558.8 728,-558.8 728,-351.8 1072,-351.8 1072,-558.8"/>
<text text-anchor="start" x="805" y="-510.6" font-family="Arial" font-size="34.00" fill="#000000">Risk register</text>
<text text-anchor="start" x="811" y="-488.6" font-family="Arial" font-size="19.00" fill="#000000">[Component: Python]</text>
<text text-anchor="start" x="757" y="-451.6" font-family="Arial" font-size="24.00" fill="#000000">The risk register evaluated</text>
<text text-anchor="start" x="768.5" y="-427.6" font-family="Arial" font-size="24.00" fill="#000000">against the declared risk</text>
<text text-anchor="start" x="777.5" y="-403.6" font-family="Arial" font-size="24.00" fill="#000000">policy; the risk rules as</text>
<text text-anchor="start" x="858" y="-379.6" font-family="Arial" font-size="24.00" fill="#000000">findings</text>
</g>
<!-- 46&#45;&gt;26 -->
<g id="100" class="edge">
<title>46&#45;&gt;26</title>
<path fill="none" stroke="#444444" stroke-dasharray="5,2" d="M1598.34,-842.37C1532.94,-763.95 1427.87,-654.14 1311,-594.8 1238.96,-558.22 1155.1,-527.97 1081.98,-505.17"/>
<polygon fill="#444444" stroke="#444444" points="1082.79,-501.76 1072.2,-502.15 1080.72,-508.45 1082.79,-501.76"/>
<text text-anchor="start" x="1422" y="-627.6" font-family="Arial" font-size="24.00" fill="#444444">finds the risks each</text>
<text text-anchor="start" x="1390" y="-601.6" font-family="Arial" font-size="24.00" fill="#444444">design input controls with</text>
</g>
<!-- 39 -->
<g id="39" class="node">
<title>39</title>
<polygon fill="#85bbf0" stroke="#5d82a8" points="1353,-1037.6 943,-1037.6 943,-830.6 1353,-830.6 1353,-1037.6"/>
<text text-anchor="start" x="1072.5" y="-989.4" font-family="Arial" font-size="34.00" fill="#000000">Projection</text>
<text text-anchor="start" x="1007" y="-967.4" font-family="Arial" font-size="19.00" fill="#000000">[Component: Python, pyoxigraph]</text>
<text text-anchor="start" x="972" y="-930.4" font-family="Arial" font-size="24.00" fill="#000000">The record into RDF, one named</text>
<text text-anchor="start" x="998.5" y="-906.4" font-family="Arial" font-size="24.00" fill="#000000">graph per source; the store;</text>
<text text-anchor="start" x="990.5" y="-882.4" font-family="Arial" font-size="24.00" fill="#000000">rdm graph build, query, serve</text>
<text text-anchor="start" x="1060.5" y="-858.4" font-family="Arial" font-size="24.00" fill="#000000">and explorer&#45;file</text>
</g>
<!-- 39&#45;&gt;26 -->
<g id="80" class="edge">
<title>39&#45;&gt;26</title>
<path fill="none" stroke="#444444" stroke-dasharray="5,2" d="M1117.14,-830.39C1094.11,-761.22 1059.07,-669.37 1015,-594.8 1009.58,-585.63 1003.57,-576.45 997.22,-567.43"/>
<polygon fill="#444444" stroke="#444444" points="999.97,-565.26 991.29,-559.18 994.29,-569.35 999.97,-565.26"/>
<text text-anchor="start" x="1038" y="-627.6" font-family="Arial" font-size="24.00" fill="#444444">reads risks and findings</text>
<text text-anchor="start" x="1144" y="-601.6" font-family="Arial" font-size="24.00" fill="#444444">with</text>
</g>
<!-- 37 -->
<g id="37" class="node">
<title>37</title>
<polygon fill="#85bbf0" stroke="#5d82a8" points="868.5,-1025.6 485.5,-1025.6 485.5,-842.6 868.5,-842.6 868.5,-1025.6"/>
<text text-anchor="start" x="544.5" y="-977.4" font-family="Arial" font-size="34.00" fill="#000000">Verification report</text>
<text text-anchor="start" x="588" y="-955.4" font-family="Arial" font-size="19.00" fill="#000000">[Component: Python]</text>
<text text-anchor="start" x="514.5" y="-918.4" font-family="Arial" font-size="24.00" fill="#000000">rdm story evidence&#45;report: the</text>
<text text-anchor="start" x="516" y="-894.4" font-family="Arial" font-size="24.00" fill="#000000">PDF of every run behind each</text>
<text text-anchor="start" x="611.5" y="-870.4" font-family="Arial" font-size="24.00" fill="#000000">design input</text>
</g>
<!-- 37&#45;&gt;26 -->
<g id="98" class="edge">
<title>37&#45;&gt;26</title>
<path fill="none" stroke="#444444" stroke-dasharray="5,2" d="M685.24,-842.27C694.84,-771.12 715.39,-671.67 759,-594.8 764.38,-585.32 770.6,-576.06 777.36,-567.1"/>
<polygon fill="#444444" stroke="#444444" points="780.31,-569.01 783.71,-558.97 774.8,-564.7 780.31,-569.01"/>
<text text-anchor="start" x="768" y="-627.6" font-family="Arial" font-size="24.00" fill="#444444">reads risk status and</text>
<text text-anchor="start" x="759" y="-601.6" font-family="Arial" font-size="24.00" fill="#444444">residual decisions with</text>
</g>
<!-- 21 -->
<g id="21" class="node">
<title>21</title>
<polygon fill="#85bbf0" stroke="#5d82a8" points="411.5,-1025.6 82.5,-1025.6 82.5,-842.6 411.5,-842.6 411.5,-1025.6"/>
<text text-anchor="start" x="146.5" y="-977.4" font-family="Arial" font-size="34.00" fill="#000000">Release gate</text>
<text text-anchor="start" x="158" y="-955.4" font-family="Arial" font-size="19.00" fill="#000000">[Component: Python]</text>
<text text-anchor="start" x="111.5" y="-918.4" font-family="Arial" font-size="24.00" fill="#000000">The release decision; the</text>
<text text-anchor="start" x="137" y="-894.4" font-family="Arial" font-size="24.00" fill="#000000">design gate&#39;s results</text>
<text text-anchor="start" x="117" y="-870.4" font-family="Arial" font-size="24.00" fill="#000000">warnings; the trace slice</text>
</g>
<!-- 21&#45;&gt;26 -->
<g id="171" class="edge">
<title>21&#45;&gt;26</title>
<path fill="none" stroke="#444444" stroke-dasharray="5,2" d="M284.12,-842.55C319.83,-766.16 380.8,-659.25 465,-594.8 538.18,-538.79 634.61,-505.09 718.09,-484.98"/>
<polygon fill="#444444" stroke="#444444" points="719.01,-488.36 727.94,-482.66 717.41,-481.55 719.01,-488.36"/>
<text text-anchor="start" x="465" y="-627.6" font-family="Arial" font-size="24.00" fill="#444444">reports the risk findings</text>
<text text-anchor="start" x="580" y="-601.6" font-family="Arial" font-size="24.00" fill="#444444">of</text>
</g>
</g>
</svg>
