<?xml version="1.0" encoding="UTF-8" standalone="no"?>
<!-- rdm c4 draw: view C3_specification, workspace sha256:33d136de852a854cfdafd5e4ad5901960eaa0e2c555741f4cc700d8e965b8fe0 -->
<!DOCTYPE svg PUBLIC "-//W3C//DTD SVG 1.1//EN"
 "http://www.w3.org/Graphics/SVG/1.1/DTD/svg11.dtd">
<!-- Generated by graphviz version 2.43.0 (0)
 -->
<!-- Title: %3 Pages: 1 -->
<svg width="5350pt" height="2653pt"
 viewBox="0.00 0.00 5350.00 2653.20" xmlns="http://www.w3.org/2000/svg" xmlns:xlink="http://www.w3.org/1999/xlink">
<g id="graph0" class="graph" transform="scale(1 1) rotate(0) translate(4 2649.2)">
<title>%3</title>
<polygon fill="white" stroke="transparent" points="-4,4 -4,-2649.2 5346,-2649.2 5346,4 -4,4"/>
<text text-anchor="start" x="2379" y="-11.8" font-family="Arial" font-size="34.00">Design specification: components (C3)</text>
<g id="clust1" class="cluster">
<title>cluster_4</title>
<polygon fill="none" stroke="#444444" points="8,-64 8,-2637.2 5334,-2637.2 5334,-64 8,-64"/>
<text text-anchor="start" x="2643.5" y="-92.8" font-family="Arial" font-size="24.00" fill="#444444">RDM</text>
<text text-anchor="start" x="2594" y="-72.8" font-family="Arial" font-size="19.00" fill="#444444">[Software System]</text>
</g>
<g id="clust2" class="cluster">
<title>cluster_46</title>
<polygon fill="none" stroke="#cccccc" points="4817,-750.8 4817,-1195.6 5309,-1195.6 5309,-750.8 4817,-750.8"/>
<text text-anchor="start" x="4956" y="-779.6" font-family="Arial" font-size="24.00" fill="#cccccc">Acceptance test run</text>
<text text-anchor="start" x="4929" y="-759.6" font-family="Arial" font-size="19.00" fill="#cccccc">[Container: pytest, allure&#45;pytest]</text>
</g>
<g id="clust3" class="cluster">
<title>cluster_group_test_evidence</title>
<polygon fill="none" stroke="#cccccc" stroke-dasharray="5,2" points="4842,-850.8 4842,-1170.6 5284,-1170.6 5284,-850.8 4842,-850.8"/>
<text text-anchor="start" x="4988" y="-864.4" font-family="Arial" font-size="24.00" fill="#cccccc">test_evidence</text>
</g>
<g id="clust4" class="cluster">
<title>cluster_48</title>
<polygon fill="none" stroke="#cccccc" points="4817,-1277.6 4817,-1794.4 5297,-1794.4 5297,-1277.6 4817,-1277.6"/>
<text text-anchor="start" x="4972.5" y="-1306.4" font-family="Arial" font-size="24.00" fill="#cccccc">Reusable gates</text>
<text text-anchor="start" x="4942" y="-1286.4" font-family="Arial" font-size="19.00" fill="#cccccc">[Container: GitHub Actions]</text>
</g>
<g id="clust5" class="cluster">
<title>cluster_group_release</title>
<polygon fill="none" stroke="#cccccc" stroke-dasharray="5,2" points="4842,-1377.6 4842,-1769.4 5272,-1769.4 5272,-1377.6 4842,-1377.6"/>
<text text-anchor="start" x="5017" y="-1391.2" font-family="Arial" font-size="24.00" fill="#cccccc">release</text>
</g>
<g id="clust6" class="cluster">
<title>cluster_5</title>
<polygon fill="none" stroke="#444444" points="33,-164 33,-2612.2 4792,-2612.2 4792,-164 33,-164"/>
<text text-anchor="start" x="2391" y="-192.8" font-family="Arial" font-size="24.00" fill="#444444">rdm</text>
<text text-anchor="start" x="2331" y="-172.8" font-family="Arial" font-size="19.00" fill="#444444">[Container: Python]</text>
</g>
<g id="clust12" class="cluster">
<title>cluster_group_test_evidence</title>
<polygon fill="none" stroke="#cccccc" stroke-dasharray="5,2" points="2353,-814.8 2353,-1206.6 2773,-1206.6 2773,-814.8 2353,-814.8"/>
<text text-anchor="start" x="2488" y="-828.4" font-family="Arial" font-size="24.00" fill="#cccccc">test_evidence</text>
</g>
<g id="clust10" class="cluster">
<title>cluster_group_release</title>
<polygon fill="none" stroke="#cccccc" stroke-dasharray="5,2" points="3285,-1353.6 3285,-1793.4 4169,-1793.4 4169,-1353.6 3285,-1353.6"/>
<text text-anchor="start" x="3687" y="-1367.2" font-family="Arial" font-size="24.00" fill="#cccccc">release</text>
</g>
<g id="clust7" class="cluster">
<title>cluster_group_architecture</title>
<polygon fill="none" stroke="#cccccc" stroke-dasharray="5,2" points="3911,-264 3911,-679.8 4353,-679.8 4353,-264 3911,-264"/>
<text text-anchor="start" x="4068.5" y="-277.6" font-family="Arial" font-size="24.00" fill="#cccccc">architecture</text>
</g>
<g id="clust8" class="cluster">
<title>cluster_group_graph</title>
<polygon fill="none" stroke="#cccccc" stroke-dasharray="5,2" points="3992,-1864.4 3992,-2256.2 4452,-2256.2 4452,-1864.4 3992,-1864.4"/>
<text text-anchor="start" x="4190.5" y="-1878" font-family="Arial" font-size="24.00" fill="#cccccc">graph</text>
</g>
<g id="clust9" class="cluster">
<title>cluster_group_publishing</title>
<polygon fill="none" stroke="#cccccc" stroke-dasharray="5,2" points="2359,-1425.6 2359,-1721.4 3249,-1721.4 3249,-1425.6 2359,-1425.6"/>
<text text-anchor="start" x="2749.5" y="-1439.2" font-family="Arial" font-size="24.00" fill="#cccccc">publishing</text>
</g>
<g id="clust11" class="cluster">
<title>cluster_group_specification</title>
<polygon fill="none" stroke="#cccccc" stroke-dasharray="5,2" points="58,-312 58,-2587.2 2328,-2587.2 2328,-312 58,-312"/>
<text text-anchor="start" x="1126.5" y="-325.6" font-family="Arial" font-size="24.00" fill="#cccccc">specification</text>
</g>
<!-- 47 -->
<g id="47" class="node">
<title>47</title>
<polygon fill="#85bbf0" stroke="#5d82a8" points="5259,-1145.6 4867,-1145.6 4867,-938.6 5259,-938.6 5259,-1145.6"/>
<text text-anchor="start" x="4967" y="-1097.4" font-family="Arial" font-size="34.00" fill="#000000">pytest plugin</text>
<text text-anchor="start" x="4943" y="-1075.4" font-family="Arial" font-size="19.00" fill="#000000">[Component: Python, pytest]</text>
<text text-anchor="start" x="4928.5" y="-1038.4" font-family="Arial" font-size="24.00" fill="#000000">Labels each run from the</text>
<text text-anchor="start" x="4902" y="-1014.4" font-family="Arial" font-size="24.00" fill="#000000">record; the run&#39;s executor and</text>
<text text-anchor="start" x="4896" y="-990.4" font-family="Arial" font-size="24.00" fill="#000000">environment, written only when</text>
<text text-anchor="start" x="4917.5" y="-966.4" font-family="Arial" font-size="24.00" fill="#000000">the run writes Allure results</text>
</g>
<!-- 7 -->
<g id="7" class="node">
<title>7</title>
<polygon fill="#85bbf0" stroke="#5d82a8" points="1820.5,-606.8 1417.5,-606.8 1417.5,-399.8 1820.5,-399.8 1820.5,-606.8"/>
<text text-anchor="start" x="1510.5" y="-558.6" font-family="Arial" font-size="34.00" fill="#000000">Record reader</text>
<text text-anchor="start" x="1530" y="-536.6" font-family="Arial" font-size="19.00" fill="#000000">[Component: Python]</text>
<text text-anchor="start" x="1475.5" y="-499.6" font-family="Arial" font-size="24.00" fill="#000000">User needs, design inputs,</text>
<text text-anchor="start" x="1481.5" y="-475.6" font-family="Arial" font-size="24.00" fill="#000000">realises and declarations,</text>
<text text-anchor="start" x="1446.5" y="-451.6" font-family="Arial" font-size="24.00" fill="#000000">from the design documents&#39; and</text>
<text text-anchor="start" x="1498.5" y="-427.6" font-family="Arial" font-size="24.00" fill="#000000">V&amp;V plan&#39;s frontmatter</text>
</g>
<!-- 47&#45;&gt;7 -->
<g id="159" class="edge">
<title>47&#45;&gt;7</title>
<path fill="none" stroke="#444444" stroke-dasharray="5,2" d="M4938.03,-938.4C4868.94,-881.27 4781.79,-808.61 4705,-742.8 4678.46,-720.05 4678.67,-703.22 4646,-690.8 4573.58,-663.28 1930.55,-704.15 1857,-679.8 1813.84,-665.51 1772.06,-640.11 1735.87,-612.99"/>
<polygon fill="#444444" stroke="#444444" points="1737.84,-610.09 1727.76,-606.82 1733.6,-615.66 1737.84,-610.09"/>
<text text-anchor="start" x="4705" y="-710.6" font-family="Arial" font-size="24.00" fill="#444444">reads the record with</text>
</g>
<!-- 8 -->
<g id="8" class="node">
<title>8</title>
<polygon fill="#85bbf0" stroke="#5d82a8" points="2303,-594.8 1893,-594.8 1893,-411.8 2303,-411.8 2303,-594.8"/>
<text text-anchor="start" x="2029" y="-546.6" font-family="Arial" font-size="34.00" fill="#000000">Test tags</text>
<text text-anchor="start" x="2009" y="-524.6" font-family="Arial" font-size="19.00" fill="#000000">[Component: Python]</text>
<text text-anchor="start" x="1945.5" y="-487.6" font-family="Arial" font-size="24.00" fill="#000000">The design&#45;input tags in test</text>
<text text-anchor="start" x="1922" y="-463.6" font-family="Arial" font-size="24.00" fill="#000000">sources, in every language RDM</text>
<text text-anchor="start" x="2067.5" y="-439.6" font-family="Arial" font-size="24.00" fill="#000000">reads</text>
</g>
<!-- 47&#45;&gt;8 -->
<g id="157" class="edge">
<title>47&#45;&gt;8</title>
<path fill="none" stroke="#444444" stroke-dasharray="5,2" d="M5060.47,-938.25C5052.38,-856.65 5026.68,-747.25 4950,-690.8 4938.18,-682.1 3907.66,-680.59 3893,-679.8 3321.09,-648.92 2650.04,-572.57 2313.51,-531.49"/>
<polygon fill="#444444" stroke="#444444" points="2313.51,-527.97 2303.16,-530.23 2312.66,-534.92 2313.51,-527.97"/>
<text text-anchor="start" x="4996" y="-723.6" font-family="Arial" font-size="24.00" fill="#444444">takes the label that names</text>
<text text-anchor="start" x="5034" y="-697.6" font-family="Arial" font-size="24.00" fill="#444444">a design input from</text>
</g>
<!-- 50 -->
<g id="50" class="node">
<title>50</title>
<polygon fill="#85bbf0" stroke="#5d82a8" points="5247,-1744.4 4867,-1744.4 4867,-1465.4 5247,-1465.4 5247,-1744.4"/>
<text text-anchor="start" x="4961" y="-1696.2" font-family="Arial" font-size="34.00" fill="#000000">Gates action</text>
<text text-anchor="start" x="4934" y="-1674.2" font-family="Arial" font-size="19.00" fill="#000000">[Component: GitHub Actions]</text>
<text text-anchor="start" x="4912" y="-1637.2" font-family="Arial" font-size="24.00" fill="#000000">The gates as steps: design</text>
<text text-anchor="start" x="4938" y="-1613.2" font-family="Arial" font-size="24.00" fill="#000000">gate, verification data,</text>
<text text-anchor="start" x="4952" y="-1589.2" font-family="Arial" font-size="24.00" fill="#000000">release gate, graph</text>
<text text-anchor="start" x="4911" y="-1565.2" font-family="Arial" font-size="24.00" fill="#000000">validation, evidence bundle</text>
<text text-anchor="start" x="4902.5" y="-1541.2" font-family="Arial" font-size="24.00" fill="#000000">(uploaded); each switchable;</text>
<text text-anchor="start" x="4896" y="-1517.2" font-family="Arial" font-size="24.00" fill="#000000">inputs passed as environment</text>
<text text-anchor="start" x="5008.5" y="-1493.2" font-family="Arial" font-size="24.00" fill="#000000">variables</text>
</g>
<!-- 9 -->
<g id="9" class="node">
<title>9</title>
<polygon fill="#85bbf0" stroke="#5d82a8" points="1897,-1133.6 1501,-1133.6 1501,-950.6 1897,-950.6 1897,-1133.6"/>
<text text-anchor="start" x="1608" y="-1085.4" font-family="Arial" font-size="34.00" fill="#000000">Design gate</text>
<text text-anchor="start" x="1610" y="-1063.4" font-family="Arial" font-size="19.00" fill="#000000">[Component: Python]</text>
<text text-anchor="start" x="1530" y="-1026.4" font-family="Arial" font-size="24.00" fill="#000000">The record complete, approved</text>
<text text-anchor="start" x="1575.5" y="-1002.4" font-family="Arial" font-size="24.00" fill="#000000">and declared once; the</text>
<text text-anchor="start" x="1571.5" y="-978.4" font-family="Arial" font-size="24.00" fill="#000000">architecture views fresh</text>
</g>
<!-- 50&#45;&gt;9 -->
<g id="184" class="edge">
<title>50&#45;&gt;9</title>
<path fill="none" stroke="#444444" stroke-dasharray="5,2" d="M5000.15,-1465.25C4955.79,-1376.92 4884.82,-1269.65 4785,-1217.6 4750.1,-1199.4 1988.72,-1217.84 1951,-1206.6 1903.87,-1192.55 1857.28,-1166.67 1817.21,-1139.58"/>
<polygon fill="#444444" stroke="#444444" points="1818.99,-1136.55 1808.76,-1133.78 1815.03,-1142.33 1818.99,-1136.55"/>
<text text-anchor="start" x="4857" y="-1237.4" font-family="Arial" font-size="24.00" fill="#444444">runs the design gate of</text>
</g>
<!-- 28 -->
<g id="28" class="node">
<title>28</title>
<polygon fill="#85bbf0" stroke="#5d82a8" points="4328,-654.8 3936,-654.8 3936,-351.8 4328,-351.8 4328,-654.8"/>
<text text-anchor="start" x="3990" y="-606.6" font-family="Arial" font-size="34.00" fill="#000000">Architecture model</text>
<text text-anchor="start" x="4043" y="-584.6" font-family="Arial" font-size="19.00" fill="#000000">[Component: Python]</text>
<text text-anchor="start" x="3976.5" y="-547.6" font-family="Arial" font-size="24.00" fill="#000000">The C4 model, read from the</text>
<text text-anchor="start" x="3974.5" y="-523.6" font-family="Arial" font-size="24.00" fill="#000000">workspace&#39;s export (declared</text>
<text text-anchor="start" x="4003.5" y="-499.6" font-family="Arial" font-size="24.00" fill="#000000">relationships only); view</text>
<text text-anchor="start" x="3965" y="-475.6" font-family="Arial" font-size="24.00" fill="#000000">freshness from the stamps; the</text>
<text text-anchor="start" x="4001" y="-451.6" font-family="Arial" font-size="24.00" fill="#000000">component owning a file</text>
<text text-anchor="start" x="3974.5" y="-427.6" font-family="Arial" font-size="24.00" fill="#000000">(longest code match) and the</text>
<text text-anchor="start" x="3970" y="-403.6" font-family="Arial" font-size="24.00" fill="#000000">import dependencies between</text>
<text text-anchor="start" x="4065.5" y="-379.6" font-family="Arial" font-size="24.00" fill="#000000">components</text>
</g>
<!-- 40 -->
<g id="40" class="node">
<title>40</title>
<polygon fill="#85bbf0" stroke="#5d82a8" points="4427,-2231.2 4017,-2231.2 4017,-1952.2 4427,-1952.2 4427,-2231.2"/>
<text text-anchor="start" x="4146.5" y="-2183" font-family="Arial" font-size="34.00" fill="#000000">Projection</text>
<text text-anchor="start" x="4081" y="-2161" font-family="Arial" font-size="19.00" fill="#000000">[Component: Python, pyoxigraph]</text>
<text text-anchor="start" x="4046" y="-2124" font-family="Arial" font-size="24.00" fill="#000000">The record into RDF, one named</text>
<text text-anchor="start" x="4126.5" y="-2100" font-family="Arial" font-size="24.00" fill="#000000">graph per source,</text>
<text text-anchor="start" x="4085" y="-2076" font-family="Arial" font-size="24.00" fill="#000000">de&#45;duplicated and sorted;</text>
<text text-anchor="start" x="4079" y="-2052" font-family="Arial" font-size="24.00" fill="#000000">replaces the store on each</text>
<text text-anchor="start" x="4065.5" y="-2028" font-family="Arial" font-size="24.00" fill="#000000">build; rdm graph build, query,</text>
<text text-anchor="start" x="4106" y="-2004" font-family="Arial" font-size="24.00" fill="#000000">serve (read&#45;only) and</text>
<text text-anchor="start" x="4158.5" y="-1980" font-family="Arial" font-size="24.00" fill="#000000">explorer&#45;file</text>
</g>
<!-- 21 -->
<g id="21" class="node">
<title>21</title>
<polygon fill="#85bbf0" stroke="#5d82a8" points="3696,-1768.4 3310,-1768.4 3310,-1441.4 3696,-1441.4 3696,-1768.4"/>
<text text-anchor="start" x="3402.5" y="-1720.2" font-family="Arial" font-size="34.00" fill="#000000">Release gate</text>
<text text-anchor="start" x="3414" y="-1698.2" font-family="Arial" font-size="19.00" fill="#000000">[Component: Python]</text>
<text text-anchor="start" x="3397.5" y="-1661.2" font-family="Arial" font-size="24.00" fill="#000000">Blocks a release on</text>
<text text-anchor="start" x="3361.5" y="-1637.2" font-family="Arial" font-size="24.00" fill="#000000">design&#45;gate failures, failed</text>
<text text-anchor="start" x="3364" y="-1613.2" font-family="Arial" font-size="24.00" fill="#000000">or untested design inputs,</text>
<text text-anchor="start" x="3360" y="-1589.2" font-family="Arial" font-size="24.00" fill="#000000">blocking risk findings or an</text>
<text text-anchor="start" x="3339" y="-1565.2" font-family="Arial" font-size="24.00" fill="#000000">unrefined user need; warns on</text>
<text text-anchor="start" x="3354" y="-1541.2" font-family="Arial" font-size="24.00" fill="#000000">unvalidated user needs and</text>
<text text-anchor="start" x="3340.5" y="-1517.2" font-family="Arial" font-size="24.00" fill="#000000">orphan tags; the design gate&#39;s</text>
<text text-anchor="start" x="3361.5" y="-1493.2" font-family="Arial" font-size="24.00" fill="#000000">results warnings; the trace</text>
<text text-anchor="start" x="3478.5" y="-1469.2" font-family="Arial" font-size="24.00" fill="#000000">slice</text>
</g>
<!-- 40&#45;&gt;21 -->
<g id="82" class="edge">
<title>40&#45;&gt;21</title>
<path fill="none" stroke="#444444" stroke-dasharray="5,2" d="M4016.85,-1975.16C3927.77,-1922.77 3823.36,-1858.32 3733,-1794.4 3723.53,-1787.7 3713.96,-1780.73 3704.36,-1773.58"/>
<polygon fill="#444444" stroke="#444444" points="3706.4,-1770.74 3696.3,-1767.54 3702.2,-1776.34 3706.4,-1770.74"/>
<text text-anchor="start" x="3823" y="-1837.2" font-family="Arial" font-size="24.00" fill="#444444">reads the findings about</text>
<text text-anchor="start" x="3838" y="-1811.2" font-family="Arial" font-size="24.00" fill="#444444">the whole record with</text>
</g>
<!-- 40&#45;&gt;7 -->
<g id="154" class="edge">
<title>40&#45;&gt;7</title>
<path fill="none" stroke="#444444" stroke-dasharray="5,2" d="M4214,-1952.16C4202.03,-1719.02 4185.82,-1268.58 4236,-1217.6 4262.82,-1190.34 4553.39,-1234.07 4580,-1206.6 4720.94,-1061.08 4718.66,-898.49 4580,-750.8 4507.61,-673.69 3735.7,-694.46 3630,-690.8 3580.78,-689.09 1903.74,-695.33 1857,-679.8 1813.97,-665.5 1772.3,-640.18 1736.18,-613.14"/>
<polygon fill="#444444" stroke="#444444" points="1738.16,-610.25 1728.08,-606.98 1733.92,-615.82 1738.16,-610.25"/>
<text text-anchor="start" x="4236" y="-1237.4" font-family="Arial" font-size="24.00" fill="#444444">reads the record with</text>
</g>
<!-- 40&#45;&gt;8 -->
<g id="178" class="edge">
<title>40&#45;&gt;8</title>
<path fill="none" stroke="#444444" stroke-dasharray="5,2" d="M4250.76,-1952.1C4299.98,-1729.44 4406.71,-1307.83 4526,-1217.6 4558.85,-1192.76 4682.76,-1236.57 4711,-1206.6 4849.93,-1059.17 4845.74,-902.07 4711,-750.8 4700.73,-739.27 4653.31,-753.3 4642,-742.8 4624.75,-726.79 4650.03,-705.92 4632,-690.8 4616.27,-677.61 3913.5,-680.95 3893,-679.8 3321.16,-647.64 2650.08,-571.84 2313.53,-531.18"/>
<polygon fill="#444444" stroke="#444444" points="2313.53,-527.65 2303.18,-529.93 2312.69,-534.6 2313.53,-527.65"/>
<text text-anchor="start" x="4526" y="-1250.4" font-family="Arial" font-size="24.00" fill="#444444">reads the tagged tests</text>
<text text-anchor="start" x="4625" y="-1224.4" font-family="Arial" font-size="24.00" fill="#444444">with</text>
</g>
<!-- 35 -->
<g id="35" class="node">
<title>35</title>
<polygon fill="#85bbf0" stroke="#5d82a8" points="2769.5,-1672.4 2384.5,-1672.4 2384.5,-1537.4 2769.5,-1537.4 2769.5,-1672.4"/>
<text text-anchor="start" x="2451.5" y="-1624.2" font-family="Arial" font-size="34.00" fill="#000000">Evidence bundle</text>
<text text-anchor="start" x="2488" y="-1602.2" font-family="Arial" font-size="19.00" fill="#000000">[Component: Python]</text>
<text text-anchor="start" x="2413.5" y="-1565.2" font-family="Arial" font-size="24.00" fill="#000000">The retained release evidence</text>
</g>
<!-- 35&#45;&gt;7 -->
<g id="147" class="edge">
<title>35&#45;&gt;7</title>
<path fill="none" stroke="#444444" stroke-dasharray="5,2" d="M2551.75,-1537.23C2518.1,-1459.01 2450.39,-1332.97 2346,-1277.6 2326.85,-1267.45 1971.17,-1285.08 1956,-1269.6 1940.63,-1253.91 1947.64,-851.98 2070,-750.8 2083.55,-739.6 2215.89,-755.54 2228,-742.8 2243.92,-726.05 2244.1,-707.38 2228,-690.8 2213.64,-676 1876.49,-686.53 1857,-679.8 1814.37,-665.08 1772.97,-639.79 1736.97,-612.92"/>
<polygon fill="#444444" stroke="#444444" points="1738.98,-610.06 1728.9,-606.8 1734.75,-615.63 1738.98,-610.06"/>
<text text-anchor="start" x="2070" y="-1048.9" font-family="Arial" font-size="24.00" fill="#444444">finds the matrix template</text>
<text text-anchor="start" x="2181" y="-1022.9" font-family="Arial" font-size="24.00" fill="#444444">with</text>
</g>
<!-- 22 -->
<g id="22" class="node">
<title>22</title>
<polygon fill="#85bbf0" stroke="#5d82a8" points="2748,-1181.6 2378,-1181.6 2378,-902.6 2748,-902.6 2748,-1181.6"/>
<text text-anchor="start" x="2466" y="-1133.4" font-family="Arial" font-size="34.00" fill="#000000">Allure reader</text>
<text text-anchor="start" x="2474" y="-1111.4" font-family="Arial" font-size="19.00" fill="#000000">[Component: Python]</text>
<text text-anchor="start" x="2420" y="-1074.4" font-family="Arial" font-size="24.00" fill="#000000">Allure results into test runs</text>
<text text-anchor="start" x="2407" y="-1050.4" font-family="Arial" font-size="24.00" fill="#000000">and a status per design input</text>
<text text-anchor="start" x="2429.5" y="-1026.4" font-family="Arial" font-size="24.00" fill="#000000">(failed, else verified, else</text>
<text text-anchor="start" x="2410.5" y="-1002.4" font-family="Arial" font-size="24.00" fill="#000000">untested; undeclared stories</text>
<text text-anchor="start" x="2442.5" y="-978.4" font-family="Arial" font-size="24.00" fill="#000000">as orphans); a result it</text>
<text text-anchor="start" x="2410.5" y="-954.4" font-family="Arial" font-size="24.00" fill="#000000">cannot read is never a pass;</text>
<text text-anchor="start" x="2457.5" y="-930.4" font-family="Arial" font-size="24.00" fill="#000000">run labels and facts</text>
</g>
<!-- 35&#45;&gt;22 -->
<g id="146" class="edge">
<title>35&#45;&gt;22</title>
<path fill="none" stroke="#444444" stroke-dasharray="5,2" d="M2588.38,-1537.09C2599.88,-1459.95 2614.33,-1329.32 2602,-1217.6 2601.06,-1209.08 2599.87,-1200.37 2598.49,-1191.61"/>
<polygon fill="#444444" stroke="#444444" points="2601.94,-1191 2596.86,-1181.7 2595.03,-1192.14 2601.94,-1191"/>
<text text-anchor="start" x="2605" y="-1250.4" font-family="Arial" font-size="24.00" fill="#444444">keeps the run files named</text>
<text text-anchor="start" x="2731" y="-1224.4" font-family="Arial" font-size="24.00" fill="#444444">by</text>
</g>
<!-- 38 -->
<g id="38" class="node">
<title>38</title>
<polygon fill="#85bbf0" stroke="#5d82a8" points="3224.5,-1696.4 2841.5,-1696.4 2841.5,-1513.4 3224.5,-1513.4 3224.5,-1696.4"/>
<text text-anchor="start" x="2900.5" y="-1648.2" font-family="Arial" font-size="34.00" fill="#000000">Verification report</text>
<text text-anchor="start" x="2944" y="-1626.2" font-family="Arial" font-size="19.00" fill="#000000">[Component: Python]</text>
<text text-anchor="start" x="2870.5" y="-1589.2" font-family="Arial" font-size="24.00" fill="#000000">rdm story evidence&#45;report: the</text>
<text text-anchor="start" x="2872" y="-1565.2" font-family="Arial" font-size="24.00" fill="#000000">PDF of every run behind each</text>
<text text-anchor="start" x="2967.5" y="-1541.2" font-family="Arial" font-size="24.00" fill="#000000">design input</text>
</g>
<!-- 38&#45;&gt;7 -->
<g id="174" class="edge">
<title>38&#45;&gt;7</title>
<path fill="none" stroke="#444444" stroke-dasharray="5,2" d="M3013.24,-1513.13C2966.85,-1303.78 2850.36,-801.08 2791,-750.8 2699.2,-673.05 2373.01,-699.14 2253,-690.8 2209.09,-687.75 1898.62,-694.13 1857,-679.8 1814.35,-665.12 1772.95,-639.84 1736.95,-612.98"/>
<polygon fill="#444444" stroke="#444444" points="1738.96,-610.11 1728.88,-606.86 1734.74,-615.69 1738.96,-610.11"/>
<text text-anchor="start" x="2940" y="-1035.9" font-family="Arial" font-size="24.00" fill="#444444">reads the record with</text>
</g>
<!-- 38&#45;&gt;8 -->
<g id="179" class="edge">
<title>38&#45;&gt;8</title>
<path fill="none" stroke="#444444" stroke-dasharray="5,2" d="M3076.48,-1513.17C3116.28,-1439.43 3181.89,-1338.05 3267,-1277.6 3358.04,-1212.94 3441.12,-1296.02 3508,-1206.6 3629.33,-1044.37 3631.51,-911.37 3508,-750.8 3365.58,-565.64 2671.88,-519.49 2313.43,-508.04"/>
<polygon fill="#444444" stroke="#444444" points="2313.29,-504.54 2303.18,-507.72 2313.07,-511.53 2313.29,-504.54"/>
<text text-anchor="start" x="3599" y="-1048.9" font-family="Arial" font-size="24.00" fill="#444444">reads the tagged tests</text>
<text text-anchor="start" x="3698" y="-1022.9" font-family="Arial" font-size="24.00" fill="#444444">with</text>
</g>
<!-- 20 -->
<g id="20" class="node">
<title>20</title>
<polygon fill="#85bbf0" stroke="#5d82a8" points="4143.5,-1756.4 3768.5,-1756.4 3768.5,-1453.4 4143.5,-1453.4 4143.5,-1756.4"/>
<text text-anchor="start" x="3834.5" y="-1708.2" font-family="Arial" font-size="34.00" fill="#000000">Verification data</text>
<text text-anchor="start" x="3867" y="-1686.2" font-family="Arial" font-size="19.00" fill="#000000">[Component: Python]</text>
<text text-anchor="start" x="3806.5" y="-1649.2" font-family="Arial" font-size="24.00" fill="#000000">Every declared design input</text>
<text text-anchor="start" x="3838" y="-1625.2" font-family="Arial" font-size="24.00" fill="#000000">reconciled against the</text>
<text text-anchor="start" x="3798" y="-1601.2" font-family="Arial" font-size="24.00" fill="#000000">executed results: status, runs</text>
<text text-anchor="start" x="3797.5" y="-1577.2" font-family="Arial" font-size="24.00" fill="#000000">and tests per design input, by</text>
<text text-anchor="start" x="3831" y="-1553.2" font-family="Arial" font-size="24.00" fill="#000000">user need; the data the</text>
<text text-anchor="start" x="3864" y="-1529.2" font-family="Arial" font-size="24.00" fill="#000000">Renderer fills the</text>
<text text-anchor="start" x="3830.5" y="-1505.2" font-family="Arial" font-size="24.00" fill="#000000">traceability matrix from;</text>
<text text-anchor="start" x="3827.5" y="-1481.2" font-family="Arial" font-size="24.00" fill="#000000">generated, never edited</text>
</g>
<!-- 20&#45;&gt;28 -->
<g id="115" class="edge">
<title>20&#45;&gt;28</title>
<path fill="none" stroke="#444444" stroke-dasharray="5,2" d="M3992.66,-1452.93C4021.06,-1369.6 4069.41,-1272.21 4149,-1217.6 4170.17,-1203.07 4246.73,-1225.6 4264,-1206.6 4397.7,-1059.51 4312.34,-821.44 4229.75,-663.89"/>
<polygon fill="#444444" stroke="#444444" points="4232.84,-662.25 4225.07,-655.04 4226.65,-665.52 4232.84,-662.25"/>
<text text-anchor="start" x="4333" y="-1048.9" font-family="Arial" font-size="24.00" fill="#444444">maps covered files to</text>
<text text-anchor="start" x="4356.5" y="-1022.9" font-family="Arial" font-size="24.00" fill="#444444">components with</text>
</g>
<!-- 20&#45;&gt;7 -->
<g id="172" class="edge">
<title>20&#45;&gt;7</title>
<path fill="none" stroke="#444444" stroke-dasharray="5,2" d="M3988.61,-1453.28C4020.3,-1262.02 4040.32,-934.8 3858,-750.8 3781.87,-673.97 3482.93,-697.87 3375,-690.8 3332.92,-688.04 1897.01,-693.12 1857,-679.8 1813.98,-665.48 1772.31,-640.15 1736.19,-613.12"/>
<polygon fill="#444444" stroke="#444444" points="1738.17,-610.22 1728.09,-606.96 1733.93,-615.8 1738.17,-610.22"/>
<text text-anchor="start" x="4009" y="-1035.9" font-family="Arial" font-size="24.00" fill="#444444">reads the record with</text>
</g>
<!-- 17 -->
<g id="17" class="node">
<title>17</title>
<polygon fill="#85bbf0" stroke="#5d82a8" points="955.5,-1121.6 596.5,-1121.6 596.5,-962.6 955.5,-962.6 955.5,-1121.6"/>
<text text-anchor="start" x="641" y="-1073.4" font-family="Arial" font-size="34.00" fill="#000000">Validation records</text>
<text text-anchor="start" x="687" y="-1051.4" font-family="Arial" font-size="19.00" fill="#000000">[Component: Python]</text>
<text text-anchor="start" x="625.5" y="-1014.4" font-family="Arial" font-size="24.00" fill="#000000">Approved validation records</text>
<text text-anchor="start" x="700.5" y="-990.4" font-family="Arial" font-size="24.00" fill="#000000">per user need</text>
</g>
<!-- 21&#45;&gt;17 -->
<g id="183" class="edge">
<title>21&#45;&gt;17</title>
<path fill="none" stroke="#444444" stroke-dasharray="5,2" d="M3427.25,-1441.34C3388.8,-1378.3 3335.53,-1312.89 3267,-1277.6 3251.5,-1269.62 2029.39,-1270.78 2012,-1269.6 1833.58,-1257.45 1791.35,-1230.8 1613,-1217.6 1579.36,-1215.11 1038.04,-1217.15 1006,-1206.6 956.26,-1190.22 907.95,-1159.01 868.56,-1128.22"/>
<polygon fill="#444444" stroke="#444444" points="870.3,-1125.13 860.29,-1121.66 865.95,-1130.61 870.3,-1125.13"/>
<text text-anchor="start" x="2012" y="-1250.4" font-family="Arial" font-size="24.00" fill="#444444">reads validation records</text>
<text text-anchor="start" x="2119.5" y="-1224.4" font-family="Arial" font-size="24.00" fill="#444444">with</text>
</g>
<!-- 21&#45;&gt;7 -->
<g id="163" class="edge">
<title>21&#45;&gt;7</title>
<path fill="none" stroke="#444444" stroke-dasharray="5,2" d="M3385.87,-1441.33C3341.05,-1372 3293.44,-1288.35 3263,-1206.6 3191.28,-1014 3334.22,-892.12 3185,-750.8 3100.7,-670.97 2781.86,-698.27 2666,-690.8 2621.14,-687.91 1899.6,-694.13 1857,-679.8 1814.14,-665.38 1772.59,-640.11 1736.53,-613.15"/>
<polygon fill="#444444" stroke="#444444" points="1738.53,-610.27 1728.45,-607.01 1734.3,-615.85 1738.53,-610.27"/>
<text text-anchor="start" x="3263" y="-1035.9" font-family="Arial" font-size="24.00" fill="#444444">reads the record with</text>
</g>
<!-- 21&#45;&gt;9 -->
<g id="180" class="edge">
<title>21&#45;&gt;9</title>
<path fill="none" stroke="#444444" stroke-dasharray="5,2" d="M3426.95,-1440.99C3388.51,-1378.09 3335.33,-1312.89 3267,-1277.6 3244.29,-1265.87 2370.87,-1278.74 2347,-1269.6 2314.36,-1257.11 2320.49,-1230.48 2288,-1217.6 2218.35,-1189.98 2022.49,-1229.04 1951,-1206.6 1904.43,-1191.99 1858.23,-1166.2 1818.35,-1139.37"/>
<polygon fill="#444444" stroke="#444444" points="1820.17,-1136.38 1809.94,-1133.64 1816.23,-1142.16 1820.17,-1136.38"/>
<text text-anchor="start" x="2347" y="-1250.4" font-family="Arial" font-size="24.00" fill="#444444">runs the design gate&#39;s</text>
<text text-anchor="start" x="2414" y="-1224.4" font-family="Arial" font-size="24.00" fill="#444444">checks of</text>
</g>
<!-- 10 -->
<g id="10" class="node">
<title>10</title>
<polygon fill="#85bbf0" stroke="#5d82a8" points="1428,-2207.2 1028,-2207.2 1028,-1976.2 1428,-1976.2 1428,-2207.2"/>
<text text-anchor="start" x="1116" y="-2159" font-family="Arial" font-size="34.00" fill="#000000">Hooks installer</text>
<text text-anchor="start" x="1139" y="-2137" font-family="Arial" font-size="19.00" fill="#000000">[Component: Python]</text>
<text text-anchor="start" x="1107.5" y="-2100" font-family="Arial" font-size="24.00" fill="#000000">rdm hooks: installs the</text>
<text text-anchor="start" x="1057" y="-2076" font-family="Arial" font-size="24.00" fill="#000000">design&#45;gate hooks (pre&#45;commit,</text>
<text text-anchor="start" x="1087" y="-2052" font-family="Arial" font-size="24.00" fill="#000000">and pre&#45;merge&#45;commit for</text>
<text text-anchor="start" x="1072.5" y="-2028" font-family="Arial" font-size="24.00" fill="#000000">merges); the issue&#45;reference</text>
<text text-anchor="start" x="1109" y="-2004" font-family="Arial" font-size="24.00" fill="#000000">hooks only on request</text>
</g>
<!-- 11 -->
<g id="11" class="node">
<title>11</title>
<polygon fill="#85bbf0" stroke="#5d82a8" points="1417,-1744.4 1039,-1744.4 1039,-1465.4 1417,-1465.4 1417,-1744.4"/>
<text text-anchor="start" x="1099" y="-1696.2" font-family="Arial" font-size="34.00" fill="#000000">Pre&#45;commit hook</text>
<text text-anchor="start" x="1148.5" y="-1674.2" font-family="Arial" font-size="19.00" fill="#000000">[Component: shell]</text>
<text text-anchor="start" x="1143.5" y="-1637.2" font-family="Arial" font-size="24.00" fill="#000000">pre&#45;commit and</text>
<text text-anchor="start" x="1083.5" y="-1613.2" font-family="Arial" font-size="24.00" fill="#000000">pre&#45;merge&#45;commit: run the</text>
<text text-anchor="start" x="1068" y="-1589.2" font-family="Arial" font-size="24.00" fill="#000000">design gate on a commit, or a</text>
<text text-anchor="start" x="1127" y="-1565.2" font-family="Arial" font-size="24.00" fill="#000000">merge, that stages</text>
<text text-anchor="start" x="1086" y="-1541.2" font-family="Arial" font-size="24.00" fill="#000000">implementation files; block</text>
<text text-anchor="start" x="1082.5" y="-1517.2" font-family="Arial" font-size="24.00" fill="#000000">unless it passes, or when it</text>
<text text-anchor="start" x="1170.5" y="-1493.2" font-family="Arial" font-size="24.00" fill="#000000">cannot run</text>
</g>
<!-- 10&#45;&gt;11 -->
<g id="79" class="edge">
<title>10&#45;&gt;11</title>
<path fill="none" stroke="#444444" stroke-dasharray="5,2" d="M1228,-1976.12C1228,-1910.07 1228,-1826.3 1228,-1755.15"/>
<polygon fill="#444444" stroke="#444444" points="1231.5,-1754.75 1228,-1744.75 1224.5,-1754.75 1231.5,-1754.75"/>
<text text-anchor="start" x="1228" y="-1824.2" font-family="Arial" font-size="24.00" fill="#444444">installs</text>
</g>
<!-- 11&#45;&gt;9 -->
<g id="80" class="edge">
<title>11&#45;&gt;9</title>
<path fill="none" stroke="#444444" stroke-dasharray="5,2" d="M1344.43,-1465.28C1428.87,-1364.74 1541.02,-1231.2 1616.39,-1141.47"/>
<polygon fill="#444444" stroke="#444444" points="1619.13,-1143.64 1622.88,-1133.73 1613.77,-1139.14 1619.13,-1143.64"/>
<text text-anchor="start" x="1547" y="-1237.4" font-family="Arial" font-size="24.00" fill="#444444">runs</text>
</g>
<!-- 12 -->
<g id="12" class="node">
<title>12</title>
<polygon fill="#85bbf0" stroke="#5d82a8" points="1422,-1145.6 1042,-1145.6 1042,-938.6 1422,-938.6 1422,-1145.6"/>
<text text-anchor="start" x="1101" y="-1097.4" font-family="Arial" font-size="34.00" fill="#000000">New design input</text>
<text text-anchor="start" x="1143" y="-1075.4" font-family="Arial" font-size="19.00" fill="#000000">[Component: Python]</text>
<text text-anchor="start" x="1071" y="-1038.4" font-family="Arial" font-size="24.00" fill="#000000">rdm story new&#45;input: allocates</text>
<text text-anchor="start" x="1091" y="-1014.4" font-family="Arial" font-size="24.00" fill="#000000">the next id, inserts it into a</text>
<text text-anchor="start" x="1084.5" y="-990.4" font-family="Arial" font-size="24.00" fill="#000000">context&#39;s frontmatter, writes</text>
<text text-anchor="start" x="1141" y="-966.4" font-family="Arial" font-size="24.00" fill="#000000">a failing stub test</text>
</g>
<!-- 12&#45;&gt;7 -->
<g id="151" class="edge">
<title>12&#45;&gt;7</title>
<path fill="none" stroke="#444444" stroke-dasharray="5,2" d="M1119.57,-938.32C1054.19,-865.91 994.79,-768.42 1051,-690.8 1094.26,-631.07 1264.52,-580.18 1407.45,-546.73"/>
<polygon fill="#444444" stroke="#444444" points="1408.31,-550.12 1417.26,-544.45 1406.73,-543.3 1408.31,-550.12"/>
<text text-anchor="start" x="1051" y="-723.6" font-family="Arial" font-size="24.00" fill="#444444">reads the design documents</text>
<text text-anchor="start" x="1182" y="-697.6" font-family="Arial" font-size="24.00" fill="#444444">with</text>
</g>
<!-- 12&#45;&gt;8 -->
<g id="177" class="edge">
<title>12&#45;&gt;8</title>
<path fill="none" stroke="#444444" stroke-dasharray="5,2" d="M1275.95,-938.46C1318.01,-845.61 1381.86,-719.19 1429,-690.8 1469.75,-666.26 1811.96,-695.11 1857,-679.8 1906.39,-663.02 1954.24,-632.25 1994.11,-601.11"/>
<polygon fill="#444444" stroke="#444444" points="1996.31,-603.83 2001.98,-594.88 1991.97,-598.34 1996.31,-603.83"/>
<text text-anchor="start" x="1429" y="-710.6" font-family="Arial" font-size="24.00" fill="#444444">finds the test suite with</text>
</g>
<!-- 13 -->
<g id="13" class="node">
<title>13</title>
<polygon fill="#85bbf0" stroke="#5d82a8" points="2117.5,-2550.2 1722.5,-2550.2 1722.5,-2367.2 2117.5,-2367.2 2117.5,-2550.2"/>
<text text-anchor="start" x="1803.5" y="-2502" font-family="Arial" font-size="34.00" fill="#000000">Project scaffold</text>
<text text-anchor="start" x="1831" y="-2480" font-family="Arial" font-size="19.00" fill="#000000">[Component: Python]</text>
<text text-anchor="start" x="1799.5" y="-2443" font-family="Arial" font-size="24.00" fill="#000000">rdm init: lays down the</text>
<text text-anchor="start" x="1783.5" y="-2419" font-family="Arial" font-size="24.00" fill="#000000">project templates and the</text>
<text text-anchor="start" x="1751.5" y="-2395" font-family="Arial" font-size="24.00" fill="#000000">shared agent workflow runbook</text>
</g>
<!-- 14 -->
<g id="14" class="node">
<title>14</title>
<polygon fill="#85bbf0" stroke="#5d82a8" points="2303.5,-2159.2 1922.5,-2159.2 1922.5,-2024.2 2303.5,-2024.2 2303.5,-2159.2"/>
<text text-anchor="start" x="1981" y="-2111" font-family="Arial" font-size="34.00" fill="#000000">Project templates</text>
<text text-anchor="start" x="1951.5" y="-2089" font-family="Arial" font-size="19.00" fill="#000000">[Component: Markdown, YAML, Typst]</text>
<text text-anchor="start" x="1984.5" y="-2052" font-family="Arial" font-size="24.00" fill="#000000">What rdm init lays down</text>
</g>
<!-- 13&#45;&gt;14 -->
<g id="92" class="edge">
<title>13&#45;&gt;14</title>
<path fill="none" stroke="#444444" stroke-dasharray="5,2" d="M1997.78,-2367C2009.09,-2351.6 2019.95,-2335.35 2029,-2319.2 2055.61,-2271.74 2076.82,-2214.21 2091.27,-2169.01"/>
<polygon fill="#444444" stroke="#444444" points="2094.67,-2169.86 2094.34,-2159.27 2088,-2167.76 2094.67,-2169.86"/>
<text text-anchor="start" x="2052" y="-2287" font-family="Arial" font-size="24.00" fill="#444444">copies</text>
</g>
<!-- 16 -->
<g id="16" class="node">
<title>16</title>
<polygon fill="#85bbf0" stroke="#5d82a8" points="1850,-2159.2 1500,-2159.2 1500,-2024.2 1850,-2024.2 1850,-2159.2"/>
<text text-anchor="start" x="1529" y="-2111" font-family="Arial" font-size="34.00" fill="#000000">Adoption templates</text>
<text text-anchor="start" x="1541.5" y="-2089" font-family="Arial" font-size="19.00" fill="#000000">[Component: Markdown, YAML]</text>
<text text-anchor="start" x="1531.5" y="-2052" font-family="Arial" font-size="24.00" fill="#000000">What rdm adopt lays down</text>
</g>
<!-- 13&#45;&gt;16 -->
<g id="133" class="edge">
<title>13&#45;&gt;16</title>
<path fill="none" stroke="#444444" stroke-dasharray="5,2" d="M1774.04,-2366.94C1758.2,-2352.5 1743.64,-2336.53 1732,-2319.2 1702.15,-2274.74 1687.93,-2215.88 1681.16,-2169.3"/>
<polygon fill="#444444" stroke="#444444" points="1684.61,-2168.69 1679.78,-2159.26 1677.67,-2169.64 1684.61,-2168.69"/>
<text text-anchor="start" x="1732" y="-2300" font-family="Arial" font-size="24.00" fill="#444444">copies the agent workflow</text>
<text text-anchor="start" x="1799.5" y="-2274" font-family="Arial" font-size="24.00" fill="#444444">runbook from</text>
</g>
<!-- 15 -->
<g id="15" class="node">
<title>15</title>
<polygon fill="#85bbf0" stroke="#5d82a8" points="1409,-2562.2 1047,-2562.2 1047,-2355.2 1409,-2355.2 1409,-2562.2"/>
<text text-anchor="start" x="1161" y="-2514" font-family="Arial" font-size="34.00" fill="#000000">Adoption</text>
<text text-anchor="start" x="1139" y="-2492" font-family="Arial" font-size="19.00" fill="#000000">[Component: Python]</text>
<text text-anchor="start" x="1083" y="-2455" font-family="Arial" font-size="24.00" fill="#000000">rdm adopt: lays down each</text>
<text text-anchor="start" x="1084.5" y="-2431" font-family="Arial" font-size="24.00" fill="#000000">missing file of the adoption</text>
<text text-anchor="start" x="1076" y="-2407" font-family="Arial" font-size="24.00" fill="#000000">templates, never overwriting</text>
<text text-anchor="start" x="1207.5" y="-2383" font-family="Arial" font-size="24.00" fill="#000000">one</text>
</g>
<!-- 15&#45;&gt;10 -->
<g id="135" class="edge">
<title>15&#45;&gt;10</title>
<path fill="none" stroke="#444444" stroke-dasharray="5,2" d="M1228,-2355.06C1228,-2312.32 1228,-2262.31 1228,-2217.48"/>
<polygon fill="#444444" stroke="#444444" points="1231.5,-2217.4 1228,-2207.4 1224.5,-2217.4 1231.5,-2217.4"/>
<text text-anchor="start" x="1228" y="-2300" font-family="Arial" font-size="24.00" fill="#444444">takes the design gate&#39;s</text>
<text text-anchor="start" x="1257.5" y="-2274" font-family="Arial" font-size="24.00" fill="#444444">hook names from</text>
</g>
<!-- 15&#45;&gt;11 -->
<g id="134" class="edge">
<title>15&#45;&gt;11</title>
<path fill="none" stroke="#444444" stroke-dasharray="5,2" d="M1046.73,-2379.25C997.34,-2348.45 949.83,-2307.86 922,-2256.2 839.4,-2102.9 848.67,-2022.34 922,-1864.4 946.36,-1811.93 987.2,-1766.26 1031.24,-1728.52"/>
<polygon fill="#444444" stroke="#444444" points="1033.52,-1731.17 1038.91,-1722.05 1029.01,-1725.82 1033.52,-1731.17"/>
<text text-anchor="start" x="922" y="-2085.5" font-family="Arial" font-size="24.00" fill="#444444">copies</text>
</g>
<!-- 15&#45;&gt;16 -->
<g id="94" class="edge">
<title>15&#45;&gt;16</title>
<path fill="none" stroke="#444444" stroke-dasharray="5,2" d="M1409.32,-2375.83C1438.62,-2359.04 1467.63,-2340.04 1493,-2319.2 1545.58,-2276 1593.28,-2215.44 1626.65,-2167.8"/>
<polygon fill="#444444" stroke="#444444" points="1629.68,-2169.58 1632.5,-2159.37 1623.93,-2165.59 1629.68,-2169.58"/>
<text text-anchor="start" x="1545" y="-2287" font-family="Arial" font-size="24.00" fill="#444444">copies</text>
</g>
<!-- 17&#45;&gt;7 -->
<g id="171" class="edge">
<title>17&#45;&gt;7</title>
<path fill="none" stroke="#444444" stroke-dasharray="5,2" d="M755.9,-962.38C741.01,-884.17 732.83,-765.42 796,-690.8 873.69,-599.03 1190.11,-548.27 1407.17,-523.66"/>
<polygon fill="#444444" stroke="#444444" points="1407.89,-527.1 1417.43,-522.5 1407.1,-520.14 1407.89,-527.1"/>
<text text-anchor="start" x="796" y="-723.6" font-family="Arial" font-size="24.00" fill="#444444">reads the user&#45;need</text>
<text text-anchor="start" x="840" y="-697.6" font-family="Arial" font-size="24.00" fill="#444444">registry with</text>
</g>
<!-- 18 -->
<g id="18" class="node">
<title>18</title>
<polygon fill="#85bbf0" stroke="#5d82a8" points="425.5,-582.8 82.5,-582.8 82.5,-423.8 425.5,-423.8 425.5,-582.8"/>
<text text-anchor="start" x="111.5" y="-534.6" font-family="Arial" font-size="34.00" fill="#000000">Formative usability</text>
<text text-anchor="start" x="165" y="-512.6" font-family="Arial" font-size="19.00" fill="#000000">[Component: Python]</text>
<text text-anchor="start" x="112.5" y="-475.6" font-family="Arial" font-size="24.00" fill="#000000">Persona runs as formative</text>
<text text-anchor="start" x="205.5" y="-451.6" font-family="Arial" font-size="24.00" fill="#000000">evidence</text>
</g>
<!-- 19 -->
<g id="19" class="node">
<title>19</title>
<polygon fill="#85bbf0" stroke="#5d82a8" points="499,-1145.6 129,-1145.6 129,-938.6 499,-938.6 499,-1145.6"/>
<text text-anchor="start" x="171" y="-1097.4" font-family="Arial" font-size="34.00" fill="#000000">Persona command</text>
<text text-anchor="start" x="225" y="-1075.4" font-family="Arial" font-size="19.00" fill="#000000">[Component: Python]</text>
<text text-anchor="start" x="192" y="-1038.4" font-family="Arial" font-size="24.00" fill="#000000">rdm story persona: the</text>
<text text-anchor="start" x="158" y="-1014.4" font-family="Arial" font-size="24.00" fill="#000000">formative status of each user</text>
<text text-anchor="start" x="173.5" y="-990.4" font-family="Arial" font-size="24.00" fill="#000000">need; informational, never</text>
<text text-anchor="start" x="201.5" y="-966.4" font-family="Arial" font-size="24.00" fill="#000000">fails a successful run</text>
</g>
<!-- 19&#45;&gt;18 -->
<g id="96" class="edge">
<title>19&#45;&gt;18</title>
<path fill="none" stroke="#444444" stroke-dasharray="5,2" d="M236.78,-938.36C200.31,-883.43 160.74,-812.82 142,-742.8 127.97,-690.39 150.98,-635.35 179.72,-591.36"/>
<polygon fill="#444444" stroke="#444444" points="182.67,-593.25 185.34,-583 176.86,-589.35 182.67,-593.25"/>
<text text-anchor="start" x="142" y="-710.6" font-family="Arial" font-size="24.00" fill="#444444">classifies runs with</text>
</g>
<!-- 19&#45;&gt;7 -->
<g id="152" class="edge">
<title>19&#45;&gt;7</title>
<path fill="none" stroke="#444444" stroke-dasharray="5,2" d="M338.83,-938.53C363.79,-858.23 410.56,-750.47 492,-690.8 634.19,-586.62 1122.34,-537.19 1407.42,-516.72"/>
<polygon fill="#444444" stroke="#444444" points="1407.74,-520.2 1417.47,-516 1407.25,-513.22 1407.74,-520.2"/>
<text text-anchor="start" x="492" y="-710.6" font-family="Arial" font-size="24.00" fill="#444444">reads the V&amp;V plan with</text>
</g>
<!-- 9&#45;&gt;28 -->
<g id="108" class="edge">
<title>9&#45;&gt;28</title>
<path fill="none" stroke="#444444" stroke-dasharray="5,2" d="M1748.73,-950.45C1792.09,-881.62 1861.97,-792.01 1951,-750.8 1969.02,-742.46 2646.21,-744.51 2666,-742.8 3118.88,-703.65 3643.2,-605.33 3925.82,-547.89"/>
<polygon fill="#444444" stroke="#444444" points="3926.67,-551.29 3935.77,-545.86 3925.28,-544.43 3926.67,-551.29"/>
<text text-anchor="start" x="3071" y="-723.6" font-family="Arial" font-size="24.00" fill="#444444">checks the views are fresh</text>
<text text-anchor="start" x="3192.5" y="-697.6" font-family="Arial" font-size="24.00" fill="#444444">with</text>
</g>
<!-- 9&#45;&gt;7 -->
<g id="143" class="edge">
<title>9&#45;&gt;7</title>
<path fill="none" stroke="#444444" stroke-dasharray="5,2" d="M1705.86,-950.53C1709.18,-879.24 1709.31,-777.75 1692,-690.8 1687.08,-666.11 1679.11,-640.48 1670.2,-616.4"/>
<polygon fill="#444444" stroke="#444444" points="1673.42,-615.01 1666.61,-606.9 1666.88,-617.49 1673.42,-615.01"/>
<text text-anchor="start" x="1699" y="-710.6" font-family="Arial" font-size="24.00" fill="#444444">reads the record with</text>
</g>
<!-- 9&#45;&gt;8 -->
<g id="176" class="edge">
<title>9&#45;&gt;8</title>
<path fill="none" stroke="#444444" stroke-dasharray="5,2" d="M1777.94,-950.55C1827.38,-892.5 1891.45,-814.8 1944,-742.8 1976.55,-698.2 2010.11,-646.96 2037.55,-603.43"/>
<polygon fill="#444444" stroke="#444444" points="2040.6,-605.16 2042.96,-594.83 2034.67,-601.44 2040.6,-605.16"/>
<text text-anchor="start" x="1979" y="-723.6" font-family="Arial" font-size="24.00" fill="#444444">finds the tagged tests</text>
<text text-anchor="start" x="2073" y="-697.6" font-family="Arial" font-size="24.00" fill="#444444">with</text>
</g>
<!-- 22&#45;&gt;8 -->
<g id="175" class="edge">
<title>22&#45;&gt;8</title>
<path fill="none" stroke="#444444" stroke-dasharray="5,2" d="M2483.36,-902.37C2441.45,-835.03 2386.65,-755.01 2328,-690.8 2299.19,-659.26 2264.86,-628.55 2231.61,-601.45"/>
<polygon fill="#444444" stroke="#444444" points="2233.62,-598.57 2223.64,-595 2229.22,-604.01 2233.62,-598.57"/>
<text text-anchor="start" x="2365" y="-723.6" font-family="Arial" font-size="24.00" fill="#444444">takes the label that names</text>
<text text-anchor="start" x="2403" y="-697.6" font-family="Arial" font-size="24.00" fill="#444444">a design input from</text>
</g>
</g>
</svg>
