<?xml version="1.0" encoding="UTF-8" standalone="no"?>
<!-- rdm c4 draw: view C3_specification, workspace sha256:55f25186083a166ffad71761ec8863669d5b3915a2fe8d74cbccf0d2c9adecdb -->
<!DOCTYPE svg PUBLIC "-//W3C//DTD SVG 1.1//EN"
 "http://www.w3.org/Graphics/SVG/1.1/DTD/svg11.dtd">
<!-- Generated by graphviz version 2.43.0 (0)
 -->
<!-- Title: %3 Pages: 1 -->
<svg width="5855pt" height="2653pt"
 viewBox="0.00 0.00 5855.00 2653.20" xmlns="http://www.w3.org/2000/svg" xmlns:xlink="http://www.w3.org/1999/xlink">
<g id="graph0" class="graph" transform="scale(1 1) rotate(0) translate(4 2649.2)">
<title>%3</title>
<polygon fill="white" stroke="transparent" points="-4,4 -4,-2649.2 5851,-2649.2 5851,4 -4,4"/>
<text text-anchor="start" x="2631.5" y="-11.8" font-family="Arial" font-size="34.00">Design specification: components (C3)</text>
<g id="clust1" class="cluster">
<title>cluster_4</title>
<polygon fill="none" stroke="#444444" points="8,-64 8,-2637.2 5839,-2637.2 5839,-64 8,-64"/>
<text text-anchor="start" x="2896" y="-92.8" font-family="Arial" font-size="24.00" fill="#444444">RDM</text>
<text text-anchor="start" x="2846.5" y="-72.8" font-family="Arial" font-size="19.00" fill="#444444">[Software System]</text>
</g>
<g id="clust2" class="cluster">
<title>cluster_48</title>
<polygon fill="none" stroke="#cccccc" points="5322,-750.8 5322,-1195.6 5814,-1195.6 5814,-750.8 5322,-750.8"/>
<text text-anchor="start" x="5461" y="-779.6" font-family="Arial" font-size="24.00" fill="#cccccc">Acceptance test run</text>
<text text-anchor="start" x="5434" y="-759.6" font-family="Arial" font-size="19.00" fill="#cccccc">[Container: pytest, allure&#45;pytest]</text>
</g>
<g id="clust3" class="cluster">
<title>cluster_group_test_evidence</title>
<polygon fill="none" stroke="#cccccc" stroke-dasharray="5,2" points="5347,-850.8 5347,-1170.6 5789,-1170.6 5789,-850.8 5347,-850.8"/>
<text text-anchor="start" x="5493" y="-864.4" font-family="Arial" font-size="24.00" fill="#cccccc">test_evidence</text>
</g>
<g id="clust4" class="cluster">
<title>cluster_5</title>
<polygon fill="none" stroke="#444444" points="538,-164 538,-2612.2 5297,-2612.2 5297,-164 538,-164"/>
<text text-anchor="start" x="2896" y="-192.8" font-family="Arial" font-size="24.00" fill="#444444">rdm</text>
<text text-anchor="start" x="2836" y="-172.8" font-family="Arial" font-size="19.00" fill="#444444">[Container: Python]</text>
</g>
<g id="clust10" class="cluster">
<title>cluster_group_test_evidence</title>
<polygon fill="none" stroke="#cccccc" stroke-dasharray="5,2" points="2858,-814.8 2858,-1206.6 3278,-1206.6 3278,-814.8 2858,-814.8"/>
<text text-anchor="start" x="2993" y="-828.4" font-family="Arial" font-size="24.00" fill="#cccccc">test_evidence</text>
</g>
<g id="clust5" class="cluster">
<title>cluster_group_architecture</title>
<polygon fill="none" stroke="#cccccc" stroke-dasharray="5,2" points="4416,-264 4416,-679.8 4858,-679.8 4858,-264 4416,-264"/>
<text text-anchor="start" x="4573.5" y="-277.6" font-family="Arial" font-size="24.00" fill="#cccccc">architecture</text>
</g>
<g id="clust6" class="cluster">
<title>cluster_group_graph</title>
<polygon fill="none" stroke="#cccccc" stroke-dasharray="5,2" points="4362,-1864.4 4362,-2256.2 4822,-2256.2 4822,-1864.4 4362,-1864.4"/>
<text text-anchor="start" x="4560.5" y="-1878" font-family="Arial" font-size="24.00" fill="#cccccc">graph</text>
</g>
<g id="clust7" class="cluster">
<title>cluster_group_publishing</title>
<polygon fill="none" stroke="#cccccc" stroke-dasharray="5,2" points="2865,-1425.6 2865,-1721.4 3755,-1721.4 3755,-1425.6 2865,-1425.6"/>
<text text-anchor="start" x="3255.5" y="-1439.2" font-family="Arial" font-size="24.00" fill="#cccccc">publishing</text>
</g>
<g id="clust8" class="cluster">
<title>cluster_group_release</title>
<polygon fill="none" stroke="#cccccc" stroke-dasharray="5,2" points="3786,-1353.6 3786,-1793.4 4670,-1793.4 4670,-1353.6 3786,-1353.6"/>
<text text-anchor="start" x="4188" y="-1367.2" font-family="Arial" font-size="24.00" fill="#cccccc">release</text>
</g>
<g id="clust9" class="cluster">
<title>cluster_group_specification</title>
<polygon fill="none" stroke="#cccccc" stroke-dasharray="5,2" points="563,-312 563,-2587.2 2833,-2587.2 2833,-312 563,-312"/>
<text text-anchor="start" x="1631.5" y="-325.6" font-family="Arial" font-size="24.00" fill="#cccccc">specification</text>
</g>
<g id="clust11" class="cluster">
<title>cluster_50</title>
<polygon fill="none" stroke="#cccccc" points="33,-1277.6 33,-1794.4 513,-1794.4 513,-1277.6 33,-1277.6"/>
<text text-anchor="start" x="188.5" y="-1306.4" font-family="Arial" font-size="24.00" fill="#cccccc">Reusable gates</text>
<text text-anchor="start" x="158" y="-1286.4" font-family="Arial" font-size="19.00" fill="#cccccc">[Container: GitHub Actions]</text>
</g>
<g id="clust12" class="cluster">
<title>cluster_group_release</title>
<polygon fill="none" stroke="#cccccc" stroke-dasharray="5,2" points="58,-1377.6 58,-1769.4 488,-1769.4 488,-1377.6 58,-1377.6"/>
<text text-anchor="start" x="233" y="-1391.2" font-family="Arial" font-size="24.00" fill="#cccccc">release</text>
</g>
<!-- 49 -->
<g id="49" class="node">
<title>49</title>
<polygon fill="#85bbf0" stroke="#5d82a8" points="5764,-1145.6 5372,-1145.6 5372,-938.6 5764,-938.6 5764,-1145.6"/>
<text text-anchor="start" x="5472" y="-1097.4" font-family="Arial" font-size="34.00" fill="#000000">pytest plugin</text>
<text text-anchor="start" x="5448" y="-1075.4" font-family="Arial" font-size="19.00" fill="#000000">[Component: Python, pytest]</text>
<text text-anchor="start" x="5433.5" y="-1038.4" font-family="Arial" font-size="24.00" fill="#000000">Labels each run from the</text>
<text text-anchor="start" x="5407" y="-1014.4" font-family="Arial" font-size="24.00" fill="#000000">record; the run&#39;s executor and</text>
<text text-anchor="start" x="5401" y="-990.4" font-family="Arial" font-size="24.00" fill="#000000">environment, written only when</text>
<text text-anchor="start" x="5422.5" y="-966.4" font-family="Arial" font-size="24.00" fill="#000000">the run writes Allure results</text>
</g>
<!-- 7 -->
<g id="7" class="node">
<title>7</title>
<polygon fill="#85bbf0" stroke="#5d82a8" points="2325.5,-606.8 1922.5,-606.8 1922.5,-399.8 2325.5,-399.8 2325.5,-606.8"/>
<text text-anchor="start" x="2015.5" y="-558.6" font-family="Arial" font-size="34.00" fill="#000000">Record reader</text>
<text text-anchor="start" x="2035" y="-536.6" font-family="Arial" font-size="19.00" fill="#000000">[Component: Python]</text>
<text text-anchor="start" x="1980.5" y="-499.6" font-family="Arial" font-size="24.00" fill="#000000">User needs, design inputs,</text>
<text text-anchor="start" x="1986.5" y="-475.6" font-family="Arial" font-size="24.00" fill="#000000">realises and declarations,</text>
<text text-anchor="start" x="1951.5" y="-451.6" font-family="Arial" font-size="24.00" fill="#000000">from the design documents&#39; and</text>
<text text-anchor="start" x="2003.5" y="-427.6" font-family="Arial" font-size="24.00" fill="#000000">V&amp;V plan&#39;s frontmatter</text>
</g>
<!-- 49&#45;&gt;7 -->
<g id="203" class="edge">
<title>49&#45;&gt;7</title>
<path fill="none" stroke="#444444" stroke-dasharray="5,2" d="M5443.03,-938.4C5373.94,-881.27 5286.79,-808.61 5210,-742.8 5183.46,-720.05 5183.67,-703.22 5151,-690.8 5078.58,-663.28 2435.55,-704.15 2362,-679.8 2318.84,-665.51 2277.06,-640.11 2240.87,-612.99"/>
<polygon fill="#444444" stroke="#444444" points="2242.84,-610.09 2232.76,-606.82 2238.6,-615.66 2242.84,-610.09"/>
<text text-anchor="start" x="5210" y="-710.6" font-family="Arial" font-size="24.00" fill="#444444">reads the record with</text>
</g>
<!-- 8 -->
<g id="8" class="node">
<title>8</title>
<polygon fill="#85bbf0" stroke="#5d82a8" points="2808,-594.8 2398,-594.8 2398,-411.8 2808,-411.8 2808,-594.8"/>
<text text-anchor="start" x="2534" y="-546.6" font-family="Arial" font-size="34.00" fill="#000000">Test tags</text>
<text text-anchor="start" x="2514" y="-524.6" font-family="Arial" font-size="19.00" fill="#000000">[Component: Python]</text>
<text text-anchor="start" x="2450.5" y="-487.6" font-family="Arial" font-size="24.00" fill="#000000">The design&#45;input tags in test</text>
<text text-anchor="start" x="2427" y="-463.6" font-family="Arial" font-size="24.00" fill="#000000">sources, in every language RDM</text>
<text text-anchor="start" x="2572.5" y="-439.6" font-family="Arial" font-size="24.00" fill="#000000">reads</text>
</g>
<!-- 49&#45;&gt;8 -->
<g id="201" class="edge">
<title>49&#45;&gt;8</title>
<path fill="none" stroke="#444444" stroke-dasharray="5,2" d="M5565.47,-938.25C5557.38,-856.65 5531.68,-747.25 5455,-690.8 5443.18,-682.1 4412.66,-680.59 4398,-679.8 3826.09,-648.92 3155.04,-572.57 2818.51,-531.49"/>
<polygon fill="#444444" stroke="#444444" points="2818.51,-527.97 2808.16,-530.23 2817.66,-534.92 2818.51,-527.97"/>
<text text-anchor="start" x="5501" y="-723.6" font-family="Arial" font-size="24.00" fill="#444444">takes the label that names</text>
<text text-anchor="start" x="5539" y="-697.6" font-family="Arial" font-size="24.00" fill="#444444">a design input from</text>
</g>
<!-- 28 -->
<g id="28" class="node">
<title>28</title>
<polygon fill="#85bbf0" stroke="#5d82a8" points="4833,-654.8 4441,-654.8 4441,-351.8 4833,-351.8 4833,-654.8"/>
<text text-anchor="start" x="4495" y="-606.6" font-family="Arial" font-size="34.00" fill="#000000">Architecture model</text>
<text text-anchor="start" x="4548" y="-584.6" font-family="Arial" font-size="19.00" fill="#000000">[Component: Python]</text>
<text text-anchor="start" x="4481.5" y="-547.6" font-family="Arial" font-size="24.00" fill="#000000">The C4 model, read from the</text>
<text text-anchor="start" x="4479.5" y="-523.6" font-family="Arial" font-size="24.00" fill="#000000">workspace&#39;s export (declared</text>
<text text-anchor="start" x="4508.5" y="-499.6" font-family="Arial" font-size="24.00" fill="#000000">relationships only); view</text>
<text text-anchor="start" x="4470" y="-475.6" font-family="Arial" font-size="24.00" fill="#000000">freshness from the stamps; the</text>
<text text-anchor="start" x="4506" y="-451.6" font-family="Arial" font-size="24.00" fill="#000000">component owning a file</text>
<text text-anchor="start" x="4479.5" y="-427.6" font-family="Arial" font-size="24.00" fill="#000000">(longest code match) and the</text>
<text text-anchor="start" x="4475" y="-403.6" font-family="Arial" font-size="24.00" fill="#000000">import dependencies between</text>
<text text-anchor="start" x="4570.5" y="-379.6" font-family="Arial" font-size="24.00" fill="#000000">components</text>
</g>
<!-- 41 -->
<g id="41" class="node">
<title>41</title>
<polygon fill="#85bbf0" stroke="#5d82a8" points="4797,-2231.2 4387,-2231.2 4387,-1952.2 4797,-1952.2 4797,-2231.2"/>
<text text-anchor="start" x="4516.5" y="-2183" font-family="Arial" font-size="34.00" fill="#000000">Projection</text>
<text text-anchor="start" x="4477" y="-2161" font-family="Arial" font-size="19.00" fill="#000000">[Component: Python, rdflib]</text>
<text text-anchor="start" x="4416" y="-2124" font-family="Arial" font-size="24.00" fill="#000000">The record into RDF, one named</text>
<text text-anchor="start" x="4496.5" y="-2100" font-family="Arial" font-size="24.00" fill="#000000">graph per source,</text>
<text text-anchor="start" x="4455" y="-2076" font-family="Arial" font-size="24.00" fill="#000000">de&#45;duplicated and sorted;</text>
<text text-anchor="start" x="4449" y="-2052" font-family="Arial" font-size="24.00" fill="#000000">replaces the store on each</text>
<text text-anchor="start" x="4435.5" y="-2028" font-family="Arial" font-size="24.00" fill="#000000">build; rdm graph build, query,</text>
<text text-anchor="start" x="4476" y="-2004" font-family="Arial" font-size="24.00" fill="#000000">serve (read&#45;only) and</text>
<text text-anchor="start" x="4528.5" y="-1980" font-family="Arial" font-size="24.00" fill="#000000">explorer&#45;file</text>
</g>
<!-- 20 -->
<g id="20" class="node">
<title>20</title>
<polygon fill="#85bbf0" stroke="#5d82a8" points="4644.5,-1756.4 4269.5,-1756.4 4269.5,-1453.4 4644.5,-1453.4 4644.5,-1756.4"/>
<text text-anchor="start" x="4335.5" y="-1708.2" font-family="Arial" font-size="34.00" fill="#000000">Verification data</text>
<text text-anchor="start" x="4368" y="-1686.2" font-family="Arial" font-size="19.00" fill="#000000">[Component: Python]</text>
<text text-anchor="start" x="4307.5" y="-1649.2" font-family="Arial" font-size="24.00" fill="#000000">Every declared design input</text>
<text text-anchor="start" x="4339" y="-1625.2" font-family="Arial" font-size="24.00" fill="#000000">reconciled against the</text>
<text text-anchor="start" x="4299" y="-1601.2" font-family="Arial" font-size="24.00" fill="#000000">executed results: status, runs</text>
<text text-anchor="start" x="4298.5" y="-1577.2" font-family="Arial" font-size="24.00" fill="#000000">and tests per design input, by</text>
<text text-anchor="start" x="4332" y="-1553.2" font-family="Arial" font-size="24.00" fill="#000000">user need; the data the</text>
<text text-anchor="start" x="4365" y="-1529.2" font-family="Arial" font-size="24.00" fill="#000000">Renderer fills the</text>
<text text-anchor="start" x="4331.5" y="-1505.2" font-family="Arial" font-size="24.00" fill="#000000">traceability matrix from;</text>
<text text-anchor="start" x="4328.5" y="-1481.2" font-family="Arial" font-size="24.00" fill="#000000">generated, never edited</text>
</g>
<!-- 41&#45;&gt;20 -->
<g id="157" class="edge">
<title>41&#45;&gt;20</title>
<path fill="none" stroke="#444444" stroke-dasharray="5,2" d="M4486.9,-1952.2C4469.22,-1922.08 4453.53,-1889.33 4444,-1856.4 4435.76,-1827.93 4432.82,-1796.89 4432.95,-1766.67"/>
<polygon fill="#444444" stroke="#444444" points="4436.45,-1766.51 4433.1,-1756.45 4429.45,-1766.4 4436.45,-1766.51"/>
<text text-anchor="start" x="4444" y="-1837.2" font-family="Arial" font-size="24.00" fill="#444444">reads each component&#39;s</text>
<text text-anchor="start" x="4478" y="-1811.2" font-family="Arial" font-size="24.00" fill="#444444">unit coverage with</text>
</g>
<!-- 21 -->
<g id="21" class="node">
<title>21</title>
<polygon fill="#85bbf0" stroke="#5d82a8" points="4197,-1768.4 3811,-1768.4 3811,-1441.4 4197,-1441.4 4197,-1768.4"/>
<text text-anchor="start" x="3903.5" y="-1720.2" font-family="Arial" font-size="34.00" fill="#000000">Release gate</text>
<text text-anchor="start" x="3915" y="-1698.2" font-family="Arial" font-size="19.00" fill="#000000">[Component: Python]</text>
<text text-anchor="start" x="3898.5" y="-1661.2" font-family="Arial" font-size="24.00" fill="#000000">Blocks a release on</text>
<text text-anchor="start" x="3862.5" y="-1637.2" font-family="Arial" font-size="24.00" fill="#000000">design&#45;gate failures, failed</text>
<text text-anchor="start" x="3865" y="-1613.2" font-family="Arial" font-size="24.00" fill="#000000">or untested design inputs,</text>
<text text-anchor="start" x="3861" y="-1589.2" font-family="Arial" font-size="24.00" fill="#000000">blocking risk findings or an</text>
<text text-anchor="start" x="3840" y="-1565.2" font-family="Arial" font-size="24.00" fill="#000000">unrefined user need; warns on</text>
<text text-anchor="start" x="3855" y="-1541.2" font-family="Arial" font-size="24.00" fill="#000000">unvalidated user needs and</text>
<text text-anchor="start" x="3841.5" y="-1517.2" font-family="Arial" font-size="24.00" fill="#000000">orphan tags; the design gate&#39;s</text>
<text text-anchor="start" x="3862.5" y="-1493.2" font-family="Arial" font-size="24.00" fill="#000000">results warnings; the trace</text>
<text text-anchor="start" x="3979.5" y="-1469.2" font-family="Arial" font-size="24.00" fill="#000000">slice</text>
</g>
<!-- 41&#45;&gt;21 -->
<g id="108" class="edge">
<title>41&#45;&gt;21</title>
<path fill="none" stroke="#444444" stroke-dasharray="5,2" d="M4386.99,-2007.59C4309.3,-1969.4 4223.8,-1918.6 4158,-1856.4 4133.6,-1833.34 4111.58,-1805.6 4092.32,-1777.1"/>
<polygon fill="#444444" stroke="#444444" points="4095.15,-1775.03 4086.7,-1768.64 4089.32,-1778.91 4095.15,-1775.03"/>
<text text-anchor="start" x="4158" y="-1837.2" font-family="Arial" font-size="24.00" fill="#444444">reads the findings about</text>
<text text-anchor="start" x="4173" y="-1811.2" font-family="Arial" font-size="24.00" fill="#444444">the whole record with</text>
</g>
<!-- 41&#45;&gt;7 -->
<g id="198" class="edge">
<title>41&#45;&gt;7</title>
<path fill="none" stroke="#444444" stroke-dasharray="5,2" d="M4675.67,-1952.02C4692.36,-1921.18 4708.79,-1888.19 4722,-1856.4 4824.71,-1609.15 4712.57,-1478.98 4889,-1277.6 4932.8,-1227.6 4962.47,-1237.15 5026,-1217.6 5051.49,-1209.75 5067.95,-1227.12 5085,-1206.6 5214.45,-1050.78 5223.66,-898.49 5085,-750.8 5012.61,-673.69 4240.7,-694.46 4135,-690.8 4085.78,-689.09 2408.74,-695.33 2362,-679.8 2318.97,-665.5 2277.3,-640.18 2241.18,-613.14"/>
<polygon fill="#444444" stroke="#444444" points="2243.16,-610.25 2233.08,-606.98 2238.92,-615.82 2243.16,-610.25"/>
<text text-anchor="start" x="5026" y="-1237.4" font-family="Arial" font-size="24.00" fill="#444444">reads the record with</text>
</g>
<!-- 41&#45;&gt;8 -->
<g id="222" class="edge">
<title>41&#45;&gt;8</title>
<path fill="none" stroke="#444444" stroke-dasharray="5,2" d="M4749.05,-1952.11C5026.5,-1691.04 5544.46,-1119.54 5216,-750.8 5205.73,-739.27 5158.31,-753.3 5147,-742.8 5129.75,-726.79 5155.03,-705.92 5137,-690.8 5121.27,-677.61 4418.5,-680.95 4398,-679.8 3826.16,-647.64 3155.08,-571.84 2818.53,-531.18"/>
<polygon fill="#444444" stroke="#444444" points="2818.53,-527.65 2808.18,-529.93 2817.69,-534.6 2818.53,-527.65"/>
<text text-anchor="start" x="5286" y="-1250.4" font-family="Arial" font-size="24.00" fill="#444444">reads the tagged tests</text>
<text text-anchor="start" x="5385" y="-1224.4" font-family="Arial" font-size="24.00" fill="#444444">with</text>
</g>
<!-- 35 -->
<g id="35" class="node">
<title>35</title>
<polygon fill="#85bbf0" stroke="#5d82a8" points="3275.5,-1672.4 2890.5,-1672.4 2890.5,-1537.4 3275.5,-1537.4 3275.5,-1672.4"/>
<text text-anchor="start" x="2957.5" y="-1624.2" font-family="Arial" font-size="34.00" fill="#000000">Evidence bundle</text>
<text text-anchor="start" x="2994" y="-1602.2" font-family="Arial" font-size="19.00" fill="#000000">[Component: Python]</text>
<text text-anchor="start" x="2919.5" y="-1565.2" font-family="Arial" font-size="24.00" fill="#000000">The retained release evidence</text>
</g>
<!-- 35&#45;&gt;7 -->
<g id="191" class="edge">
<title>35&#45;&gt;7</title>
<path fill="none" stroke="#444444" stroke-dasharray="5,2" d="M3057.56,-1537.22C3023.68,-1458.99 2955.6,-1332.94 2851,-1277.6 2831.89,-1267.49 2477.13,-1285.04 2462,-1269.6 2446.66,-1253.94 2452.82,-852.04 2575,-750.8 2588.54,-739.58 2720.89,-755.54 2733,-742.8 2748.92,-726.05 2749.1,-707.38 2733,-690.8 2718.64,-676 2381.49,-686.53 2362,-679.8 2319.37,-665.08 2277.97,-639.79 2241.97,-612.92"/>
<polygon fill="#444444" stroke="#444444" points="2243.98,-610.06 2233.9,-606.8 2239.75,-615.63 2243.98,-610.06"/>
<text text-anchor="start" x="2575" y="-1048.9" font-family="Arial" font-size="24.00" fill="#444444">finds the matrix template</text>
<text text-anchor="start" x="2686" y="-1022.9" font-family="Arial" font-size="24.00" fill="#444444">with</text>
</g>
<!-- 22 -->
<g id="22" class="node">
<title>22</title>
<polygon fill="#85bbf0" stroke="#5d82a8" points="3253,-1181.6 2883,-1181.6 2883,-902.6 3253,-902.6 3253,-1181.6"/>
<text text-anchor="start" x="2971" y="-1133.4" font-family="Arial" font-size="34.00" fill="#000000">Allure reader</text>
<text text-anchor="start" x="2979" y="-1111.4" font-family="Arial" font-size="19.00" fill="#000000">[Component: Python]</text>
<text text-anchor="start" x="2925" y="-1074.4" font-family="Arial" font-size="24.00" fill="#000000">Allure results into test runs</text>
<text text-anchor="start" x="2912" y="-1050.4" font-family="Arial" font-size="24.00" fill="#000000">and a status per design input</text>
<text text-anchor="start" x="2934.5" y="-1026.4" font-family="Arial" font-size="24.00" fill="#000000">(failed, else verified, else</text>
<text text-anchor="start" x="2915.5" y="-1002.4" font-family="Arial" font-size="24.00" fill="#000000">untested; undeclared stories</text>
<text text-anchor="start" x="2947.5" y="-978.4" font-family="Arial" font-size="24.00" fill="#000000">as orphans); a result it</text>
<text text-anchor="start" x="2915.5" y="-954.4" font-family="Arial" font-size="24.00" fill="#000000">cannot read is never a pass;</text>
<text text-anchor="start" x="2962.5" y="-930.4" font-family="Arial" font-size="24.00" fill="#000000">run labels and facts</text>
</g>
<!-- 35&#45;&gt;22 -->
<g id="190" class="edge">
<title>35&#45;&gt;22</title>
<path fill="none" stroke="#444444" stroke-dasharray="5,2" d="M3094.49,-1537.08C3106.09,-1459.92 3120.64,-1329.29 3108,-1217.6 3107.04,-1209.07 3105.81,-1200.36 3104.4,-1191.59"/>
<polygon fill="#444444" stroke="#444444" points="3107.84,-1190.95 3102.73,-1181.68 3100.94,-1192.12 3107.84,-1190.95"/>
<text text-anchor="start" x="3111" y="-1250.4" font-family="Arial" font-size="24.00" fill="#444444">keeps the run files named</text>
<text text-anchor="start" x="3237" y="-1224.4" font-family="Arial" font-size="24.00" fill="#444444">by</text>
</g>
<!-- 38 -->
<g id="38" class="node">
<title>38</title>
<polygon fill="#85bbf0" stroke="#5d82a8" points="3730.5,-1696.4 3347.5,-1696.4 3347.5,-1513.4 3730.5,-1513.4 3730.5,-1696.4"/>
<text text-anchor="start" x="3406.5" y="-1648.2" font-family="Arial" font-size="34.00" fill="#000000">Verification report</text>
<text text-anchor="start" x="3450" y="-1626.2" font-family="Arial" font-size="19.00" fill="#000000">[Component: Python]</text>
<text text-anchor="start" x="3376.5" y="-1589.2" font-family="Arial" font-size="24.00" fill="#000000">rdm story evidence&#45;report: the</text>
<text text-anchor="start" x="3378" y="-1565.2" font-family="Arial" font-size="24.00" fill="#000000">PDF of every run behind each</text>
<text text-anchor="start" x="3473.5" y="-1541.2" font-family="Arial" font-size="24.00" fill="#000000">design input</text>
</g>
<!-- 38&#45;&gt;7 -->
<g id="218" class="edge">
<title>38&#45;&gt;7</title>
<path fill="none" stroke="#444444" stroke-dasharray="5,2" d="M3519.14,-1513.13C3472.49,-1303.77 3355.41,-801.06 3296,-750.8 3204.16,-673.1 2878.01,-699.14 2758,-690.8 2714.09,-687.75 2403.62,-694.13 2362,-679.8 2319.35,-665.12 2277.95,-639.84 2241.95,-612.98"/>
<polygon fill="#444444" stroke="#444444" points="2243.96,-610.11 2233.88,-606.86 2239.74,-615.69 2243.96,-610.11"/>
<text text-anchor="start" x="3445" y="-1035.9" font-family="Arial" font-size="24.00" fill="#444444">reads the record with</text>
</g>
<!-- 38&#45;&gt;8 -->
<g id="223" class="edge">
<title>38&#45;&gt;8</title>
<path fill="none" stroke="#444444" stroke-dasharray="5,2" d="M3581.02,-1513.07C3619.65,-1439.27 3683.68,-1337.86 3768,-1277.6 3860.24,-1211.69 3944.9,-1297.24 4013,-1206.6 4134.69,-1044.64 4136.51,-911.37 4013,-750.8 3870.58,-565.64 3176.88,-519.49 2818.43,-508.04"/>
<polygon fill="#444444" stroke="#444444" points="2818.29,-504.54 2808.18,-507.72 2818.07,-511.53 2818.29,-504.54"/>
<text text-anchor="start" x="4104" y="-1048.9" font-family="Arial" font-size="24.00" fill="#444444">reads the tagged tests</text>
<text text-anchor="start" x="4203" y="-1022.9" font-family="Arial" font-size="24.00" fill="#444444">with</text>
</g>
<!-- 20&#45;&gt;28 -->
<g id="159" class="edge">
<title>20&#45;&gt;28</title>
<path fill="none" stroke="#444444" stroke-dasharray="5,2" d="M4495.06,-1453.34C4524.3,-1369.88 4573.7,-1272.22 4654,-1217.6 4675.23,-1203.16 4751.73,-1225.6 4769,-1206.6 4902.7,-1059.51 4817.34,-821.44 4734.75,-663.89"/>
<polygon fill="#444444" stroke="#444444" points="4737.84,-662.25 4730.07,-655.04 4731.65,-665.52 4737.84,-662.25"/>
<text text-anchor="start" x="4838" y="-1048.9" font-family="Arial" font-size="24.00" fill="#444444">maps covered files to</text>
<text text-anchor="start" x="4861.5" y="-1022.9" font-family="Arial" font-size="24.00" fill="#444444">components with</text>
</g>
<!-- 20&#45;&gt;7 -->
<g id="216" class="edge">
<title>20&#45;&gt;7</title>
<path fill="none" stroke="#444444" stroke-dasharray="5,2" d="M4490.42,-1453.38C4523.12,-1262.23 4544.79,-935.13 4363,-750.8 4287.05,-673.79 3987.93,-697.87 3880,-690.8 3837.92,-688.04 2402.01,-693.12 2362,-679.8 2318.98,-665.48 2277.31,-640.15 2241.19,-613.12"/>
<polygon fill="#444444" stroke="#444444" points="2243.17,-610.22 2233.09,-606.96 2238.93,-615.8 2243.17,-610.22"/>
<text text-anchor="start" x="4512" y="-1035.9" font-family="Arial" font-size="24.00" fill="#444444">reads the record with</text>
</g>
<!-- 17 -->
<g id="17" class="node">
<title>17</title>
<polygon fill="#85bbf0" stroke="#5d82a8" points="1460.5,-1121.6 1101.5,-1121.6 1101.5,-962.6 1460.5,-962.6 1460.5,-1121.6"/>
<text text-anchor="start" x="1146" y="-1073.4" font-family="Arial" font-size="34.00" fill="#000000">Validation records</text>
<text text-anchor="start" x="1192" y="-1051.4" font-family="Arial" font-size="19.00" fill="#000000">[Component: Python]</text>
<text text-anchor="start" x="1130.5" y="-1014.4" font-family="Arial" font-size="24.00" fill="#000000">Approved validation records</text>
<text text-anchor="start" x="1205.5" y="-990.4" font-family="Arial" font-size="24.00" fill="#000000">per user need</text>
</g>
<!-- 21&#45;&gt;17 -->
<g id="227" class="edge">
<title>21&#45;&gt;17</title>
<path fill="none" stroke="#444444" stroke-dasharray="5,2" d="M3930.36,-1441C3892.87,-1378.1 3840.7,-1312.89 3773,-1277.6 3757.54,-1269.54 2535.38,-1270.91 2518,-1269.6 2357.23,-1257.5 2319.7,-1230.55 2159,-1217.6 2123.11,-1214.71 1545.21,-1217.84 1511,-1206.6 1461.25,-1190.25 1412.94,-1159.05 1373.55,-1128.25"/>
<polygon fill="#444444" stroke="#444444" points="1375.29,-1125.16 1365.28,-1121.69 1370.94,-1130.64 1375.29,-1125.16"/>
<text text-anchor="start" x="2518" y="-1250.4" font-family="Arial" font-size="24.00" fill="#444444">reads validation records</text>
<text text-anchor="start" x="2625.5" y="-1224.4" font-family="Arial" font-size="24.00" fill="#444444">with</text>
</g>
<!-- 21&#45;&gt;7 -->
<g id="207" class="edge">
<title>21&#45;&gt;7</title>
<path fill="none" stroke="#444444" stroke-dasharray="5,2" d="M3888.89,-1441.08C3844.83,-1371.71 3798,-1288.1 3768,-1206.6 3697,-1013.73 3839.22,-892.12 3690,-750.8 3605.7,-670.97 3286.86,-698.27 3171,-690.8 3126.14,-687.91 2404.6,-694.13 2362,-679.8 2319.14,-665.38 2277.59,-640.11 2241.53,-613.15"/>
<polygon fill="#444444" stroke="#444444" points="2243.53,-610.27 2233.45,-607.01 2239.3,-615.85 2243.53,-610.27"/>
<text text-anchor="start" x="3768" y="-1035.9" font-family="Arial" font-size="24.00" fill="#444444">reads the record with</text>
</g>
<!-- 9 -->
<g id="9" class="node">
<title>9</title>
<polygon fill="#85bbf0" stroke="#5d82a8" points="2402,-1133.6 2006,-1133.6 2006,-950.6 2402,-950.6 2402,-1133.6"/>
<text text-anchor="start" x="2113" y="-1085.4" font-family="Arial" font-size="34.00" fill="#000000">Design gate</text>
<text text-anchor="start" x="2115" y="-1063.4" font-family="Arial" font-size="19.00" fill="#000000">[Component: Python]</text>
<text text-anchor="start" x="2035" y="-1026.4" font-family="Arial" font-size="24.00" fill="#000000">The record complete, approved</text>
<text text-anchor="start" x="2080.5" y="-1002.4" font-family="Arial" font-size="24.00" fill="#000000">and declared once; the</text>
<text text-anchor="start" x="2076.5" y="-978.4" font-family="Arial" font-size="24.00" fill="#000000">architecture views fresh</text>
</g>
<!-- 21&#45;&gt;9 -->
<g id="224" class="edge">
<title>21&#45;&gt;9</title>
<path fill="none" stroke="#444444" stroke-dasharray="5,2" d="M3930.32,-1441.08C3892.82,-1378.19 3840.66,-1312.97 3773,-1277.6 3750.35,-1265.76 2876.87,-1278.74 2853,-1269.6 2820.36,-1257.11 2826.49,-1230.48 2794,-1217.6 2724.14,-1189.9 2527.7,-1229.1 2456,-1206.6 2409.43,-1191.99 2363.23,-1166.21 2323.35,-1139.38"/>
<polygon fill="#444444" stroke="#444444" points="2325.17,-1136.38 2314.94,-1133.64 2321.23,-1142.16 2325.17,-1136.38"/>
<text text-anchor="start" x="2853" y="-1250.4" font-family="Arial" font-size="24.00" fill="#444444">runs the design gate&#39;s</text>
<text text-anchor="start" x="2920" y="-1224.4" font-family="Arial" font-size="24.00" fill="#444444">checks of</text>
</g>
<!-- 10 -->
<g id="10" class="node">
<title>10</title>
<polygon fill="#85bbf0" stroke="#5d82a8" points="1719,-2207.2 1319,-2207.2 1319,-1976.2 1719,-1976.2 1719,-2207.2"/>
<text text-anchor="start" x="1407" y="-2159" font-family="Arial" font-size="34.00" fill="#000000">Hooks installer</text>
<text text-anchor="start" x="1430" y="-2137" font-family="Arial" font-size="19.00" fill="#000000">[Component: Python]</text>
<text text-anchor="start" x="1398.5" y="-2100" font-family="Arial" font-size="24.00" fill="#000000">rdm hooks: installs the</text>
<text text-anchor="start" x="1348" y="-2076" font-family="Arial" font-size="24.00" fill="#000000">design&#45;gate hooks (pre&#45;commit,</text>
<text text-anchor="start" x="1378" y="-2052" font-family="Arial" font-size="24.00" fill="#000000">and pre&#45;merge&#45;commit for</text>
<text text-anchor="start" x="1363.5" y="-2028" font-family="Arial" font-size="24.00" fill="#000000">merges); the issue&#45;reference</text>
<text text-anchor="start" x="1400" y="-2004" font-family="Arial" font-size="24.00" fill="#000000">hooks only on request</text>
</g>
<!-- 11 -->
<g id="11" class="node">
<title>11</title>
<polygon fill="#85bbf0" stroke="#5d82a8" points="2052,-1744.4 1674,-1744.4 1674,-1465.4 2052,-1465.4 2052,-1744.4"/>
<text text-anchor="start" x="1734" y="-1696.2" font-family="Arial" font-size="34.00" fill="#000000">Pre&#45;commit hook</text>
<text text-anchor="start" x="1783.5" y="-1674.2" font-family="Arial" font-size="19.00" fill="#000000">[Component: shell]</text>
<text text-anchor="start" x="1778.5" y="-1637.2" font-family="Arial" font-size="24.00" fill="#000000">pre&#45;commit and</text>
<text text-anchor="start" x="1718.5" y="-1613.2" font-family="Arial" font-size="24.00" fill="#000000">pre&#45;merge&#45;commit: run the</text>
<text text-anchor="start" x="1703" y="-1589.2" font-family="Arial" font-size="24.00" fill="#000000">design gate on a commit, or a</text>
<text text-anchor="start" x="1762" y="-1565.2" font-family="Arial" font-size="24.00" fill="#000000">merge, that stages</text>
<text text-anchor="start" x="1721" y="-1541.2" font-family="Arial" font-size="24.00" fill="#000000">implementation files; block</text>
<text text-anchor="start" x="1717.5" y="-1517.2" font-family="Arial" font-size="24.00" fill="#000000">unless it passes, or when it</text>
<text text-anchor="start" x="1805.5" y="-1493.2" font-family="Arial" font-size="24.00" fill="#000000">cannot run</text>
</g>
<!-- 10&#45;&gt;11 -->
<g id="105" class="edge">
<title>10&#45;&gt;11</title>
<path fill="none" stroke="#444444" stroke-dasharray="5,2" d="M1600.31,-1976.12C1647.65,-1909.39 1707.83,-1824.58 1758.65,-1752.97"/>
<polygon fill="#444444" stroke="#444444" points="1761.55,-1754.93 1764.48,-1744.75 1755.84,-1750.88 1761.55,-1754.93"/>
<text text-anchor="start" x="1721" y="-1824.2" font-family="Arial" font-size="24.00" fill="#444444">installs</text>
</g>
<!-- 11&#45;&gt;9 -->
<g id="106" class="edge">
<title>11&#45;&gt;9</title>
<path fill="none" stroke="#444444" stroke-dasharray="5,2" d="M1947.29,-1465.28C2008.24,-1365.04 2089.14,-1232 2143.69,-1142.28"/>
<polygon fill="#444444" stroke="#444444" points="2146.68,-1144.1 2148.89,-1133.73 2140.7,-1140.46 2146.68,-1144.1"/>
<text text-anchor="start" x="2093" y="-1237.4" font-family="Arial" font-size="24.00" fill="#444444">runs</text>
</g>
<!-- 12 -->
<g id="12" class="node">
<title>12</title>
<polygon fill="#85bbf0" stroke="#5d82a8" points="1927,-1145.6 1547,-1145.6 1547,-938.6 1927,-938.6 1927,-1145.6"/>
<text text-anchor="start" x="1606" y="-1097.4" font-family="Arial" font-size="34.00" fill="#000000">New design input</text>
<text text-anchor="start" x="1648" y="-1075.4" font-family="Arial" font-size="19.00" fill="#000000">[Component: Python]</text>
<text text-anchor="start" x="1576" y="-1038.4" font-family="Arial" font-size="24.00" fill="#000000">rdm story new&#45;input: allocates</text>
<text text-anchor="start" x="1596" y="-1014.4" font-family="Arial" font-size="24.00" fill="#000000">the next id, inserts it into a</text>
<text text-anchor="start" x="1589.5" y="-990.4" font-family="Arial" font-size="24.00" fill="#000000">context&#39;s frontmatter, writes</text>
<text text-anchor="start" x="1646" y="-966.4" font-family="Arial" font-size="24.00" fill="#000000">a failing stub test</text>
</g>
<!-- 12&#45;&gt;7 -->
<g id="195" class="edge">
<title>12&#45;&gt;7</title>
<path fill="none" stroke="#444444" stroke-dasharray="5,2" d="M1624.57,-938.32C1559.19,-865.91 1499.79,-768.42 1556,-690.8 1599.26,-631.07 1769.52,-580.18 1912.45,-546.73"/>
<polygon fill="#444444" stroke="#444444" points="1913.31,-550.12 1922.26,-544.45 1911.73,-543.3 1913.31,-550.12"/>
<text text-anchor="start" x="1556" y="-723.6" font-family="Arial" font-size="24.00" fill="#444444">reads the design documents</text>
<text text-anchor="start" x="1687" y="-697.6" font-family="Arial" font-size="24.00" fill="#444444">with</text>
</g>
<!-- 12&#45;&gt;8 -->
<g id="221" class="edge">
<title>12&#45;&gt;8</title>
<path fill="none" stroke="#444444" stroke-dasharray="5,2" d="M1780.95,-938.46C1823.01,-845.61 1886.86,-719.19 1934,-690.8 1974.75,-666.26 2316.96,-695.11 2362,-679.8 2411.39,-663.02 2459.24,-632.25 2499.11,-601.11"/>
<polygon fill="#444444" stroke="#444444" points="2501.31,-603.83 2506.98,-594.88 2496.97,-598.34 2501.31,-603.83"/>
<text text-anchor="start" x="1934" y="-710.6" font-family="Arial" font-size="24.00" fill="#444444">finds the test suite with</text>
</g>
<!-- 13 -->
<g id="13" class="node">
<title>13</title>
<polygon fill="#85bbf0" stroke="#5d82a8" points="2622.5,-2550.2 2227.5,-2550.2 2227.5,-2367.2 2622.5,-2367.2 2622.5,-2550.2"/>
<text text-anchor="start" x="2308.5" y="-2502" font-family="Arial" font-size="34.00" fill="#000000">Project scaffold</text>
<text text-anchor="start" x="2336" y="-2480" font-family="Arial" font-size="19.00" fill="#000000">[Component: Python]</text>
<text text-anchor="start" x="2304.5" y="-2443" font-family="Arial" font-size="24.00" fill="#000000">rdm init: lays down the</text>
<text text-anchor="start" x="2288.5" y="-2419" font-family="Arial" font-size="24.00" fill="#000000">project templates and the</text>
<text text-anchor="start" x="2256.5" y="-2395" font-family="Arial" font-size="24.00" fill="#000000">shared agent workflow runbook</text>
</g>
<!-- 14 -->
<g id="14" class="node">
<title>14</title>
<polygon fill="#85bbf0" stroke="#5d82a8" points="2808.5,-2159.2 2427.5,-2159.2 2427.5,-2024.2 2808.5,-2024.2 2808.5,-2159.2"/>
<text text-anchor="start" x="2486" y="-2111" font-family="Arial" font-size="34.00" fill="#000000">Project templates</text>
<text text-anchor="start" x="2456.5" y="-2089" font-family="Arial" font-size="19.00" fill="#000000">[Component: Markdown, YAML, Typst]</text>
<text text-anchor="start" x="2489.5" y="-2052" font-family="Arial" font-size="24.00" fill="#000000">What rdm init lays down</text>
</g>
<!-- 13&#45;&gt;14 -->
<g id="132" class="edge">
<title>13&#45;&gt;14</title>
<path fill="none" stroke="#444444" stroke-dasharray="5,2" d="M2472.96,-2367.01C2505.28,-2305.88 2547.42,-2226.18 2577.95,-2168.45"/>
<polygon fill="#444444" stroke="#444444" points="2581.16,-2169.86 2582.74,-2159.38 2574.97,-2166.58 2581.16,-2169.86"/>
<text text-anchor="start" x="2521" y="-2287" font-family="Arial" font-size="24.00" fill="#444444">copies</text>
</g>
<!-- 16 -->
<g id="16" class="node">
<title>16</title>
<polygon fill="#85bbf0" stroke="#5d82a8" points="2355,-2159.2 2005,-2159.2 2005,-2024.2 2355,-2024.2 2355,-2159.2"/>
<text text-anchor="start" x="2034" y="-2111" font-family="Arial" font-size="34.00" fill="#000000">Adoption templates</text>
<text text-anchor="start" x="2046.5" y="-2089" font-family="Arial" font-size="19.00" fill="#000000">[Component: Markdown, YAML]</text>
<text text-anchor="start" x="2036.5" y="-2052" font-family="Arial" font-size="24.00" fill="#000000">What rdm adopt lays down</text>
</g>
<!-- 13&#45;&gt;16 -->
<g id="177" class="edge">
<title>13&#45;&gt;16</title>
<path fill="none" stroke="#444444" stroke-dasharray="5,2" d="M2242.46,-2367.1C2226.41,-2353 2212.08,-2337.08 2201,-2319.2 2173.53,-2274.87 2168.81,-2216 2170.68,-2169.39"/>
<polygon fill="#444444" stroke="#444444" points="2174.18,-2169.5 2171.2,-2159.34 2167.19,-2169.15 2174.18,-2169.5"/>
<text text-anchor="start" x="2201" y="-2300" font-family="Arial" font-size="24.00" fill="#444444">copies the agent workflow</text>
<text text-anchor="start" x="2268.5" y="-2274" font-family="Arial" font-size="24.00" fill="#444444">runbook from</text>
</g>
<!-- 15 -->
<g id="15" class="node">
<title>15</title>
<polygon fill="#85bbf0" stroke="#5d82a8" points="2044,-2562.2 1682,-2562.2 1682,-2355.2 2044,-2355.2 2044,-2562.2"/>
<text text-anchor="start" x="1796" y="-2514" font-family="Arial" font-size="34.00" fill="#000000">Adoption</text>
<text text-anchor="start" x="1774" y="-2492" font-family="Arial" font-size="19.00" fill="#000000">[Component: Python]</text>
<text text-anchor="start" x="1718" y="-2455" font-family="Arial" font-size="24.00" fill="#000000">rdm adopt: lays down each</text>
<text text-anchor="start" x="1719.5" y="-2431" font-family="Arial" font-size="24.00" fill="#000000">missing file of the adoption</text>
<text text-anchor="start" x="1711" y="-2407" font-family="Arial" font-size="24.00" fill="#000000">templates, never overwriting</text>
<text text-anchor="start" x="1842.5" y="-2383" font-family="Arial" font-size="24.00" fill="#000000">one</text>
</g>
<!-- 15&#45;&gt;10 -->
<g id="179" class="edge">
<title>15&#45;&gt;10</title>
<path fill="none" stroke="#444444" stroke-dasharray="5,2" d="M1681.75,-2387.33C1650.36,-2368.86 1620.36,-2346.32 1597,-2319.2 1572.08,-2290.28 1555,-2252.97 1543.35,-2217.02"/>
<polygon fill="#444444" stroke="#444444" points="1546.67,-2215.92 1540.35,-2207.42 1539.99,-2218.01 1546.67,-2215.92"/>
<text text-anchor="start" x="1597" y="-2300" font-family="Arial" font-size="24.00" fill="#444444">takes the design gate&#39;s</text>
<text text-anchor="start" x="1626.5" y="-2274" font-family="Arial" font-size="24.00" fill="#444444">hook names from</text>
</g>
<!-- 15&#45;&gt;11 -->
<g id="178" class="edge">
<title>15&#45;&gt;11</title>
<path fill="none" stroke="#444444" stroke-dasharray="5,2" d="M1863,-2354.95C1863,-2205.39 1863,-1926.83 1863,-1754.79"/>
<polygon fill="#444444" stroke="#444444" points="1866.5,-1754.63 1863,-1744.63 1859.5,-1754.63 1866.5,-1754.63"/>
<text text-anchor="start" x="1863" y="-2085.5" font-family="Arial" font-size="24.00" fill="#444444">copies</text>
</g>
<!-- 15&#45;&gt;16 -->
<g id="134" class="edge">
<title>15&#45;&gt;16</title>
<path fill="none" stroke="#444444" stroke-dasharray="5,2" d="M1952.15,-2355.06C2004.07,-2295.27 2068.37,-2221.23 2115.41,-2167.07"/>
<polygon fill="#444444" stroke="#444444" points="2118.3,-2169.07 2122.22,-2159.23 2113.02,-2164.48 2118.3,-2169.07"/>
<text text-anchor="start" x="2021" y="-2287" font-family="Arial" font-size="24.00" fill="#444444">copies</text>
</g>
<!-- 17&#45;&gt;7 -->
<g id="215" class="edge">
<title>17&#45;&gt;7</title>
<path fill="none" stroke="#444444" stroke-dasharray="5,2" d="M1260.63,-962.41C1245.48,-884.22 1236.94,-765.49 1300,-690.8 1377.7,-598.78 1694.81,-548.07 1912.19,-523.54"/>
<polygon fill="#444444" stroke="#444444" points="1912.59,-527.02 1922.14,-522.43 1911.81,-520.06 1912.59,-527.02"/>
<text text-anchor="start" x="1300" y="-723.6" font-family="Arial" font-size="24.00" fill="#444444">reads the user&#45;need</text>
<text text-anchor="start" x="1344" y="-697.6" font-family="Arial" font-size="24.00" fill="#444444">registry with</text>
</g>
<!-- 18 -->
<g id="18" class="node">
<title>18</title>
<polygon fill="#85bbf0" stroke="#5d82a8" points="930.5,-582.8 587.5,-582.8 587.5,-423.8 930.5,-423.8 930.5,-582.8"/>
<text text-anchor="start" x="616.5" y="-534.6" font-family="Arial" font-size="34.00" fill="#000000">Formative usability</text>
<text text-anchor="start" x="670" y="-512.6" font-family="Arial" font-size="19.00" fill="#000000">[Component: Python]</text>
<text text-anchor="start" x="617.5" y="-475.6" font-family="Arial" font-size="24.00" fill="#000000">Persona runs as formative</text>
<text text-anchor="start" x="710.5" y="-451.6" font-family="Arial" font-size="24.00" fill="#000000">evidence</text>
</g>
<!-- 19 -->
<g id="19" class="node">
<title>19</title>
<polygon fill="#85bbf0" stroke="#5d82a8" points="983,-1145.6 613,-1145.6 613,-938.6 983,-938.6 983,-1145.6"/>
<text text-anchor="start" x="655" y="-1097.4" font-family="Arial" font-size="34.00" fill="#000000">Persona command</text>
<text text-anchor="start" x="709" y="-1075.4" font-family="Arial" font-size="19.00" fill="#000000">[Component: Python]</text>
<text text-anchor="start" x="676" y="-1038.4" font-family="Arial" font-size="24.00" fill="#000000">rdm story persona: the</text>
<text text-anchor="start" x="642" y="-1014.4" font-family="Arial" font-size="24.00" fill="#000000">formative status of each user</text>
<text text-anchor="start" x="657.5" y="-990.4" font-family="Arial" font-size="24.00" fill="#000000">need; informational, never</text>
<text text-anchor="start" x="685.5" y="-966.4" font-family="Arial" font-size="24.00" fill="#000000">fails a successful run</text>
</g>
<!-- 19&#45;&gt;18 -->
<g id="136" class="edge">
<title>19&#45;&gt;18</title>
<path fill="none" stroke="#444444" stroke-dasharray="5,2" d="M730.91,-938.43C698.65,-882.95 663.47,-811.82 647,-742.8 634.43,-690.13 657.43,-635.18 685.79,-591.31"/>
<polygon fill="#444444" stroke="#444444" points="688.72,-593.24 691.34,-582.97 682.89,-589.36 688.72,-593.24"/>
<text text-anchor="start" x="647" y="-710.6" font-family="Arial" font-size="24.00" fill="#444444">classifies runs with</text>
</g>
<!-- 19&#45;&gt;7 -->
<g id="196" class="edge">
<title>19&#45;&gt;7</title>
<path fill="none" stroke="#444444" stroke-dasharray="5,2" d="M828.44,-938.3C857.8,-857.87 910.42,-750.05 995,-690.8 1139.57,-589.52 1627.45,-538.98 1912.35,-517.54"/>
<polygon fill="#444444" stroke="#444444" points="1912.69,-521.03 1922.4,-516.79 1912.17,-514.05 1912.69,-521.03"/>
<text text-anchor="start" x="995" y="-710.6" font-family="Arial" font-size="24.00" fill="#444444">reads the V&amp;V plan with</text>
</g>
<!-- 9&#45;&gt;28 -->
<g id="150" class="edge">
<title>9&#45;&gt;28</title>
<path fill="none" stroke="#444444" stroke-dasharray="5,2" d="M2253.73,-950.45C2297.09,-881.62 2366.97,-792.01 2456,-750.8 2474.02,-742.46 3151.21,-744.51 3171,-742.8 3623.88,-703.65 4148.2,-605.33 4430.82,-547.89"/>
<polygon fill="#444444" stroke="#444444" points="4431.67,-551.29 4440.77,-545.86 4430.28,-544.43 4431.67,-551.29"/>
<text text-anchor="start" x="3576" y="-723.6" font-family="Arial" font-size="24.00" fill="#444444">checks the views are fresh</text>
<text text-anchor="start" x="3697.5" y="-697.6" font-family="Arial" font-size="24.00" fill="#444444">with</text>
</g>
<!-- 9&#45;&gt;7 -->
<g id="187" class="edge">
<title>9&#45;&gt;7</title>
<path fill="none" stroke="#444444" stroke-dasharray="5,2" d="M2210.86,-950.53C2214.18,-879.24 2214.31,-777.75 2197,-690.8 2192.08,-666.11 2184.11,-640.48 2175.2,-616.4"/>
<polygon fill="#444444" stroke="#444444" points="2178.42,-615.01 2171.61,-606.9 2171.88,-617.49 2178.42,-615.01"/>
<text text-anchor="start" x="2204" y="-710.6" font-family="Arial" font-size="24.00" fill="#444444">reads the record with</text>
</g>
<!-- 9&#45;&gt;8 -->
<g id="220" class="edge">
<title>9&#45;&gt;8</title>
<path fill="none" stroke="#444444" stroke-dasharray="5,2" d="M2282.94,-950.55C2332.38,-892.5 2396.45,-814.8 2449,-742.8 2481.55,-698.2 2515.11,-646.96 2542.55,-603.43"/>
<polygon fill="#444444" stroke="#444444" points="2545.6,-605.16 2547.96,-594.83 2539.67,-601.44 2545.6,-605.16"/>
<text text-anchor="start" x="2484" y="-723.6" font-family="Arial" font-size="24.00" fill="#444444">finds the tagged tests</text>
<text text-anchor="start" x="2578" y="-697.6" font-family="Arial" font-size="24.00" fill="#444444">with</text>
</g>
<!-- 22&#45;&gt;8 -->
<g id="219" class="edge">
<title>22&#45;&gt;8</title>
<path fill="none" stroke="#444444" stroke-dasharray="5,2" d="M2988.36,-902.37C2946.45,-835.03 2891.65,-755.01 2833,-690.8 2804.19,-659.26 2769.86,-628.55 2736.61,-601.45"/>
<polygon fill="#444444" stroke="#444444" points="2738.62,-598.57 2728.64,-595 2734.22,-604.01 2738.62,-598.57"/>
<text text-anchor="start" x="2870" y="-723.6" font-family="Arial" font-size="24.00" fill="#444444">takes the label that names</text>
<text text-anchor="start" x="2908" y="-697.6" font-family="Arial" font-size="24.00" fill="#444444">a design input from</text>
</g>
<!-- 52 -->
<g id="52" class="node">
<title>52</title>
<polygon fill="#85bbf0" stroke="#5d82a8" points="463,-1744.4 83,-1744.4 83,-1465.4 463,-1465.4 463,-1744.4"/>
<text text-anchor="start" x="177" y="-1696.2" font-family="Arial" font-size="34.00" fill="#000000">Gates action</text>
<text text-anchor="start" x="150" y="-1674.2" font-family="Arial" font-size="19.00" fill="#000000">[Component: GitHub Actions]</text>
<text text-anchor="start" x="128" y="-1637.2" font-family="Arial" font-size="24.00" fill="#000000">The gates as steps: design</text>
<text text-anchor="start" x="154" y="-1613.2" font-family="Arial" font-size="24.00" fill="#000000">gate, verification data,</text>
<text text-anchor="start" x="168" y="-1589.2" font-family="Arial" font-size="24.00" fill="#000000">release gate, graph</text>
<text text-anchor="start" x="127" y="-1565.2" font-family="Arial" font-size="24.00" fill="#000000">validation, evidence bundle</text>
<text text-anchor="start" x="118.5" y="-1541.2" font-family="Arial" font-size="24.00" fill="#000000">(uploaded); each switchable;</text>
<text text-anchor="start" x="112" y="-1517.2" font-family="Arial" font-size="24.00" fill="#000000">inputs passed as environment</text>
<text text-anchor="start" x="224.5" y="-1493.2" font-family="Arial" font-size="24.00" fill="#000000">variables</text>
</g>
<!-- 52&#45;&gt;9 -->
<g id="228" class="edge">
<title>52&#45;&gt;9</title>
<path fill="none" stroke="#444444" stroke-dasharray="5,2" d="M350.39,-1465.26C397.07,-1395.96 463.34,-1318.36 545,-1277.6 580.29,-1259.99 1925.6,-1219.12 1963,-1206.6 2007.35,-1191.75 2051.12,-1166.29 2088.93,-1139.81"/>
<polygon fill="#444444" stroke="#444444" points="2091.28,-1142.44 2097.41,-1133.8 2087.23,-1136.73 2091.28,-1142.44"/>
<text text-anchor="start" x="1776" y="-1237.4" font-family="Arial" font-size="24.00" fill="#444444">runs the design gate of</text>
</g>
</g>
</svg>
