<?xml version="1.0" encoding="UTF-8" standalone="no"?>
<!-- rdm c4 draw: view C3_specification, workspace sha256:9b7b3feb97203e556673a9f7f3115c842117fb6007820b0c594661ddef40bef4 -->
<!DOCTYPE svg PUBLIC "-//W3C//DTD SVG 1.1//EN"
 "http://www.w3.org/Graphics/SVG/1.1/DTD/svg11.dtd">
<!-- Generated by graphviz version 2.43.0 (0)
 -->
<!-- Title: %3 Pages: 1 -->
<svg width="3860pt" height="2296pt"
 viewBox="0.00 0.00 3860.00 2296.20" xmlns="http://www.w3.org/2000/svg" xmlns:xlink="http://www.w3.org/1999/xlink">
<g id="graph0" class="graph" transform="scale(1 1) rotate(0) translate(4 2292.2)">
<title>%3</title>
<polygon fill="white" stroke="transparent" points="-4,4 -4,-2292.2 3856,-2292.2 3856,4 -4,4"/>
<text text-anchor="start" x="1634" y="-11.8" font-family="Arial" font-size="34.00">Design specification: components (C3)</text>
<g id="clust1" class="cluster">
<title>cluster_4</title>
<polygon fill="none" stroke="#444444" points="8,-64 8,-2280.2 3844,-2280.2 3844,-64 8,-64"/>
<text text-anchor="start" x="1898.5" y="-92.8" font-family="Arial" font-size="24.00" fill="#444444">RDM</text>
<text text-anchor="start" x="1849" y="-72.8" font-family="Arial" font-size="19.00" fill="#444444">[Software System]</text>
</g>
<g id="clust2" class="cluster">
<title>cluster_45</title>
<polygon fill="none" stroke="#cccccc" points="3415,-1524.4 3415,-1972.2 3819,-1972.2 3819,-1524.4 3415,-1524.4"/>
<text text-anchor="start" x="3532.5" y="-1553.2" font-family="Arial" font-size="24.00" fill="#cccccc">Reusable gates</text>
<text text-anchor="start" x="3502" y="-1533.2" font-family="Arial" font-size="19.00" fill="#cccccc">[Container: GitHub Actions]</text>
</g>
<g id="clust3" class="cluster">
<title>cluster_group_release</title>
<polygon fill="none" stroke="#cccccc" stroke-dasharray="5,2" points="3440,-1636.6 3440,-1947.2 3794,-1947.2 3794,-1636.6 3440,-1636.6"/>
<text text-anchor="start" x="3577" y="-1650.2" font-family="Arial" font-size="24.00" fill="#cccccc">release</text>
</g>
<g id="clust4" class="cluster">
<title>cluster_5</title>
<polygon fill="none" stroke="#444444" points="33,-164 33,-2255.2 3390,-2255.2 3390,-164 33,-164"/>
<text text-anchor="start" x="1690" y="-192.8" font-family="Arial" font-size="24.00" fill="#444444">rdm</text>
<text text-anchor="start" x="1630" y="-172.8" font-family="Arial" font-size="19.00" fill="#444444">[Container: Python]</text>
</g>
<g id="clust5" class="cluster">
<title>cluster_group_architecture</title>
<polygon fill="none" stroke="#cccccc" stroke-dasharray="5,2" points="2073,-729.8 2073,-1088.4 2493,-1088.4 2493,-729.8 2073,-729.8"/>
<text text-anchor="start" x="2219.5" y="-743.4" font-family="Arial" font-size="24.00" fill="#cccccc">architecture</text>
</g>
<g id="clust6" class="cluster">
<title>cluster_group_risk</title>
<polygon fill="none" stroke="#cccccc" stroke-dasharray="5,2" points="2518,-717.8 2518,-1100.4 2912,-1100.4 2912,-717.8 2518,-717.8"/>
<text text-anchor="start" x="2696" y="-731.4" font-family="Arial" font-size="24.00" fill="#cccccc">risk</text>
</g>
<g id="clust7" class="cluster">
<title>cluster_group_specification</title>
<polygon fill="none" stroke="#cccccc" stroke-dasharray="5,2" points="58,-276.2 58,-2230.2 2048,-2230.2 2048,-276.2 58,-276.2"/>
<text text-anchor="start" x="986.5" y="-289.8" font-family="Arial" font-size="24.00" fill="#cccccc">specification</text>
</g>
<g id="clust8" class="cluster">
<title>cluster_group_test_evidence</title>
<polygon fill="none" stroke="#cccccc" stroke-dasharray="5,2" points="2937,-705.8 2937,-1112.4 3365,-1112.4 3365,-705.8 2937,-705.8"/>
<text text-anchor="start" x="3076" y="-719.4" font-family="Arial" font-size="24.00" fill="#cccccc">test_evidence</text>
</g>
<!-- 47 -->
<g id="47" class="node">
<title>47</title>
<polygon fill="#85bbf0" stroke="#5d82a8" points="3769,-1922.2 3465,-1922.2 3465,-1787.2 3769,-1787.2 3769,-1922.2"/>
<text text-anchor="start" x="3521" y="-1874" font-family="Arial" font-size="34.00" fill="#000000">Gates action</text>
<text text-anchor="start" x="3494" y="-1852" font-family="Arial" font-size="19.00" fill="#000000">[Component: GitHub Actions]</text>
<text text-anchor="start" x="3514.5" y="-1815" font-family="Arial" font-size="24.00" fill="#000000">The gates as steps</text>
</g>
<!-- 8 -->
<g id="8" class="node">
<title>8</title>
<polygon fill="#85bbf0" stroke="#5d82a8" points="2023.5,-1428.4 1640.5,-1428.4 1640.5,-1211.4 2023.5,-1211.4 2023.5,-1428.4"/>
<text text-anchor="start" x="1685.5" y="-1380.2" font-family="Arial" font-size="34.00" fill="#000000">Design and release</text>
<text text-anchor="start" x="1790" y="-1346.2" font-family="Arial" font-size="34.00" fill="#000000">gates</text>
<text text-anchor="start" x="1743" y="-1324.2" font-family="Arial" font-size="19.00" fill="#000000">[Component: Python]</text>
<text text-anchor="start" x="1669.5" y="-1287.2" font-family="Arial" font-size="24.00" fill="#000000">Design gate and duplicate ids;</text>
<text text-anchor="start" x="1690.5" y="-1263.2" font-family="Arial" font-size="24.00" fill="#000000">the release gate and trace</text>
<text text-anchor="start" x="1693.5" y="-1239.2" font-family="Arial" font-size="24.00" fill="#000000">until they move to release</text>
</g>
<!-- 47&#45;&gt;8 -->
<g id="140" class="edge">
<title>47&#45;&gt;8</title>
<path fill="none" stroke="#444444" stroke-dasharray="5,2" d="M3464.81,-1808.27C3143.15,-1712.26 2394.23,-1488.72 2033.4,-1381.02"/>
<polygon fill="#444444" stroke="#444444" points="2034.22,-1377.61 2023.64,-1378.1 2032.22,-1384.31 2034.22,-1377.61"/>
<text text-anchor="start" x="2460" y="-1497.2" font-family="Arial" font-size="24.00" fill="#444444">runs the design gate and</text>
<text text-anchor="start" x="2493" y="-1471.2" font-family="Arial" font-size="24.00" fill="#444444">the release gate of</text>
</g>
<!-- 26 -->
<g id="26" class="node">
<title>26</title>
<polygon fill="#85bbf0" stroke="#5d82a8" points="2467.5,-1063.4 2098.5,-1063.4 2098.5,-880.4 2467.5,-880.4 2467.5,-1063.4"/>
<text text-anchor="start" x="2141" y="-1015.2" font-family="Arial" font-size="34.00" fill="#000000">Architecture model</text>
<text text-anchor="start" x="2194" y="-993.2" font-family="Arial" font-size="19.00" fill="#000000">[Component: Python]</text>
<text text-anchor="start" x="2127.5" y="-956.2" font-family="Arial" font-size="24.00" fill="#000000">The C4 model, read from the</text>
<text text-anchor="start" x="2149" y="-932.2" font-family="Arial" font-size="24.00" fill="#000000">workspace&#39;s export; view</text>
<text text-anchor="start" x="2230" y="-908.2" font-family="Arial" font-size="24.00" fill="#000000">freshness</text>
</g>
<!-- 25 -->
<g id="25" class="node">
<title>25</title>
<polygon fill="#85bbf0" stroke="#5d82a8" points="2887,-1075.4 2543,-1075.4 2543,-868.4 2887,-868.4 2887,-1075.4"/>
<text text-anchor="start" x="2620" y="-1027.2" font-family="Arial" font-size="34.00" fill="#000000">Risk register</text>
<text text-anchor="start" x="2626" y="-1005.2" font-family="Arial" font-size="19.00" fill="#000000">[Component: Python]</text>
<text text-anchor="start" x="2572" y="-968.2" font-family="Arial" font-size="24.00" fill="#000000">The risk register evaluated</text>
<text text-anchor="start" x="2583.5" y="-944.2" font-family="Arial" font-size="24.00" fill="#000000">against the declared risk</text>
<text text-anchor="start" x="2592.5" y="-920.2" font-family="Arial" font-size="24.00" fill="#000000">policy; the risk rules as</text>
<text text-anchor="start" x="2673" y="-896.2" font-family="Arial" font-size="24.00" fill="#000000">findings</text>
</g>
<!-- 6 -->
<g id="6" class="node">
<title>6</title>
<polygon fill="#85bbf0" stroke="#5d82a8" points="1586.5,-609.8 1221.5,-609.8 1221.5,-426.8 1586.5,-426.8 1586.5,-609.8"/>
<text text-anchor="start" x="1298" y="-561.6" font-family="Arial" font-size="34.00" fill="#000000">Record kernel</text>
<text text-anchor="start" x="1315" y="-539.6" font-family="Arial" font-size="19.00" fill="#000000">[Component: Python]</text>
<text text-anchor="start" x="1250.5" y="-502.6" font-family="Arial" font-size="24.00" fill="#000000">Design and V&amp;V frontmatter,</text>
<text text-anchor="start" x="1253" y="-478.6" font-family="Arial" font-size="24.00" fill="#000000">ids, git, the shared reconcile</text>
<text text-anchor="start" x="1364" y="-454.6" font-family="Arial" font-size="24.00" fill="#000000">helpers</text>
</g>
<!-- 25&#45;&gt;6 -->
<g id="98" class="edge">
<title>25&#45;&gt;6</title>
<path fill="none" stroke="#444444" stroke-dasharray="5,2" d="M2661.61,-868.38C2626.52,-811.39 2575.22,-744.38 2511,-705.8 2360.2,-615.22 1871.63,-559.65 1596.63,-534.76"/>
<polygon fill="#444444" stroke="#444444" points="1596.81,-531.26 1586.53,-533.85 1596.18,-538.23 1596.81,-531.26"/>
<text text-anchor="start" x="2482" y="-665.6" font-family="Arial" font-size="24.00" fill="#444444">reads frontmatter with</text>
</g>
<!-- 10 -->
<g id="10" class="node">
<title>10</title>
<polygon fill="#85bbf0" stroke="#5d82a8" points="1147.5,-1934.2 764.5,-1934.2 764.5,-1775.2 1147.5,-1775.2 1147.5,-1934.2"/>
<text text-anchor="start" x="827" y="-1886" font-family="Arial" font-size="34.00" fill="#000000">Pre&#45;commit hook</text>
<text text-anchor="start" x="876.5" y="-1864" font-family="Arial" font-size="19.00" fill="#000000">[Component: shell]</text>
<text text-anchor="start" x="793.5" y="-1827" font-family="Arial" font-size="24.00" fill="#000000">Runs the design gate before a</text>
<text text-anchor="start" x="916.5" y="-1803" font-family="Arial" font-size="24.00" fill="#000000">commit</text>
</g>
<!-- 10&#45;&gt;8 -->
<g id="81" class="edge">
<title>10&#45;&gt;8</title>
<path fill="none" stroke="#444444" stroke-dasharray="5,2" d="M991.58,-1774.87C1029.21,-1700.06 1095.39,-1589.65 1184,-1524.4 1315.3,-1427.71 1493.84,-1376.1 1630.27,-1349.08"/>
<polygon fill="#444444" stroke="#444444" points="1631.28,-1352.45 1640.43,-1347.09 1629.94,-1345.57 1631.28,-1352.45"/>
<text text-anchor="start" x="1277" y="-1484.2" font-family="Arial" font-size="24.00" fill="#444444">runs</text>
</g>
<!-- 11 -->
<g id="11" class="node">
<title>11</title>
<polygon fill="#85bbf0" stroke="#5d82a8" points="2023,-1039.4 1703,-1039.4 1703,-904.4 2023,-904.4 2023,-1039.4"/>
<text text-anchor="start" x="1732" y="-991.2" font-family="Arial" font-size="34.00" fill="#000000">New design input</text>
<text text-anchor="start" x="1774" y="-969.2" font-family="Arial" font-size="19.00" fill="#000000">[Component: Python]</text>
<text text-anchor="start" x="1756" y="-932.2" font-family="Arial" font-size="24.00" fill="#000000">rdm story new&#45;input</text>
</g>
<!-- 11&#45;&gt;6 -->
<g id="101" class="edge">
<title>11&#45;&gt;6</title>
<path fill="none" stroke="#444444" stroke-dasharray="5,2" d="M1816.24,-904.27C1775.37,-848.29 1712.73,-767.74 1649,-705.8 1616.66,-674.37 1579.02,-643.4 1543.1,-616"/>
<polygon fill="#444444" stroke="#444444" points="1545.06,-613.09 1534.98,-609.84 1540.83,-618.67 1545.06,-613.09"/>
<text text-anchor="start" x="1637" y="-678.6" font-family="Arial" font-size="24.00" fill="#444444">reads the design documents</text>
<text text-anchor="start" x="1768" y="-652.6" font-family="Arial" font-size="24.00" fill="#444444">with</text>
</g>
<!-- 21 -->
<g id="21" class="node">
<title>21</title>
<polygon fill="#85bbf0" stroke="#5d82a8" points="3339.5,-1087.4 2962.5,-1087.4 2962.5,-856.4 3339.5,-856.4 3339.5,-1087.4"/>
<text text-anchor="start" x="3054" y="-1039.2" font-family="Arial" font-size="34.00" fill="#000000">Allure reader</text>
<text text-anchor="start" x="3062" y="-1017.2" font-family="Arial" font-size="19.00" fill="#000000">[Component: Python]</text>
<text text-anchor="start" x="3008" y="-980.2" font-family="Arial" font-size="24.00" fill="#000000">Allure results into test runs</text>
<text text-anchor="start" x="2991.5" y="-956.2" font-family="Arial" font-size="24.00" fill="#000000">and a status per design input;</text>
<text text-anchor="start" x="2999" y="-932.2" font-family="Arial" font-size="24.00" fill="#000000">run labels and facts; the test</text>
<text text-anchor="start" x="3000.5" y="-908.2" font-family="Arial" font-size="24.00" fill="#000000">tags in test sources until the</text>
<text text-anchor="start" x="3129.5" y="-884.2" font-family="Arial" font-size="24.00" fill="#000000">split</text>
</g>
<!-- 11&#45;&gt;21 -->
<g id="127" class="edge">
<title>11&#45;&gt;21</title>
<path fill="none" stroke="#444444" stroke-dasharray="5,2" d="M1940.2,-1039.48C1973.57,-1065.64 2014.26,-1093.72 2055,-1112.4 2153.29,-1157.47 2184.57,-1155.1 2292,-1167.4 2433.38,-1183.59 2796.45,-1161.53 2930,-1112.4 2945.52,-1106.69 2961.08,-1099.77 2976.37,-1092.1"/>
<polygon fill="#444444" stroke="#444444" points="2978.04,-1095.17 2985.34,-1087.49 2974.85,-1088.95 2978.04,-1095.17"/>
<text text-anchor="start" x="2292" y="-1156.2" font-family="Arial" font-size="24.00" fill="#444444">finds the test suite (tag</text>
<text text-anchor="start" x="2336.5" y="-1130.2" font-family="Arial" font-size="24.00" fill="#444444">scanning) with</text>
</g>
<!-- 12 -->
<g id="12" class="node">
<title>12</title>
<polygon fill="#85bbf0" stroke="#5d82a8" points="1738.5,-2205.2 1447.5,-2205.2 1447.5,-2070.2 1738.5,-2070.2 1738.5,-2205.2"/>
<text text-anchor="start" x="1476.5" y="-2157" font-family="Arial" font-size="34.00" fill="#000000">Project scaffold</text>
<text text-anchor="start" x="1504" y="-2135" font-family="Arial" font-size="19.00" fill="#000000">[Component: Python]</text>
<text text-anchor="start" x="1553" y="-2098" font-family="Arial" font-size="24.00" fill="#000000">rdm init</text>
</g>
<!-- 13 -->
<g id="13" class="node">
<title>13</title>
<polygon fill="#85bbf0" stroke="#5d82a8" points="2023.5,-1922.2 1642.5,-1922.2 1642.5,-1787.2 2023.5,-1787.2 2023.5,-1922.2"/>
<text text-anchor="start" x="1701" y="-1874" font-family="Arial" font-size="34.00" fill="#000000">Project templates</text>
<text text-anchor="start" x="1671.5" y="-1852" font-family="Arial" font-size="19.00" fill="#000000">[Component: Markdown, YAML, Typst]</text>
<text text-anchor="start" x="1704.5" y="-1815" font-family="Arial" font-size="24.00" fill="#000000">What rdm init lays down</text>
</g>
<!-- 12&#45;&gt;13 -->
<g id="99" class="edge">
<title>12&#45;&gt;13</title>
<path fill="none" stroke="#444444" stroke-dasharray="5,2" d="M1698.1,-2069.95C1711.7,-2058.92 1724.78,-2046.91 1736,-2034.2 1762.57,-2004.11 1784.68,-1965.5 1801.05,-1931.89"/>
<polygon fill="#444444" stroke="#444444" points="1804.36,-1933.09 1805.52,-1922.55 1798.05,-1930.07 1804.36,-1933.09"/>
<text text-anchor="start" x="1772" y="-2002" font-family="Arial" font-size="24.00" fill="#444444">copies</text>
</g>
<!-- 15 -->
<g id="15" class="node">
<title>15</title>
<polygon fill="#85bbf0" stroke="#5d82a8" points="1570,-1922.2 1220,-1922.2 1220,-1787.2 1570,-1787.2 1570,-1922.2"/>
<text text-anchor="start" x="1249" y="-1874" font-family="Arial" font-size="34.00" fill="#000000">Adoption templates</text>
<text text-anchor="start" x="1261.5" y="-1852" font-family="Arial" font-size="19.00" fill="#000000">[Component: Markdown, YAML]</text>
<text text-anchor="start" x="1251.5" y="-1815" font-family="Arial" font-size="24.00" fill="#000000">What rdm adopt lays down</text>
</g>
<!-- 12&#45;&gt;15 -->
<g id="152" class="edge">
<title>12&#45;&gt;15</title>
<path fill="none" stroke="#444444" stroke-dasharray="5,2" d="M1476.39,-2070.02C1463.86,-2059.28 1452.31,-2047.32 1443,-2034.2 1421.97,-2004.55 1410.15,-1966.19 1403.51,-1932.63"/>
<polygon fill="#444444" stroke="#444444" points="1406.87,-1931.58 1401.61,-1922.39 1399.99,-1932.86 1406.87,-1931.58"/>
<text text-anchor="start" x="1443" y="-2015" font-family="Arial" font-size="24.00" fill="#444444">copies the agent workflow</text>
<text text-anchor="start" x="1510.5" y="-1989" font-family="Arial" font-size="24.00" fill="#444444">runbook from</text>
</g>
<!-- 14 -->
<g id="14" class="node">
<title>14</title>
<polygon fill="#85bbf0" stroke="#5d82a8" points="1171,-2205.2 935,-2205.2 935,-2070.2 1171,-2070.2 1171,-2205.2"/>
<text text-anchor="start" x="986" y="-2157" font-family="Arial" font-size="34.00" fill="#000000">Adoption</text>
<text text-anchor="start" x="964" y="-2135" font-family="Arial" font-size="19.00" fill="#000000">[Component: Python]</text>
<text text-anchor="start" x="998" y="-2098" font-family="Arial" font-size="24.00" fill="#000000">rdm adopt</text>
</g>
<!-- 14&#45;&gt;10 -->
<g id="153" class="edge">
<title>14&#45;&gt;10</title>
<path fill="none" stroke="#444444" stroke-dasharray="5,2" d="M1030.01,-2070.11C1016.99,-2032.39 1000.55,-1984.75 986.47,-1943.96"/>
<polygon fill="#444444" stroke="#444444" points="989.7,-1942.6 983.13,-1934.29 983.08,-1944.88 989.7,-1942.6"/>
<text text-anchor="start" x="1016" y="-2002" font-family="Arial" font-size="24.00" fill="#444444">copies</text>
</g>
<!-- 14&#45;&gt;15 -->
<g id="100" class="edge">
<title>14&#45;&gt;15</title>
<path fill="none" stroke="#444444" stroke-dasharray="5,2" d="M1134.05,-2070.11C1185.82,-2027.57 1252.98,-1972.39 1306.19,-1928.67"/>
<polygon fill="#444444" stroke="#444444" points="1308.44,-1931.35 1313.94,-1922.3 1303.99,-1925.95 1308.44,-1931.35"/>
<text text-anchor="start" x="1234" y="-2002" font-family="Arial" font-size="24.00" fill="#444444">copies</text>
</g>
<!-- 16 -->
<g id="16" class="node">
<title>16</title>
<polygon fill="#85bbf0" stroke="#5d82a8" points="1259.5,-1051.4 900.5,-1051.4 900.5,-892.4 1259.5,-892.4 1259.5,-1051.4"/>
<text text-anchor="start" x="945" y="-1003.2" font-family="Arial" font-size="34.00" fill="#000000">Validation records</text>
<text text-anchor="start" x="991" y="-981.2" font-family="Arial" font-size="19.00" fill="#000000">[Component: Python]</text>
<text text-anchor="start" x="929.5" y="-944.2" font-family="Arial" font-size="24.00" fill="#000000">Approved validation records</text>
<text text-anchor="start" x="1004.5" y="-920.2" font-family="Arial" font-size="24.00" fill="#000000">per user need</text>
</g>
<!-- 16&#45;&gt;6 -->
<g id="106" class="edge">
<title>16&#45;&gt;6</title>
<path fill="none" stroke="#444444" stroke-dasharray="5,2" d="M1080.9,-892.06C1085.56,-820.81 1102.44,-716.56 1158,-645.8 1173.25,-626.38 1192.3,-609.65 1213.01,-595.33"/>
<polygon fill="#444444" stroke="#444444" points="1214.98,-598.22 1221.34,-589.75 1211.08,-592.4 1214.98,-598.22"/>
<text text-anchor="start" x="1158" y="-665.6" font-family="Arial" font-size="24.00" fill="#444444">reads the record with</text>
</g>
<!-- 17 -->
<g id="17" class="node">
<title>17</title>
<polygon fill="#85bbf0" stroke="#5d82a8" points="425.5,-1051.4 82.5,-1051.4 82.5,-892.4 425.5,-892.4 425.5,-1051.4"/>
<text text-anchor="start" x="111.5" y="-1003.2" font-family="Arial" font-size="34.00" fill="#000000">Formative usability</text>
<text text-anchor="start" x="165" y="-981.2" font-family="Arial" font-size="19.00" fill="#000000">[Component: Python]</text>
<text text-anchor="start" x="112.5" y="-944.2" font-family="Arial" font-size="24.00" fill="#000000">Persona runs as formative</text>
<text text-anchor="start" x="205.5" y="-920.2" font-family="Arial" font-size="24.00" fill="#000000">evidence</text>
</g>
<!-- 17&#45;&gt;6 -->
<g id="103" class="edge">
<title>17&#45;&gt;6</title>
<path fill="none" stroke="#444444" stroke-dasharray="5,2" d="M264.02,-892.31C278.12,-816.51 311.44,-704.84 389,-645.8 514.32,-550.41 953.28,-526.48 1211.07,-520.77"/>
<polygon fill="#444444" stroke="#444444" points="1211.38,-524.27 1221.3,-520.56 1211.23,-517.27 1211.38,-524.27"/>
<text text-anchor="start" x="389" y="-665.6" font-family="Arial" font-size="24.00" fill="#444444">loads runs with</text>
</g>
<!-- 18 -->
<g id="18" class="node">
<title>18</title>
<polygon fill="#85bbf0" stroke="#5d82a8" points="585,-1387.4 241,-1387.4 241,-1252.4 585,-1252.4 585,-1387.4"/>
<text text-anchor="start" x="270" y="-1339.2" font-family="Arial" font-size="34.00" fill="#000000">Persona command</text>
<text text-anchor="start" x="324" y="-1317.2" font-family="Arial" font-size="19.00" fill="#000000">[Component: Python]</text>
<text text-anchor="start" x="315" y="-1280.2" font-family="Arial" font-size="24.00" fill="#000000">rdm story persona</text>
</g>
<!-- 18&#45;&gt;17 -->
<g id="104" class="edge">
<title>18&#45;&gt;17</title>
<path fill="none" stroke="#444444" stroke-dasharray="5,2" d="M382.34,-1252.19C357.33,-1197.76 321.79,-1120.41 294.44,-1060.91"/>
<polygon fill="#444444" stroke="#444444" points="297.49,-1059.15 290.13,-1051.52 291.12,-1062.07 297.49,-1059.15"/>
<text text-anchor="start" x="343" y="-1143.2" font-family="Arial" font-size="24.00" fill="#444444">classifies runs with</text>
</g>
<!-- 18&#45;&gt;6 -->
<g id="105" class="edge">
<title>18&#45;&gt;6</title>
<path fill="none" stroke="#444444" stroke-dasharray="5,2" d="M503.39,-1252.24C526.65,-1230.42 549.03,-1204.28 563,-1175.4 654.27,-986.69 469.22,-863.79 607,-705.8 685.11,-616.23 1001.38,-564.09 1211.25,-538.71"/>
<polygon fill="#444444" stroke="#444444" points="1211.96,-542.15 1221.48,-537.48 1211.13,-535.19 1211.96,-542.15"/>
<text text-anchor="start" x="607" y="-965.7" font-family="Arial" font-size="24.00" fill="#444444">reads the V&amp;V plan with</text>
</g>
<!-- 7 -->
<g id="7" class="node">
<title>7</title>
<polygon fill="#85bbf0" stroke="#5d82a8" points="692.5,-1946.2 327.5,-1946.2 327.5,-1763.2 692.5,-1763.2 692.5,-1946.2"/>
<text text-anchor="start" x="454.5" y="-1898" font-family="Arial" font-size="34.00" fill="#000000">Utilities</text>
<text text-anchor="start" x="421" y="-1876" font-family="Arial" font-size="19.00" fill="#000000">[Component: Python]</text>
<text text-anchor="start" x="356.5" y="-1839" font-family="Arial" font-size="24.00" fill="#000000">Shared YAML, message and</text>
<text text-anchor="start" x="364" y="-1815" font-family="Arial" font-size="24.00" fill="#000000">repository&#45;root helpers (the</text>
<text text-anchor="start" x="432" y="-1791" font-family="Arial" font-size="24.00" fill="#000000">shared kernel)</text>
</g>
<!-- 8&#45;&gt;26 -->
<g id="126" class="edge">
<title>8&#45;&gt;26</title>
<path fill="none" stroke="#444444" stroke-dasharray="5,2" d="M1894.88,-1211.27C1919.68,-1177.92 1951.14,-1144.44 1988,-1123.4 2018.4,-1106.04 2033.18,-1124.59 2066,-1112.4 2095.87,-1101.3 2125.89,-1085.6 2153.68,-1068.71"/>
<polygon fill="#444444" stroke="#444444" points="2155.56,-1071.66 2162.23,-1063.43 2151.88,-1065.71 2155.56,-1071.66"/>
<text text-anchor="start" x="1988" y="-1156.2" font-family="Arial" font-size="24.00" fill="#444444">checks the views are fresh</text>
<text text-anchor="start" x="2109.5" y="-1130.2" font-family="Arial" font-size="24.00" fill="#444444">with</text>
</g>
<!-- 8&#45;&gt;25 -->
<g id="77" class="edge">
<title>8&#45;&gt;25</title>
<path fill="none" stroke="#444444" stroke-dasharray="5,2" d="M2023.62,-1295.95C2206.5,-1271.38 2466.71,-1228.63 2554,-1175.4 2591.27,-1152.67 2623.46,-1118 2649.04,-1083.74"/>
<polygon fill="#444444" stroke="#444444" points="2651.98,-1085.65 2655.06,-1075.52 2646.33,-1081.52 2651.98,-1085.65"/>
<text text-anchor="start" x="2613" y="-1156.2" font-family="Arial" font-size="24.00" fill="#444444">reports the risk findings</text>
<text text-anchor="start" x="2728" y="-1130.2" font-family="Arial" font-size="24.00" fill="#444444">of</text>
</g>
<!-- 8&#45;&gt;16 -->
<g id="78" class="edge">
<title>8&#45;&gt;16</title>
<path fill="none" stroke="#444444" stroke-dasharray="5,2" d="M1640.43,-1303.03C1457.31,-1283.9 1198.78,-1245.25 1127,-1175.4 1096.84,-1146.05 1084.4,-1101.42 1079.8,-1061.52"/>
<polygon fill="#444444" stroke="#444444" points="1083.28,-1061.09 1078.79,-1051.49 1076.31,-1061.79 1083.28,-1061.09"/>
<text text-anchor="start" x="1127" y="-1156.2" font-family="Arial" font-size="24.00" fill="#444444">reads validation records</text>
<text text-anchor="start" x="1234.5" y="-1130.2" font-family="Arial" font-size="24.00" fill="#444444">with</text>
</g>
<!-- 8&#45;&gt;6 -->
<g id="76" class="edge">
<title>8&#45;&gt;6</title>
<path fill="none" stroke="#444444" stroke-dasharray="5,2" d="M1640.48,-1263.7C1565.26,-1231.94 1486.05,-1183.73 1440,-1112.4 1414.04,-1072.2 1406.8,-778.69 1404.78,-620.19"/>
<polygon fill="#444444" stroke="#444444" points="1408.28,-619.91 1404.66,-609.95 1401.28,-619.99 1408.28,-619.91"/>
<text text-anchor="start" x="1440" y="-965.7" font-family="Arial" font-size="24.00" fill="#444444">reads the record with</text>
</g>
<!-- 8&#45;&gt;21 -->
<g id="125" class="edge">
<title>8&#45;&gt;21</title>
<path fill="none" stroke="#444444" stroke-dasharray="5,2" d="M2023.68,-1304.35C2283.04,-1282.67 2730.74,-1237.67 2882,-1175.4 2930.01,-1155.63 2977.1,-1125.2 3018.11,-1093.89"/>
<polygon fill="#444444" stroke="#444444" points="3020.46,-1096.5 3026.23,-1087.62 3016.18,-1090.96 3020.46,-1096.5"/>
<text text-anchor="start" x="2970" y="-1156.2" font-family="Arial" font-size="24.00" fill="#444444">finds tagged tests and</text>
<text text-anchor="start" x="2970.5" y="-1130.2" font-family="Arial" font-size="24.00" fill="#444444">reconciles results with</text>
</g>
<!-- 9 -->
<g id="9" class="node">
<title>9</title>
<polygon fill="#85bbf0" stroke="#5d82a8" points="749,-2205.2 467,-2205.2 467,-2070.2 749,-2070.2 749,-2205.2"/>
<text text-anchor="start" x="496" y="-2157" font-family="Arial" font-size="34.00" fill="#000000">Hooks installer</text>
<text text-anchor="start" x="519" y="-2135" font-family="Arial" font-size="19.00" fill="#000000">[Component: Python]</text>
<text text-anchor="start" x="551" y="-2098" font-family="Arial" font-size="24.00" fill="#000000">rdm hooks</text>
</g>
<!-- 9&#45;&gt;10 -->
<g id="79" class="edge">
<title>9&#45;&gt;10</title>
<path fill="none" stroke="#444444" stroke-dasharray="5,2" d="M690.47,-2070.11C738.46,-2031.36 799.43,-1982.13 850.84,-1940.62"/>
<polygon fill="#444444" stroke="#444444" points="853.09,-1943.29 858.68,-1934.29 848.7,-1937.85 853.09,-1943.29"/>
<text text-anchor="start" x="792" y="-2002" font-family="Arial" font-size="24.00" fill="#444444">installs</text>
</g>
<!-- 9&#45;&gt;7 -->
<g id="80" class="edge">
<title>9&#45;&gt;7</title>
<path fill="none" stroke="#444444" stroke-dasharray="5,2" d="M584.78,-2070.11C572.88,-2035.99 558.15,-1993.76 544.91,-1955.81"/>
<polygon fill="#444444" stroke="#444444" points="548.18,-1954.56 541.59,-1946.27 541.57,-1956.86 548.18,-1954.56"/>
<text text-anchor="start" x="570" y="-2002" font-family="Arial" font-size="24.00" fill="#444444">uses</text>
</g>
<!-- 21&#45;&gt;6 -->
<g id="123" class="edge">
<title>21&#45;&gt;6</title>
<path fill="none" stroke="#444444" stroke-dasharray="5,2" d="M3078.4,-856.33C3039.98,-803.85 2988.61,-744.81 2930,-705.8 2854.51,-655.56 2823.93,-663.51 2735,-645.8 2335.13,-566.15 1857.37,-536.24 1596.86,-525.32"/>
<polygon fill="#444444" stroke="#444444" points="1596.68,-521.81 1586.54,-524.89 1596.39,-528.81 1596.68,-521.81"/>
<text text-anchor="start" x="2916" y="-678.6" font-family="Arial" font-size="24.00" fill="#444444">finds the repository and</text>
<text text-anchor="start" x="2961" y="-652.6" font-family="Arial" font-size="24.00" fill="#444444">checks ids with</text>
</g>
</g>
</svg>
