<?xml version="1.0" encoding="UTF-8" standalone="no"?>
<!-- rdm c4 draw: view C3_test_evidence, workspace sha256:20b5ae7b011ede3fee3c122361ad5a031cfd45339e88d84b2a8c71d84c3364d6 -->
<!DOCTYPE svg PUBLIC "-//W3C//DTD SVG 1.1//EN"
 "http://www.w3.org/Graphics/SVG/1.1/DTD/svg11.dtd">
<!-- Generated by graphviz version 2.43.0 (0)
 -->
<!-- Title: %3 Pages: 1 -->
<svg width="2823pt" height="2052pt"
 viewBox="0.00 0.00 2823.00 2052.40" xmlns="http://www.w3.org/2000/svg" xmlns:xlink="http://www.w3.org/1999/xlink">
<g id="graph0" class="graph" transform="scale(1 1) rotate(0) translate(4 2048.4)">
<title>%3</title>
<polygon fill="white" stroke="transparent" points="-4,4 -4,-2048.4 2819,-2048.4 2819,4 -4,4"/>
<text text-anchor="start" x="1162.5" y="-11.8" font-family="Arial" font-size="34.00">Test evidence: components (C3)</text>
<g id="clust1" class="cluster">
<title>cluster_4</title>
<polygon fill="none" stroke="#444444" points="8,-64 8,-2036.4 2744,-2036.4 2744,-64 8,-64"/>
<text text-anchor="start" x="1348.5" y="-92.8" font-family="Arial" font-size="24.00" fill="#444444">RDM</text>
<text text-anchor="start" x="1299" y="-72.8" font-family="Arial" font-size="19.00" fill="#444444">[Software System]</text>
</g>
<g id="clust2" class="cluster">
<title>cluster_45</title>
<polygon fill="none" stroke="#cccccc" points="2176,-1566.6 2176,-2011.4 2668,-2011.4 2668,-1566.6 2176,-1566.6"/>
<text text-anchor="start" x="2315" y="-1595.4" font-family="Arial" font-size="24.00" fill="#cccccc">Acceptance test run</text>
<text text-anchor="start" x="2288" y="-1575.4" font-family="Arial" font-size="19.00" fill="#cccccc">[Container: pytest, allure&#45;pytest]</text>
</g>
<g id="clust3" class="cluster">
<title>cluster_group_test_evidence</title>
<polygon fill="none" stroke="#cccccc" stroke-dasharray="5,2" points="2201,-1666.6 2201,-1986.4 2643,-1986.4 2643,-1666.6 2201,-1666.6"/>
<text text-anchor="start" x="2347" y="-1680.2" font-family="Arial" font-size="24.00" fill="#cccccc">test_evidence</text>
</g>
<g id="clust4" class="cluster">
<title>cluster_5</title>
<polygon fill="none" stroke="#444444" points="33,-164 33,-1498.6 2344,-1498.6 2344,-164 33,-164"/>
<text text-anchor="start" x="1167" y="-192.8" font-family="Arial" font-size="24.00" fill="#444444">rdm</text>
<text text-anchor="start" x="1107" y="-172.8" font-family="Arial" font-size="19.00" fill="#444444">[Container: Python]</text>
</g>
<g id="clust10" class="cluster">
<title>cluster_group_test_evidence</title>
<polygon fill="none" stroke="#cccccc" stroke-dasharray="5,2" points="58,-288 58,-962.8 1358,-962.8 1358,-288 58,-288"/>
<text text-anchor="start" x="633" y="-301.6" font-family="Arial" font-size="24.00" fill="#cccccc">test_evidence</text>
</g>
<g id="clust5" class="cluster">
<title>cluster_group_graph</title>
<polygon fill="none" stroke="#cccccc" stroke-dasharray="5,2" points="1843,-1057.8 1843,-1449.6 2303,-1449.6 2303,-1057.8 1843,-1057.8"/>
<text text-anchor="start" x="2041.5" y="-1071.4" font-family="Arial" font-size="24.00" fill="#cccccc">graph</text>
</g>
<g id="clust6" class="cluster">
<title>cluster_group_publishing</title>
<polygon fill="none" stroke="#cccccc" stroke-dasharray="5,2" points="1386,-1105.8 1386,-1401.6 1818,-1401.6 1818,-1105.8 1386,-1105.8"/>
<text text-anchor="start" x="1547.5" y="-1119.4" font-family="Arial" font-size="24.00" fill="#cccccc">publishing</text>
</g>
<g id="clust7" class="cluster">
<title>cluster_group_release</title>
<polygon fill="none" stroke="#cccccc" stroke-dasharray="5,2" points="477,-1033.8 477,-1473.6 1361,-1473.6 1361,-1033.8 477,-1033.8"/>
<text text-anchor="start" x="879" y="-1047.4" font-family="Arial" font-size="24.00" fill="#cccccc">release</text>
</g>
<g id="clust8" class="cluster">
<title>cluster_group_risk</title>
<polygon fill="none" stroke="#cccccc" stroke-dasharray="5,2" points="58,-1045.8 58,-1461.6 452,-1461.6 452,-1045.8 58,-1045.8"/>
<text text-anchor="start" x="236" y="-1059.4" font-family="Arial" font-size="24.00" fill="#cccccc">risk</text>
</g>
<g id="clust9" class="cluster">
<title>cluster_group_specification</title>
<polygon fill="none" stroke="#cccccc" stroke-dasharray="5,2" points="1383,-264 1383,-583.8 2319,-583.8 2319,-264 1383,-264"/>
<text text-anchor="start" x="1784.5" y="-277.6" font-family="Arial" font-size="24.00" fill="#cccccc">specification</text>
</g>
<!-- 46 -->
<g id="46" class="node">
<title>46</title>
<polygon fill="#85bbf0" stroke="#5d82a8" points="2618,-1961.4 2226,-1961.4 2226,-1754.4 2618,-1754.4 2618,-1961.4"/>
<text text-anchor="start" x="2326" y="-1913.2" font-family="Arial" font-size="34.00" fill="#000000">pytest plugin</text>
<text text-anchor="start" x="2302" y="-1891.2" font-family="Arial" font-size="19.00" fill="#000000">[Component: Python, pytest]</text>
<text text-anchor="start" x="2287.5" y="-1854.2" font-family="Arial" font-size="24.00" fill="#000000">Labels each run from the</text>
<text text-anchor="start" x="2261" y="-1830.2" font-family="Arial" font-size="24.00" fill="#000000">record; the run&#39;s executor and</text>
<text text-anchor="start" x="2255" y="-1806.2" font-family="Arial" font-size="24.00" fill="#000000">environment, written only when</text>
<text text-anchor="start" x="2276.5" y="-1782.2" font-family="Arial" font-size="24.00" fill="#000000">the run writes Allure results</text>
</g>
<!-- 26 -->
<g id="26" class="node">
<title>26</title>
<polygon fill="#85bbf0" stroke="#5d82a8" points="427,-1436.6 83,-1436.6 83,-1133.6 427,-1133.6 427,-1436.6"/>
<text text-anchor="start" x="160" y="-1388.4" font-family="Arial" font-size="34.00" fill="#000000">Risk register</text>
<text text-anchor="start" x="166" y="-1366.4" font-family="Arial" font-size="19.00" fill="#000000">[Component: Python]</text>
<text text-anchor="start" x="112" y="-1329.4" font-family="Arial" font-size="24.00" fill="#000000">The risk register evaluated</text>
<text text-anchor="start" x="123.5" y="-1305.4" font-family="Arial" font-size="24.00" fill="#000000">against the declared risk</text>
<text text-anchor="start" x="132.5" y="-1281.4" font-family="Arial" font-size="24.00" fill="#000000">policy; the risk rules as</text>
<text text-anchor="start" x="114" y="-1257.4" font-family="Arial" font-size="24.00" fill="#000000">findings, written only here;</text>
<text text-anchor="start" x="120.5" y="-1233.4" font-family="Arial" font-size="24.00" fill="#000000">handed the declared and</text>
<text text-anchor="start" x="115.5" y="-1209.4" font-family="Arial" font-size="24.00" fill="#000000">verified design input ids, it</text>
<text text-anchor="start" x="147.5" y="-1185.4" font-family="Arial" font-size="24.00" fill="#000000">reads nothing of the</text>
<text text-anchor="start" x="188.5" y="-1161.4" font-family="Arial" font-size="24.00" fill="#000000">specification</text>
</g>
<!-- 46&#45;&gt;26 -->
<g id="100" class="edge">
<title>46&#45;&gt;26</title>
<path fill="none" stroke="#444444" stroke-dasharray="5,2" d="M2225.92,-1836.6C1791.91,-1789.2 764.34,-1662.71 459,-1498.6 432.07,-1484.13 406.59,-1464.82 383.36,-1443.74"/>
<polygon fill="#444444" stroke="#444444" points="385.61,-1441.06 375.9,-1436.83 380.86,-1446.19 385.61,-1441.06"/>
<text text-anchor="start" x="606" y="-1539.4" font-family="Arial" font-size="24.00" fill="#444444">finds the risks each</text>
<text text-anchor="start" x="574" y="-1513.4" font-family="Arial" font-size="24.00" fill="#444444">design input controls with</text>
</g>
<!-- 7 -->
<g id="7" class="node">
<title>7</title>
<polygon fill="#85bbf0" stroke="#5d82a8" points="2293.5,-558.8 1890.5,-558.8 1890.5,-351.8 2293.5,-351.8 2293.5,-558.8"/>
<text text-anchor="start" x="1983.5" y="-510.6" font-family="Arial" font-size="34.00" fill="#000000">Record reader</text>
<text text-anchor="start" x="2003" y="-488.6" font-family="Arial" font-size="19.00" fill="#000000">[Component: Python]</text>
<text text-anchor="start" x="1948.5" y="-451.6" font-family="Arial" font-size="24.00" fill="#000000">User needs, design inputs,</text>
<text text-anchor="start" x="1954.5" y="-427.6" font-family="Arial" font-size="24.00" fill="#000000">realises and declarations,</text>
<text text-anchor="start" x="1919.5" y="-403.6" font-family="Arial" font-size="24.00" fill="#000000">from the design documents&#39; and</text>
<text text-anchor="start" x="1971.5" y="-379.6" font-family="Arial" font-size="24.00" fill="#000000">V&amp;V plan&#39;s frontmatter</text>
</g>
<!-- 46&#45;&gt;7 -->
<g id="150" class="edge">
<title>46&#45;&gt;7</title>
<path fill="none" stroke="#444444" stroke-dasharray="5,2" d="M2534.16,-1754.21C2597.63,-1688.22 2670.93,-1596.69 2705,-1498.6 2772.77,-1303.46 2846,-1184.77 2705,-1033.8 2687.21,-1014.75 2611.34,-1037.4 2588,-1025.8 2386.08,-925.44 2231.62,-702.92 2151.97,-567.65"/>
<polygon fill="#444444" stroke="#444444" points="2154.9,-565.73 2146.83,-558.87 2148.86,-569.27 2154.9,-565.73"/>
<text text-anchor="start" x="2588" y="-993.6" font-family="Arial" font-size="24.00" fill="#444444">reads the record with</text>
</g>
<!-- 22 -->
<g id="22" class="node">
<title>22</title>
<polygon fill="#85bbf0" stroke="#5d82a8" points="1333,-937.8 963,-937.8 963,-682.8 1333,-682.8 1333,-937.8"/>
<text text-anchor="start" x="1051" y="-889.6" font-family="Arial" font-size="34.00" fill="#000000">Allure reader</text>
<text text-anchor="start" x="1059" y="-867.6" font-family="Arial" font-size="19.00" fill="#000000">[Component: Python]</text>
<text text-anchor="start" x="1005" y="-830.6" font-family="Arial" font-size="24.00" fill="#000000">Allure results into test runs</text>
<text text-anchor="start" x="992" y="-806.6" font-family="Arial" font-size="24.00" fill="#000000">and a status per design input</text>
<text text-anchor="start" x="1014.5" y="-782.6" font-family="Arial" font-size="24.00" fill="#000000">(failed, else verified, else</text>
<text text-anchor="start" x="995.5" y="-758.6" font-family="Arial" font-size="24.00" fill="#000000">untested; undeclared stories</text>
<text text-anchor="start" x="1000.5" y="-734.6" font-family="Arial" font-size="24.00" fill="#000000">as orphans); run labels and</text>
<text text-anchor="start" x="1122" y="-710.6" font-family="Arial" font-size="24.00" fill="#000000">facts</text>
</g>
<!-- 46&#45;&gt;22 -->
<g id="108" class="edge">
<title>46&#45;&gt;22</title>
<path fill="none" stroke="#444444" stroke-dasharray="5,2" d="M2442.94,-1754.18C2471.55,-1582.11 2500.69,-1234.76 2321,-1033.8 2193.78,-891.52 1642.58,-838.8 1343.23,-820.42"/>
<polygon fill="#444444" stroke="#444444" points="1343.32,-816.92 1333.13,-819.81 1342.9,-823.91 1343.32,-816.92"/>
<text text-anchor="start" x="2464" y="-1291.9" font-family="Arial" font-size="24.00" fill="#444444">writes run labels and</text>
<text text-anchor="start" x="2525" y="-1265.9" font-family="Arial" font-size="24.00" fill="#444444">facts with</text>
</g>
<!-- 39 -->
<g id="39" class="node">
<title>39</title>
<polygon fill="#85bbf0" stroke="#5d82a8" points="2278,-1424.6 1868,-1424.6 1868,-1145.6 2278,-1145.6 2278,-1424.6"/>
<text text-anchor="start" x="1997.5" y="-1376.4" font-family="Arial" font-size="34.00" fill="#000000">Projection</text>
<text text-anchor="start" x="1932" y="-1354.4" font-family="Arial" font-size="19.00" fill="#000000">[Component: Python, pyoxigraph]</text>
<text text-anchor="start" x="1897" y="-1317.4" font-family="Arial" font-size="24.00" fill="#000000">The record into RDF, one named</text>
<text text-anchor="start" x="1977.5" y="-1293.4" font-family="Arial" font-size="24.00" fill="#000000">graph per source,</text>
<text text-anchor="start" x="1936" y="-1269.4" font-family="Arial" font-size="24.00" fill="#000000">de&#45;duplicated and sorted;</text>
<text text-anchor="start" x="1930" y="-1245.4" font-family="Arial" font-size="24.00" fill="#000000">replaces the store on each</text>
<text text-anchor="start" x="1916.5" y="-1221.4" font-family="Arial" font-size="24.00" fill="#000000">build; rdm graph build, query,</text>
<text text-anchor="start" x="1957" y="-1197.4" font-family="Arial" font-size="24.00" fill="#000000">serve (read&#45;only) and</text>
<text text-anchor="start" x="2009.5" y="-1173.4" font-family="Arial" font-size="24.00" fill="#000000">explorer&#45;file</text>
</g>
<!-- 39&#45;&gt;22 -->
<g id="106" class="edge">
<title>39&#45;&gt;22</title>
<path fill="none" stroke="#444444" stroke-dasharray="5,2" d="M1964.66,-1145.34C1927.46,-1104.87 1883.2,-1063.57 1836,-1033.8 1684.2,-938.05 1487.38,-879.85 1343.16,-847.13"/>
<polygon fill="#444444" stroke="#444444" points="1343.83,-843.69 1333.31,-844.91 1342.3,-850.52 1343.83,-843.69"/>
<text text-anchor="start" x="1819" y="-1006.6" font-family="Arial" font-size="24.00" fill="#444444">reads results and test</text>
<text text-anchor="start" x="1887" y="-980.6" font-family="Arial" font-size="24.00" fill="#444444">tags with</text>
</g>
<!-- 37 -->
<g id="37" class="node">
<title>37</title>
<polygon fill="#85bbf0" stroke="#5d82a8" points="1793.5,-1376.6 1410.5,-1376.6 1410.5,-1193.6 1793.5,-1193.6 1793.5,-1376.6"/>
<text text-anchor="start" x="1469.5" y="-1328.4" font-family="Arial" font-size="34.00" fill="#000000">Verification report</text>
<text text-anchor="start" x="1513" y="-1306.4" font-family="Arial" font-size="19.00" fill="#000000">[Component: Python]</text>
<text text-anchor="start" x="1439.5" y="-1269.4" font-family="Arial" font-size="24.00" fill="#000000">rdm story evidence&#45;report: the</text>
<text text-anchor="start" x="1441" y="-1245.4" font-family="Arial" font-size="24.00" fill="#000000">PDF of every run behind each</text>
<text text-anchor="start" x="1536.5" y="-1221.4" font-family="Arial" font-size="24.00" fill="#000000">design input</text>
</g>
<!-- 37&#45;&gt;22 -->
<g id="111" class="edge">
<title>37&#45;&gt;22</title>
<path fill="none" stroke="#444444" stroke-dasharray="5,2" d="M1556.72,-1193.27C1520.74,-1127.18 1465.8,-1038.35 1401,-973.8 1382.88,-955.75 1362.43,-938.66 1341.21,-922.82"/>
<polygon fill="#444444" stroke="#444444" points="1343.17,-919.91 1333.04,-916.81 1339.02,-925.55 1343.17,-919.91"/>
<text text-anchor="start" x="1441" y="-993.6" font-family="Arial" font-size="24.00" fill="#444444">reads results with</text>
</g>
<!-- 20 -->
<g id="20" class="node">
<title>20</title>
<polygon fill="#85bbf0" stroke="#5d82a8" points="877.5,-1412.6 502.5,-1412.6 502.5,-1157.6 877.5,-1157.6 877.5,-1412.6"/>
<text text-anchor="start" x="568.5" y="-1364.4" font-family="Arial" font-size="34.00" fill="#000000">Verification data</text>
<text text-anchor="start" x="601" y="-1342.4" font-family="Arial" font-size="19.00" fill="#000000">[Component: Python]</text>
<text text-anchor="start" x="540.5" y="-1305.4" font-family="Arial" font-size="24.00" fill="#000000">Every declared design input</text>
<text text-anchor="start" x="572" y="-1281.4" font-family="Arial" font-size="24.00" fill="#000000">reconciled against the</text>
<text text-anchor="start" x="532" y="-1257.4" font-family="Arial" font-size="24.00" fill="#000000">executed results: status, runs</text>
<text text-anchor="start" x="531.5" y="-1233.4" font-family="Arial" font-size="24.00" fill="#000000">and tests per design input, by</text>
<text text-anchor="start" x="537" y="-1209.4" font-family="Arial" font-size="24.00" fill="#000000">user need; generated, never</text>
<text text-anchor="start" x="656.5" y="-1185.4" font-family="Arial" font-size="24.00" fill="#000000">edited</text>
</g>
<!-- 20&#45;&gt;22 -->
<g id="110" class="edge">
<title>20&#45;&gt;22</title>
<path fill="none" stroke="#444444" stroke-dasharray="5,2" d="M745.2,-1157.39C778.7,-1093.99 827.2,-1020.92 890,-973.8 903.72,-963.5 911.51,-970.18 927,-962.8 939.62,-956.78 952.33,-950.09 964.92,-942.96"/>
<polygon fill="#444444" stroke="#444444" points="966.7,-945.97 973.62,-937.96 963.21,-939.91 966.7,-945.97"/>
<text text-anchor="start" x="890" y="-993.6" font-family="Arial" font-size="24.00" fill="#444444">reconciles results with</text>
</g>
<!-- 21 -->
<g id="21" class="node">
<title>21</title>
<polygon fill="#85bbf0" stroke="#5d82a8" points="1336,-1448.6 950,-1448.6 950,-1121.6 1336,-1121.6 1336,-1448.6"/>
<text text-anchor="start" x="1042.5" y="-1400.4" font-family="Arial" font-size="34.00" fill="#000000">Release gate</text>
<text text-anchor="start" x="1054" y="-1378.4" font-family="Arial" font-size="19.00" fill="#000000">[Component: Python]</text>
<text text-anchor="start" x="1037.5" y="-1341.4" font-family="Arial" font-size="24.00" fill="#000000">Blocks a release on</text>
<text text-anchor="start" x="1001.5" y="-1317.4" font-family="Arial" font-size="24.00" fill="#000000">design&#45;gate failures, failed</text>
<text text-anchor="start" x="1004" y="-1293.4" font-family="Arial" font-size="24.00" fill="#000000">or untested design inputs,</text>
<text text-anchor="start" x="1000" y="-1269.4" font-family="Arial" font-size="24.00" fill="#000000">blocking risk findings or an</text>
<text text-anchor="start" x="979" y="-1245.4" font-family="Arial" font-size="24.00" fill="#000000">unrefined user need; warns on</text>
<text text-anchor="start" x="994" y="-1221.4" font-family="Arial" font-size="24.00" fill="#000000">unvalidated user needs and</text>
<text text-anchor="start" x="980.5" y="-1197.4" font-family="Arial" font-size="24.00" fill="#000000">orphan tags; the design gate&#39;s</text>
<text text-anchor="start" x="1001.5" y="-1173.4" font-family="Arial" font-size="24.00" fill="#000000">results warnings; the trace</text>
<text text-anchor="start" x="1118.5" y="-1149.4" font-family="Arial" font-size="24.00" fill="#000000">slice</text>
</g>
<!-- 21&#45;&gt;22 -->
<g id="170" class="edge">
<title>21&#45;&gt;22</title>
<path fill="none" stroke="#444444" stroke-dasharray="5,2" d="M1144.72,-1121.39C1145.32,-1064.93 1145.98,-1002.25 1146.55,-948.1"/>
<polygon fill="#444444" stroke="#444444" points="1150.05,-948.13 1146.66,-938.09 1143.05,-948.05 1150.05,-948.13"/>
<text text-anchor="start" x="1146" y="-993.6" font-family="Arial" font-size="24.00" fill="#444444">reconciles results with</text>
</g>
<!-- 8 -->
<g id="8" class="node">
<title>8</title>
<polygon fill="#85bbf0" stroke="#5d82a8" points="1818,-546.8 1408,-546.8 1408,-363.8 1818,-363.8 1818,-546.8"/>
<text text-anchor="start" x="1544" y="-498.6" font-family="Arial" font-size="34.00" fill="#000000">Test tags</text>
<text text-anchor="start" x="1524" y="-476.6" font-family="Arial" font-size="19.00" fill="#000000">[Component: Python]</text>
<text text-anchor="start" x="1460.5" y="-439.6" font-family="Arial" font-size="24.00" fill="#000000">The design&#45;input tags in test</text>
<text text-anchor="start" x="1437" y="-415.6" font-family="Arial" font-size="24.00" fill="#000000">sources, in every language RDM</text>
<text text-anchor="start" x="1582.5" y="-391.6" font-family="Arial" font-size="24.00" fill="#000000">reads</text>
</g>
<!-- 22&#45;&gt;8 -->
<g id="164" class="edge">
<title>22&#45;&gt;8</title>
<path fill="none" stroke="#444444" stroke-dasharray="5,2" d="M1314.89,-682.61C1371.13,-639.91 1432.96,-592.98 1485.65,-552.98"/>
<polygon fill="#444444" stroke="#444444" points="1487.84,-555.71 1493.69,-546.87 1483.61,-550.13 1487.84,-555.71"/>
<text text-anchor="start" x="1422" y="-627.6" font-family="Arial" font-size="24.00" fill="#444444">takes the label that names</text>
<text text-anchor="start" x="1460" y="-601.6" font-family="Arial" font-size="24.00" fill="#444444">a design input from</text>
</g>
<!-- 23 -->
<g id="23" class="node">
<title>23</title>
<polygon fill="#85bbf0" stroke="#5d82a8" points="890.5,-937.8 499.5,-937.8 499.5,-682.8 890.5,-682.8 890.5,-937.8"/>
<text text-anchor="start" x="581.5" y="-889.6" font-family="Arial" font-size="34.00" fill="#000000">Mutation probe</text>
<text text-anchor="start" x="606" y="-867.6" font-family="Arial" font-size="19.00" fill="#000000">[Component: Python]</text>
<text text-anchor="start" x="528.5" y="-830.6" font-family="Arial" font-size="24.00" fill="#000000">rdm story mutation&#45;probe: runs</text>
<text text-anchor="start" x="560.5" y="-806.6" font-family="Arial" font-size="24.00" fill="#000000">one test unmutated, then</text>
<text text-anchor="start" x="550.5" y="-782.6" font-family="Arial" font-size="24.00" fill="#000000">mutated; killed, survived or</text>
<text text-anchor="start" x="557" y="-758.6" font-family="Arial" font-size="24.00" fill="#000000">error; journals the original</text>
<text text-anchor="start" x="556.5" y="-734.6" font-family="Arial" font-size="24.00" fill="#000000">beside the file and always</text>
<text text-anchor="start" x="641.5" y="-710.6" font-family="Arial" font-size="24.00" fill="#000000">restores it</text>
</g>
<!-- 24 -->
<g id="24" class="node">
<title>24</title>
<polygon fill="#85bbf0" stroke="#5d82a8" points="427,-918.8 83,-918.8 83,-701.8 427,-701.8 427,-918.8"/>
<text text-anchor="start" x="176.5" y="-870.6" font-family="Arial" font-size="34.00" fill="#000000">Test result</text>
<text text-anchor="start" x="176.5" y="-836.6" font-family="Arial" font-size="34.00" fill="#000000">translation</text>
<text text-anchor="start" x="166" y="-814.6" font-family="Arial" font-size="19.00" fill="#000000">[Component: Python]</text>
<text text-anchor="start" x="112" y="-777.6" font-family="Arial" font-size="24.00" fill="#000000">rdm translate: foreign XML</text>
<text text-anchor="start" x="112" y="-753.6" font-family="Arial" font-size="24.00" fill="#000000">results to a YAML data file;</text>
<text text-anchor="start" x="112.5" y="-729.6" font-family="Arial" font-size="24.00" fill="#000000">rejects an unknown format</text>
</g>
<!-- 25 -->
<g id="25" class="node">
<title>25</title>
<polygon fill="#85bbf0" stroke="#5d82a8" points="424.5,-534.8 85.5,-534.8 85.5,-375.8 424.5,-375.8 424.5,-534.8"/>
<text text-anchor="start" x="124.5" y="-486.6" font-family="Arial" font-size="34.00" fill="#000000">Result formatters</text>
<text text-anchor="start" x="166" y="-464.6" font-family="Arial" font-size="19.00" fill="#000000">[Component: Python]</text>
<text text-anchor="start" x="126" y="-427.6" font-family="Arial" font-size="24.00" fill="#000000">Flattens gtest, xunit and</text>
<text text-anchor="start" x="114.5" y="-403.6" font-family="Arial" font-size="24.00" fill="#000000">qttest XML into result data</text>
</g>
<!-- 24&#45;&gt;25 -->
<g id="89" class="edge">
<title>24&#45;&gt;25</title>
<path fill="none" stroke="#444444" stroke-dasharray="5,2" d="M255,-701.47C255,-651.41 255,-592.63 255,-545.17"/>
<polygon fill="#444444" stroke="#444444" points="258.5,-544.91 255,-534.91 251.5,-544.91 258.5,-544.91"/>
<text text-anchor="start" x="255" y="-614.6" font-family="Arial" font-size="24.00" fill="#444444">parses with</text>
</g>
</g>
</svg>
