<?xml version="1.0" encoding="UTF-8" standalone="no"?>
<!-- rdm c4 draw: view C3_verification, workspace sha256:511c398562064be279ae12800cb30afb69bcbe01fd5fb134c173ffc3b7253f0a -->
<!DOCTYPE svg PUBLIC "-//W3C//DTD SVG 1.1//EN"
 "http://www.w3.org/Graphics/SVG/1.1/DTD/svg11.dtd">
<!-- Generated by graphviz version 2.43.0 (0)
 -->
<!-- Title: %3 Pages: 1 -->
<svg width="2862pt" height="1688pt"
 viewBox="0.00 0.00 2862.00 1688.40" xmlns="http://www.w3.org/2000/svg" xmlns:xlink="http://www.w3.org/1999/xlink">
<g id="graph0" class="graph" transform="scale(1 1) rotate(0) translate(4 1684.4)">
<title>%3</title>
<polygon fill="white" stroke="transparent" points="-4,4 -4,-1684.4 2858,-1684.4 2858,4 -4,4"/>
<text text-anchor="start" x="1204.5" y="-11.8" font-family="Arial" font-size="34.00">Component View: RDM &#45; rdm</text>
<g id="clust1" class="cluster">
<title>cluster_4</title>
<polygon fill="none" stroke="#444444" points="8,-64 8,-1672.4 2846,-1672.4 2846,-64 8,-64"/>
<text text-anchor="start" x="1399.5" y="-92.8" font-family="Arial" font-size="24.00" fill="#444444">RDM</text>
<text text-anchor="start" x="1350" y="-72.8" font-family="Arial" font-size="19.00" fill="#444444">[Software System]</text>
</g>
<g id="clust2" class="cluster">
<title>cluster_39</title>
<polygon fill="none" stroke="#cccccc" points="2341,-947.6 2341,-1368.4 2821,-1368.4 2821,-947.6 2341,-947.6"/>
<text text-anchor="start" x="2474" y="-976.4" font-family="Arial" font-size="24.00" fill="#cccccc">Acceptance test run</text>
<text text-anchor="start" x="2447" y="-956.4" font-family="Arial" font-size="19.00" fill="#cccccc">[Container: pytest, allure&#45;pytest]</text>
</g>
<g id="clust3" class="cluster">
<title>cluster_group_verification</title>
<polygon fill="none" stroke="#cccccc" stroke-dasharray="5,2" points="2366,-1047.6 2366,-1343.4 2796,-1343.4 2796,-1047.6 2366,-1047.6"/>
<text text-anchor="start" x="2523" y="-1061.2" font-family="Arial" font-size="24.00" fill="#cccccc">verification</text>
</g>
<g id="clust4" class="cluster">
<title>cluster_5</title>
<polygon fill="none" stroke="#444444" points="33,-164 33,-1647.4 2316,-1647.4 2316,-164 33,-164"/>
<text text-anchor="start" x="1153" y="-192.8" font-family="Arial" font-size="24.00" fill="#444444">rdm</text>
<text text-anchor="start" x="1093" y="-172.8" font-family="Arial" font-size="19.00" fill="#444444">[Container: Python]</text>
</g>
<g id="clust8" class="cluster">
<title>cluster_group_verification</title>
<polygon fill="none" stroke="#cccccc" stroke-dasharray="5,2" points="58,-630.8 58,-1622.4 925,-1622.4 925,-630.8 58,-630.8"/>
<text text-anchor="start" x="433.5" y="-644.4" font-family="Arial" font-size="24.00" fill="#cccccc">verification</text>
</g>
<g id="clust5" class="cluster">
<title>cluster_group_record</title>
<polygon fill="none" stroke="#cccccc" stroke-dasharray="5,2" points="1142,-264 1142,-559.8 1526,-559.8 1526,-264 1142,-264"/>
<text text-anchor="start" x="1299" y="-277.6" font-family="Arial" font-size="24.00" fill="#cccccc">record</text>
</g>
<g id="clust6" class="cluster">
<title>cluster_group_rendering</title>
<polygon fill="none" stroke="#cccccc" stroke-dasharray="5,2" points="1825,-642.8 1825,-1319.4 2291,-1319.4 2291,-642.8 1825,-642.8"/>
<text text-anchor="start" x="2006.5" y="-656.4" font-family="Arial" font-size="24.00" fill="#cccccc">rendering</text>
</g>
<g id="clust7" class="cluster">
<title>cluster_group_risk</title>
<polygon fill="none" stroke="#cccccc" stroke-dasharray="5,2" points="1382,-630.8 1382,-902.6 1800,-902.6 1800,-630.8 1382,-630.8"/>
<text text-anchor="start" x="1572" y="-644.4" font-family="Arial" font-size="24.00" fill="#cccccc">risk</text>
</g>
<!-- 40 -->
<g id="40" class="node">
<title>40</title>
<polygon fill="#85bbf0" stroke="#5d82a8" points="2771,-1318.4 2391,-1318.4 2391,-1135.4 2771,-1135.4 2771,-1318.4"/>
<text text-anchor="start" x="2485" y="-1270.2" font-family="Arial" font-size="34.00" fill="#000000">pytest plugin</text>
<text text-anchor="start" x="2461" y="-1248.2" font-family="Arial" font-size="19.00" fill="#000000">[Component: Python, pytest]</text>
<text text-anchor="start" x="2446.5" y="-1211.2" font-family="Arial" font-size="24.00" fill="#000000">Labels each run from the</text>
<text text-anchor="start" x="2420" y="-1187.2" font-family="Arial" font-size="24.00" fill="#000000">record; the run&#39;s executor and</text>
<text text-anchor="start" x="2514" y="-1163.2" font-family="Arial" font-size="24.00" fill="#000000">environment</text>
</g>
<!-- 20 -->
<g id="20" class="node">
<title>20</title>
<polygon fill="#85bbf0" stroke="#5d82a8" points="1500.5,-534.8 1167.5,-534.8 1167.5,-351.8 1500.5,-351.8 1500.5,-534.8"/>
<text text-anchor="start" x="1216.5" y="-486.6" font-family="Arial" font-size="34.00" fill="#000000">Record readers</text>
<text text-anchor="start" x="1245" y="-464.6" font-family="Arial" font-size="19.00" fill="#000000">[Component: Python]</text>
<text text-anchor="start" x="1220" y="-427.6" font-family="Arial" font-size="24.00" fill="#000000">Design, V&amp;V and risk</text>
<text text-anchor="start" x="1196.5" y="-403.6" font-family="Arial" font-size="24.00" fill="#000000">frontmatter, Allure results,</text>
<text text-anchor="start" x="1242" y="-379.6" font-family="Arial" font-size="24.00" fill="#000000">the C4 model, git</text>
</g>
<!-- 40&#45;&gt;20 -->
<g id="113" class="edge">
<title>40&#45;&gt;20</title>
<path fill="none" stroke="#444444" stroke-dasharray="5,2" d="M2579.3,-1135.35C2575.22,-1071.11 2563.75,-984.12 2533,-913.6 2468.91,-766.63 2446.12,-713.92 2309,-630.8 2177.27,-550.95 1754.05,-491.67 1510.69,-463.18"/>
<polygon fill="#444444" stroke="#444444" points="1511.01,-459.69 1500.68,-462.01 1510.2,-466.64 1511.01,-459.69"/>
<text text-anchor="start" x="2526" y="-791.9" font-family="Arial" font-size="24.00" fill="#444444">reads the record with</text>
</g>
<!-- 25 -->
<g id="25" class="node">
<title>25</title>
<polygon fill="#85bbf0" stroke="#5d82a8" points="1775,-877.6 1407,-877.6 1407,-718.6 1775,-718.6 1775,-877.6"/>
<text text-anchor="start" x="1496" y="-829.4" font-family="Arial" font-size="34.00" fill="#000000">Risk register</text>
<text text-anchor="start" x="1502" y="-807.4" font-family="Arial" font-size="19.00" fill="#000000">[Component: Python]</text>
<text text-anchor="start" x="1436" y="-770.4" font-family="Arial" font-size="24.00" fill="#000000">Risks scored from the policy;</text>
<text text-anchor="start" x="1501" y="-746.4" font-family="Arial" font-size="24.00" fill="#000000">the release rules</text>
</g>
<!-- 40&#45;&gt;25 -->
<g id="117" class="edge">
<title>40&#45;&gt;25</title>
<path fill="none" stroke="#444444" stroke-dasharray="5,2" d="M2531.34,-1135.37C2484.79,-1060.7 2407.64,-959.81 2309,-913.6 2258.48,-889.93 1861.27,-915.56 1807,-902.6 1785.6,-897.49 1763.81,-890.07 1742.72,-881.51"/>
<polygon fill="#444444" stroke="#444444" points="1743.98,-878.25 1733.4,-877.64 1741.3,-884.71 1743.98,-878.25"/>
<text text-anchor="start" x="2348" y="-920.4" font-family="Arial" font-size="24.00" fill="#444444">reads risks with</text>
</g>
<!-- 22 -->
<g id="22" class="node">
<title>22</title>
<polygon fill="#85bbf0" stroke="#5d82a8" points="2236.5,-865.6 1859.5,-865.6 1859.5,-730.6 2236.5,-730.6 2236.5,-865.6"/>
<text text-anchor="start" x="1992.5" y="-817.4" font-family="Arial" font-size="34.00" fill="#000000">Utilities</text>
<text text-anchor="start" x="1959" y="-795.4" font-family="Arial" font-size="19.00" fill="#000000">[Component: Python]</text>
<text text-anchor="start" x="1888.5" y="-758.4" font-family="Arial" font-size="24.00" fill="#000000">Shared YAML and file helpers</text>
</g>
<!-- 23 -->
<g id="23" class="node">
<title>23</title>
<polygon fill="#85bbf0" stroke="#5d82a8" points="2266,-1294.4 1850,-1294.4 1850,-1159.4 2266,-1159.4 2266,-1294.4"/>
<text text-anchor="start" x="1987" y="-1246.2" font-family="Arial" font-size="34.00" fill="#000000">Renderer</text>
<text text-anchor="start" x="1938.5" y="-1224.2" font-family="Arial" font-size="19.00" fill="#000000">[Component: Python, Jinja2]</text>
<text text-anchor="start" x="1879" y="-1187.2" font-family="Arial" font-size="24.00" fill="#000000">Templates and data to Markdown</text>
</g>
<!-- 23&#45;&gt;22 -->
<g id="92" class="edge">
<title>23&#45;&gt;22</title>
<path fill="none" stroke="#444444" stroke-dasharray="5,2" d="M2056.44,-1159.21C2054.64,-1082.43 2051.69,-956.54 2049.8,-875.78"/>
<polygon fill="#444444" stroke="#444444" points="2053.29,-875.59 2049.56,-865.67 2046.3,-875.75 2053.29,-875.59"/>
<text text-anchor="start" x="2052" y="-920.4" font-family="Arial" font-size="24.00" fill="#444444">uses</text>
</g>
<!-- 25&#45;&gt;20 -->
<g id="94" class="edge">
<title>25&#45;&gt;20</title>
<path fill="none" stroke="#444444" stroke-dasharray="5,2" d="M1533.64,-718.36C1496,-666.69 1446.47,-598.69 1406.16,-543.36"/>
<polygon fill="#444444" stroke="#444444" points="1408.74,-540.96 1400.03,-534.94 1403.09,-545.08 1408.74,-540.96"/>
<text text-anchor="start" x="1463" y="-590.6" font-family="Arial" font-size="24.00" fill="#444444">reads frontmatter with</text>
</g>
<!-- 34 -->
<g id="34" class="node">
<title>34</title>
<polygon fill="#85bbf0" stroke="#5d82a8" points="457,-877.6 83,-877.6 83,-718.6 457,-718.6 457,-877.6"/>
<text text-anchor="start" x="148.5" y="-829.4" font-family="Arial" font-size="34.00" fill="#000000">Verification data</text>
<text text-anchor="start" x="181" y="-807.4" font-family="Arial" font-size="19.00" fill="#000000">[Component: Python]</text>
<text text-anchor="start" x="112" y="-770.4" font-family="Arial" font-size="24.00" fill="#000000">Design inputs against results:</text>
<text text-anchor="start" x="190" y="-746.4" font-family="Arial" font-size="24.00" fill="#000000">verification.yml</text>
</g>
<!-- 34&#45;&gt;20 -->
<g id="103" class="edge">
<title>34&#45;&gt;20</title>
<path fill="none" stroke="#444444" stroke-dasharray="5,2" d="M357.87,-718.39C396.89,-687.07 444.83,-653.21 493,-630.8 708.98,-530.31 981.77,-482.67 1157.07,-461.01"/>
<polygon fill="#444444" stroke="#444444" points="1157.66,-464.47 1167.16,-459.78 1156.81,-457.52 1157.66,-464.47"/>
<text text-anchor="start" x="624" y="-603.6" font-family="Arial" font-size="24.00" fill="#444444">reads the record and</text>
<text text-anchor="start" x="676" y="-577.6" font-family="Arial" font-size="24.00" fill="#444444">results with</text>
</g>
<!-- 35 -->
<g id="35" class="node">
<title>35</title>
<polygon fill="#85bbf0" stroke="#5d82a8" points="899.5,-1597.4 540.5,-1597.4 540.5,-1438.4 899.5,-1438.4 899.5,-1597.4"/>
<text text-anchor="start" x="606.5" y="-1549.2" font-family="Arial" font-size="34.00" fill="#000000">Mutation probe</text>
<text text-anchor="start" x="631" y="-1527.2" font-family="Arial" font-size="19.00" fill="#000000">[Component: Python]</text>
<text text-anchor="start" x="569.5" y="-1490.2" font-family="Arial" font-size="24.00" fill="#000000">Breaks a line, runs one test,</text>
<text text-anchor="start" x="676" y="-1466.2" font-family="Arial" font-size="24.00" fill="#000000">restores</text>
</g>
<!-- 36 -->
<g id="36" class="node">
<title>36</title>
<polygon fill="#85bbf0" stroke="#5d82a8" points="468.5,-1585.4 83.5,-1585.4 83.5,-1450.4 468.5,-1450.4 468.5,-1585.4"/>
<text text-anchor="start" x="150.5" y="-1537.2" font-family="Arial" font-size="34.00" fill="#000000">Evidence bundle</text>
<text text-anchor="start" x="187" y="-1515.2" font-family="Arial" font-size="19.00" fill="#000000">[Component: Python]</text>
<text text-anchor="start" x="112.5" y="-1478.2" font-family="Arial" font-size="24.00" fill="#000000">The retained release evidence</text>
</g>
<!-- 36&#45;&gt;20 -->
<g id="106" class="edge">
<title>36&#45;&gt;20</title>
<path fill="none" stroke="#444444" stroke-dasharray="5,2" d="M461.27,-1450.35C475.65,-1446.04 490.01,-1441.99 504,-1438.4 681.36,-1392.89 749.7,-1456.91 910,-1368.4 1153.77,-1233.81 1227.86,-1162.04 1329,-902.6 1374.36,-786.25 1365.98,-640.3 1352.71,-544.79"/>
<polygon fill="#444444" stroke="#444444" points="1356.16,-544.24 1351.28,-534.84 1349.24,-545.23 1356.16,-544.24"/>
<text text-anchor="start" x="1325" y="-920.4" font-family="Arial" font-size="24.00" fill="#444444">finds the matrix with</text>
</g>
<!-- 36&#45;&gt;22 -->
<g id="108" class="edge">
<title>36&#45;&gt;22</title>
<path fill="none" stroke="#444444" stroke-dasharray="5,2" d="M453.27,-1450.37C470.25,-1445.67 487.34,-1441.55 504,-1438.4 596.77,-1420.85 1267.59,-1442.65 1353,-1402.4 1598.91,-1286.52 1547.02,-1113.98 1762,-947.6 1799.69,-918.43 1843.97,-892.23 1886.28,-870.25"/>
<polygon fill="#444444" stroke="#444444" points="1887.98,-873.31 1895.27,-865.63 1884.78,-867.09 1887.98,-873.31"/>
<text text-anchor="start" x="1762" y="-1220.7" font-family="Arial" font-size="24.00" fill="#444444">uses</text>
</g>
<!-- 36&#45;&gt;23 -->
<g id="107" class="edge">
<title>36&#45;&gt;23</title>
<path fill="none" stroke="#444444" stroke-dasharray="5,2" d="M452.6,-1450.35C469.79,-1445.61 487.12,-1441.5 504,-1438.4 756.58,-1392.08 1408.49,-1458.87 1659,-1402.4 1753.44,-1381.11 1853.23,-1337.46 1929.39,-1299.15"/>
<polygon fill="#444444" stroke="#444444" points="1931.21,-1302.15 1938.55,-1294.5 1928.05,-1295.9 1931.21,-1302.15"/>
<text text-anchor="start" x="1739" y="-1383.2" font-family="Arial" font-size="24.00" fill="#444444">renders the matrix with</text>
</g>
<!-- 36&#45;&gt;34 -->
<g id="104" class="edge">
<title>36&#45;&gt;34</title>
<path fill="none" stroke="#444444" stroke-dasharray="5,2" d="M275.44,-1450.34C274.36,-1320.6 271.96,-1033.87 270.74,-888.03"/>
<polygon fill="#444444" stroke="#444444" points="274.24,-887.75 270.66,-877.78 267.24,-887.8 274.24,-887.75"/>
<text text-anchor="start" x="275" y="-1220.7" font-family="Arial" font-size="24.00" fill="#444444">writes</text>
</g>
<!-- 37 -->
<g id="37" class="node">
<title>37</title>
<polygon fill="#85bbf0" stroke="#5d82a8" points="874,-1306.4 504,-1306.4 504,-1147.4 874,-1147.4 874,-1306.4"/>
<text text-anchor="start" x="556.5" y="-1258.2" font-family="Arial" font-size="34.00" fill="#000000">Verification report</text>
<text text-anchor="start" x="600" y="-1236.2" font-family="Arial" font-size="19.00" fill="#000000">[Component: Python]</text>
<text text-anchor="start" x="533" y="-1199.2" font-family="Arial" font-size="24.00" fill="#000000">The PDF of every run behind</text>
<text text-anchor="start" x="594" y="-1175.2" font-family="Arial" font-size="24.00" fill="#000000">each design input</text>
</g>
<!-- 36&#45;&gt;37 -->
<g id="105" class="edge">
<title>36&#45;&gt;37</title>
<path fill="none" stroke="#444444" stroke-dasharray="5,2" d="M371.27,-1450.23C429.86,-1409.23 505.48,-1356.32 568.25,-1312.4"/>
<polygon fill="#444444" stroke="#444444" points="570.44,-1315.14 576.62,-1306.54 566.42,-1309.4 570.44,-1315.14"/>
<text text-anchor="start" x="471" y="-1383.2" font-family="Arial" font-size="24.00" fill="#444444">writes</text>
</g>
<!-- 37&#45;&gt;20 -->
<g id="110" class="edge">
<title>37&#45;&gt;20</title>
<path fill="none" stroke="#444444" stroke-dasharray="5,2" d="M736.89,-1147.27C776.68,-1081.87 834.7,-986.28 885,-902.6 957.45,-782.07 949.51,-732.15 1047,-630.8 1079.6,-596.92 1119.46,-566.16 1158.98,-539.84"/>
<polygon fill="#444444" stroke="#444444" points="1160.98,-542.71 1167.41,-534.29 1157.13,-536.87 1160.98,-542.71"/>
<text text-anchor="start" x="1047" y="-791.9" font-family="Arial" font-size="24.00" fill="#444444">reads results and git with</text>
</g>
<!-- 37&#45;&gt;25 -->
<g id="111" class="edge">
<title>37&#45;&gt;25</title>
<path fill="none" stroke="#444444" stroke-dasharray="5,2" d="M757.93,-1147.27C829.29,-1072.05 948.22,-962.97 1077,-913.6 1118.98,-897.51 1234.83,-910.97 1279,-902.6 1317.77,-895.25 1358.35,-884.32 1396.95,-872.28"/>
<polygon fill="#444444" stroke="#444444" points="1398.23,-875.55 1406.71,-869.2 1396.12,-868.87 1398.23,-875.55"/>
<text text-anchor="start" x="1077" y="-920.4" font-family="Arial" font-size="24.00" fill="#444444">reads risks with</text>
</g>
<!-- 37&#45;&gt;34 -->
<g id="109" class="edge">
<title>37&#45;&gt;34</title>
<path fill="none" stroke="#444444" stroke-dasharray="5,2" d="M611.66,-1147.12C538.7,-1072.8 429.6,-961.67 354.41,-885.08"/>
<polygon fill="#444444" stroke="#444444" points="356.75,-882.46 347.24,-877.78 351.75,-887.37 356.75,-882.46"/>
<text text-anchor="start" x="406" y="-920.4" font-family="Arial" font-size="24.00" fill="#444444">builds on</text>
</g>
<!-- 38 -->
<g id="38" class="node">
<title>38</title>
<polygon fill="#85bbf0" stroke="#5d82a8" points="849,-865.6 529,-865.6 529,-730.6 849,-730.6 849,-865.6"/>
<text text-anchor="start" x="587.5" y="-817.4" font-family="Arial" font-size="34.00" fill="#000000">Report layout</text>
<text text-anchor="start" x="606.5" y="-795.4" font-family="Arial" font-size="19.00" fill="#000000">[Component: Typst]</text>
<text text-anchor="start" x="558" y="-758.4" font-family="Arial" font-size="24.00" fill="#000000">The report&#39;s page layout</text>
</g>
<!-- 37&#45;&gt;38 -->
<g id="112" class="edge">
<title>37&#45;&gt;38</title>
<path fill="none" stroke="#444444" stroke-dasharray="5,2" d="M689,-1147.12C689,-1069.78 689,-952.58 689,-875.92"/>
<polygon fill="#444444" stroke="#444444" points="692.5,-875.85 689,-865.85 685.5,-875.85 692.5,-875.85"/>
<text text-anchor="start" x="689" y="-920.4" font-family="Arial" font-size="24.00" fill="#444444">lays out with</text>
</g>
</g>
</svg>
