<?xml version="1.0" encoding="UTF-8" standalone="no"?>
<!-- rdm c4 draw: view D_publishing_render, workspace sha256:93162ca27457161f1d2e97531fc75a51985816230b17a708a3dac1d3ead6a5c9 -->
<!DOCTYPE svg PUBLIC "-//W3C//DTD SVG 1.1//EN"
 "http://www.w3.org/Graphics/SVG/1.1/DTD/svg11.dtd">
<!-- Generated by graphviz version 2.43.0 (0)
 -->
<!-- Title: %3 Pages: 1 -->
<svg width="2038pt" height="1149pt"
 viewBox="0.00 0.00 2038.00 1149.00" xmlns="http://www.w3.org/2000/svg" xmlns:xlink="http://www.w3.org/1999/xlink">
<g id="graph0" class="graph" transform="scale(1 1) rotate(0) translate(4 1145)">
<title>%3</title>
<polygon fill="white" stroke="transparent" points="-4,4 -4,-1145 2034,-1145 2034,4 -4,4"/>
<text text-anchor="start" x="682.5" y="-11.8" font-family="Arial" font-size="34.00">Publishing: rendering a document (dynamic)</text>
<g id="clust1" class="cluster">
<title>cluster_4</title>
<polygon fill="none" stroke="#444444" points="8,-64 8,-1133 2022,-1133 2022,-64 8,-64"/>
<text text-anchor="start" x="987.5" y="-92.8" font-family="Arial" font-size="24.00" fill="#444444">RDM</text>
<text text-anchor="start" x="938" y="-72.8" font-family="Arial" font-size="19.00" fill="#444444">[Software System]</text>
</g>
<g id="clust2" class="cluster">
<title>cluster_5</title>
<polygon fill="none" stroke="#444444" points="33,-164 33,-1108 1997,-1108 1997,-164 33,-164"/>
<text text-anchor="start" x="993.5" y="-192.8" font-family="Arial" font-size="24.00" fill="#444444">rdm</text>
<text text-anchor="start" x="933.5" y="-172.8" font-family="Arial" font-size="19.00" fill="#444444">[Container: Python]</text>
</g>
<g id="clust3" class="cluster">
<title>cluster_group_publishing</title>
<polygon fill="none" stroke="#cccccc" stroke-dasharray="5,2" points="58,-264 58,-804 1972,-804 1972,-264 58,-264"/>
<text text-anchor="start" x="960.5" y="-277.6" font-family="Arial" font-size="24.00" fill="#cccccc">publishing</text>
</g>
<!-- 32 -->
<g id="32" class="node">
<title>32</title>
<polygon fill="#85bbf0" stroke="#5d82a8" points="499,-778.5 83,-778.5 83,-643.5 499,-643.5 499,-778.5"/>
<text text-anchor="start" x="220" y="-730.3" font-family="Arial" font-size="34.00" fill="#000000">Renderer</text>
<text text-anchor="start" x="171.5" y="-708.3" font-family="Arial" font-size="19.00" fill="#000000">[Component: Python, Jinja2]</text>
<text text-anchor="start" x="112" y="-671.3" font-family="Arial" font-size="24.00" fill="#000000">Templates and data to Markdown</text>
</g>
<!-- 33 -->
<g id="33" class="node">
<title>33</title>
<polygon fill="#85bbf0" stroke="#5d82a8" points="1225,-582.5 837,-582.5 837,-351.5 1225,-351.5 1225,-582.5"/>
<text text-anchor="start" x="866" y="-534.3" font-family="Arial" font-size="34.00" fill="#000000">Markdown extensions</text>
<text text-anchor="start" x="942" y="-512.3" font-family="Arial" font-size="19.00" fill="#000000">[Component: Python]</text>
<text text-anchor="start" x="874.5" y="-475.3" font-family="Arial" font-size="24.00" fill="#000000">Section numbers, vocabulary</text>
<text text-anchor="start" x="872.5" y="-451.3" font-family="Arial" font-size="24.00" fill="#000000">and audit&#45;note exclusion over</text>
<text text-anchor="start" x="874.5" y="-427.3" font-family="Arial" font-size="24.00" fill="#000000">the rendered lines; loaded by</text>
<text text-anchor="start" x="904.5" y="-403.3" font-family="Arial" font-size="24.00" fill="#000000">name from the project&#39;s</text>
<text text-anchor="start" x="976.5" y="-379.3" font-family="Arial" font-size="24.00" fill="#000000">config.yml</text>
</g>
<!-- 32&#45;&gt;33 -->
<g id="154" class="edge">
<title>32&#45;&gt;33</title>
<path fill="none" stroke="#444444" stroke-dasharray="5,2" d="M496.59,-643.36C599.7,-609.27 724.33,-568.06 827.19,-534.05"/>
<polygon fill="#444444" stroke="#444444" points="828.36,-537.35 836.76,-530.89 826.16,-530.71 828.36,-537.35"/>
<text text-anchor="start" x="552" y="-657.8" font-family="Arial" font-size="24.00" fill="#444444">3. post&#45;processes the</text>
<text text-anchor="start" x="535" y="-631.8" font-family="Arial" font-size="24.00" fill="#444444">rendered Markdown with</text>
</g>
<!-- 34 -->
<g id="34" class="node">
<title>34</title>
<polygon fill="#85bbf0" stroke="#5d82a8" points="1947,-723.5 1562,-723.5 1562,-540.5 1947,-540.5 1947,-723.5"/>
<text text-anchor="start" x="1627" y="-675.3" font-family="Arial" font-size="34.00" fill="#000000">First&#45;pass output</text>
<text text-anchor="start" x="1665.5" y="-653.3" font-family="Arial" font-size="19.00" fill="#000000">[Component: Python]</text>
<text text-anchor="start" x="1626" y="-616.3" font-family="Arial" font-size="24.00" fill="#000000">The words a first render</text>
<text text-anchor="start" x="1591" y="-592.3" font-family="Arial" font-size="24.00" fill="#000000">produced, for the second pass</text>
<text text-anchor="start" x="1679" y="-568.3" font-family="Arial" font-size="24.00" fill="#000000">to test against</text>
</g>
<!-- 32&#45;&gt;34 -->
<g id="155" class="edge">
<title>32&#45;&gt;34</title>
<path fill="none" stroke="#444444" stroke-dasharray="5,2" d="M499.2,-715.68C591.98,-714.91 702.45,-710.01 801,-695 817.42,-692.5 820.61,-687.68 837,-685 1139.63,-635.45 1219.92,-666.98 1526,-648 1534.38,-647.48 1542.93,-646.94 1551.57,-646.38"/>
<polygon fill="#444444" stroke="#444444" points="1551.99,-649.86 1561.74,-645.71 1551.54,-642.87 1551.99,-649.86"/>
<text text-anchor="start" x="904.5" y="-717.8" font-family="Arial" font-size="24.00" fill="#444444">2. keeps the first pass&#39;s</text>
<text text-anchor="start" x="985.5" y="-691.8" font-family="Arial" font-size="24.00" fill="#444444">words in</text>
</g>
<!-- 6 -->
<g id="6" class="node">
<title>6</title>
<polygon fill="#85bbf0" stroke="#5d82a8" points="1218,-1082.5 844,-1082.5 844,-851.5 1218,-851.5 1218,-1082.5"/>
<text text-anchor="start" x="925.5" y="-1034.3" font-family="Arial" font-size="34.00" fill="#000000">Shared kernel</text>
<text text-anchor="start" x="942" y="-1012.3" font-family="Arial" font-size="19.00" fill="#000000">[Component: Python]</text>
<text text-anchor="start" x="873" y="-975.3" font-family="Arial" font-size="24.00" fill="#000000">Shared helpers every context</text>
<text text-anchor="start" x="873" y="-951.3" font-family="Arial" font-size="24.00" fill="#000000">may use: YAML and files, ids,</text>
<text text-anchor="start" x="929.5" y="-927.3" font-family="Arial" font-size="24.00" fill="#000000">git, frontmatter, the</text>
<text text-anchor="start" x="906" y="-903.3" font-family="Arial" font-size="24.00" fill="#000000">reconcile helpers; in no</text>
<text text-anchor="start" x="941" y="-879.3" font-family="Arial" font-size="24.00" fill="#000000">bounded context</text>
</g>
<!-- 32&#45;&gt;6 -->
<g id="200" class="edge">
<title>32&#45;&gt;6</title>
<path fill="none" stroke="#444444" stroke-dasharray="5,2" d="M486.87,-778.6C594.13,-815.8 726.86,-861.85 834.26,-899.1"/>
<polygon fill="#444444" stroke="#444444" points="833.32,-902.48 843.91,-902.45 835.61,-895.86 833.32,-902.48"/>
<text text-anchor="start" x="537" y="-916.8" font-family="Arial" font-size="24.00" fill="#444444">1. loads the data files as</text>
<text text-anchor="start" x="583.5" y="-890.8" font-family="Arial" font-size="24.00" fill="#444444">the context with</text>
</g>
<!-- 33&#45;&gt;34 -->
<g id="156" class="edge">
<title>33&#45;&gt;34</title>
<path fill="none" stroke="#444444" stroke-dasharray="5,2" d="M1225.35,-511.22C1326.34,-534.31 1449.82,-562.55 1551.99,-585.92"/>
<polygon fill="#444444" stroke="#444444" points="1551.28,-589.34 1561.81,-588.16 1552.84,-582.52 1551.28,-589.34"/>
<text text-anchor="start" x="1261" y="-610.8" font-family="Arial" font-size="24.00" fill="#444444">4. gives the template the</text>
<text text-anchor="start" x="1273" y="-584.8" font-family="Arial" font-size="24.00" fill="#444444">first pass&#39;s words from</text>
</g>
</g>
</svg>
