<?xml version="1.0" encoding="UTF-8" standalone="no"?>
<!-- rdm c4 draw: view D_specification_commit, workspace sha256:9b7b3feb97203e556673a9f7f3115c842117fb6007820b0c594661ddef40bef4 -->
<!DOCTYPE svg PUBLIC "-//W3C//DTD SVG 1.1//EN"
 "http://www.w3.org/Graphics/SVG/1.1/DTD/svg11.dtd">
<!-- Generated by graphviz version 2.43.0 (0)
 -->
<!-- Title: %3 Pages: 1 -->
<svg width="1819pt" height="1350pt"
 viewBox="0.00 0.00 1819.00 1350.00" xmlns="http://www.w3.org/2000/svg" xmlns:xlink="http://www.w3.org/1999/xlink">
<g id="graph0" class="graph" transform="scale(1 1) rotate(0) translate(4 1346)">
<title>%3</title>
<polygon fill="white" stroke="transparent" points="-4,4 -4,-1346 1815,-1346 1815,4 -4,4"/>
<text text-anchor="start" x="422.5" y="-11.8" font-family="Arial" font-size="34.00">Design specification: a commit meets the design gate (dynamic)</text>
<g id="clust1" class="cluster">
<title>cluster_4</title>
<polygon fill="none" stroke="#444444" points="8,-64 8,-1334 1803,-1334 1803,-64 8,-64"/>
<text text-anchor="start" x="878" y="-92.8" font-family="Arial" font-size="24.00" fill="#444444">RDM</text>
<text text-anchor="start" x="828.5" y="-72.8" font-family="Arial" font-size="19.00" fill="#444444">[Software System]</text>
</g>
<g id="clust2" class="cluster">
<title>cluster_5</title>
<polygon fill="none" stroke="#444444" points="33,-164 33,-1309 1778,-1309 1778,-164 33,-164"/>
<text text-anchor="start" x="884" y="-192.8" font-family="Arial" font-size="24.00" fill="#444444">rdm</text>
<text text-anchor="start" x="824" y="-172.8" font-family="Arial" font-size="19.00" fill="#444444">[Container: Python]</text>
</g>
<g id="clust3" class="cluster">
<title>cluster_group_architecture</title>
<polygon fill="none" stroke="#cccccc" stroke-dasharray="5,2" points="1330,-619 1330,-915 1749,-915 1749,-619 1330,-619"/>
<text text-anchor="start" x="1476" y="-632.6" font-family="Arial" font-size="24.00" fill="#cccccc">architecture</text>
</g>
<g id="clust4" class="cluster">
<title>cluster_group_specification</title>
<polygon fill="none" stroke="#cccccc" stroke-dasharray="5,2" points="58,-264 58,-594 1747,-594 1747,-264 58,-264"/>
<text text-anchor="start" x="836" y="-277.6" font-family="Arial" font-size="24.00" fill="#cccccc">specification</text>
</g>
<g id="clust5" class="cluster">
<title>cluster_group_test_evidence</title>
<polygon fill="none" stroke="#cccccc" stroke-dasharray="5,2" points="1326,-940 1326,-1284 1753,-1284 1753,-940 1326,-940"/>
<text text-anchor="start" x="1464.5" y="-953.6" font-family="Arial" font-size="24.00" fill="#cccccc">test_evidence</text>
</g>
<!-- 26 -->
<g id="26" class="node">
<title>26</title>
<polygon fill="#85bbf0" stroke="#5d82a8" points="1724,-889.5 1355,-889.5 1355,-706.5 1724,-706.5 1724,-889.5"/>
<text text-anchor="start" x="1397.5" y="-841.3" font-family="Arial" font-size="34.00" fill="#000000">Architecture model</text>
<text text-anchor="start" x="1450.5" y="-819.3" font-family="Arial" font-size="19.00" fill="#000000">[Component: Python]</text>
<text text-anchor="start" x="1384" y="-782.3" font-family="Arial" font-size="24.00" fill="#000000">The C4 model, read from the</text>
<text text-anchor="start" x="1405.5" y="-758.3" font-family="Arial" font-size="24.00" fill="#000000">workspace&#39;s export; view</text>
<text text-anchor="start" x="1486.5" y="-734.3" font-family="Arial" font-size="24.00" fill="#000000">freshness</text>
</g>
<!-- 10 -->
<g id="10" class="node">
<title>10</title>
<polygon fill="#85bbf0" stroke="#5d82a8" points="466,-539.5 83,-539.5 83,-380.5 466,-380.5 466,-539.5"/>
<text text-anchor="start" x="145.5" y="-491.3" font-family="Arial" font-size="34.00" fill="#000000">Pre&#45;commit hook</text>
<text text-anchor="start" x="195" y="-469.3" font-family="Arial" font-size="19.00" fill="#000000">[Component: shell]</text>
<text text-anchor="start" x="112" y="-432.3" font-family="Arial" font-size="24.00" fill="#000000">Runs the design gate before a</text>
<text text-anchor="start" x="235" y="-408.3" font-family="Arial" font-size="24.00" fill="#000000">commit</text>
</g>
<!-- 8 -->
<g id="8" class="node">
<title>8</title>
<polygon fill="#85bbf0" stroke="#5d82a8" points="996,-568.5 613,-568.5 613,-351.5 996,-351.5 996,-568.5"/>
<text text-anchor="start" x="658" y="-520.3" font-family="Arial" font-size="34.00" fill="#000000">Design and release</text>
<text text-anchor="start" x="762.5" y="-486.3" font-family="Arial" font-size="34.00" fill="#000000">gates</text>
<text text-anchor="start" x="715.5" y="-464.3" font-family="Arial" font-size="19.00" fill="#000000">[Component: Python]</text>
<text text-anchor="start" x="642" y="-427.3" font-family="Arial" font-size="24.00" fill="#000000">Design gate and duplicate ids;</text>
<text text-anchor="start" x="663" y="-403.3" font-family="Arial" font-size="24.00" fill="#000000">the release gate and trace</text>
<text text-anchor="start" x="666" y="-379.3" font-family="Arial" font-size="24.00" fill="#000000">until they move to release</text>
</g>
<!-- 10&#45;&gt;8 -->
<g id="81" class="edge">
<title>10&#45;&gt;8</title>
<path fill="none" stroke="#444444" stroke-dasharray="5,2" d="M466.12,-460C510.47,-460 557.82,-460 602.6,-460"/>
<polygon fill="#444444" stroke="#444444" points="602.72,-463.5 612.72,-460 602.72,-456.5 602.72,-463.5"/>
<text text-anchor="start" x="502" y="-466.8" font-family="Arial" font-size="24.00" fill="#444444">1. runs</text>
</g>
<!-- 6 -->
<g id="6" class="node">
<title>6</title>
<polygon fill="#85bbf0" stroke="#5d82a8" points="1722,-551.5 1357,-551.5 1357,-368.5 1722,-368.5 1722,-551.5"/>
<text text-anchor="start" x="1433.5" y="-503.3" font-family="Arial" font-size="34.00" fill="#000000">Record kernel</text>
<text text-anchor="start" x="1450.5" y="-481.3" font-family="Arial" font-size="19.00" fill="#000000">[Component: Python]</text>
<text text-anchor="start" x="1386" y="-444.3" font-family="Arial" font-size="24.00" fill="#000000">Design and V&amp;V frontmatter,</text>
<text text-anchor="start" x="1388.5" y="-420.3" font-family="Arial" font-size="24.00" fill="#000000">ids, git, the shared reconcile</text>
<text text-anchor="start" x="1499.5" y="-396.3" font-family="Arial" font-size="24.00" fill="#000000">helpers</text>
</g>
<!-- 8&#45;&gt;26 -->
<g id="126" class="edge">
<title>8&#45;&gt;26</title>
<path fill="none" stroke="#444444" stroke-dasharray="5,2" d="M996.17,-547.92C1103.65,-597.48 1237.56,-659.23 1345.42,-708.97"/>
<polygon fill="#444444" stroke="#444444" points="1344.24,-712.28 1354.79,-713.29 1347.17,-705.92 1344.24,-712.28"/>
<text text-anchor="start" x="1047.5" y="-720.8" font-family="Arial" font-size="24.00" fill="#444444">3. checks the views are</text>
<text text-anchor="start" x="1121.5" y="-694.8" font-family="Arial" font-size="24.00" fill="#444444">fresh with</text>
</g>
<!-- 8&#45;&gt;6 -->
<g id="76" class="edge">
<title>8&#45;&gt;6</title>
<path fill="none" stroke="#444444" stroke-dasharray="5,2" d="M996.17,-460C1104.15,-460 1238.82,-460 1346.94,-460"/>
<polygon fill="#444444" stroke="#444444" points="1346.99,-463.5 1356.99,-460 1346.99,-456.5 1346.99,-463.5"/>
<text text-anchor="start" x="1070" y="-518.8" font-family="Arial" font-size="24.00" fill="#444444">2. reads the design</text>
<text text-anchor="start" x="1032" y="-492.8" font-family="Arial" font-size="24.00" fill="#444444">documents and the review</text>
<text text-anchor="start" x="1152" y="-466.8" font-family="Arial" font-size="24.00" fill="#444444">with</text>
</g>
<!-- 21 -->
<g id="21" class="node">
<title>21</title>
<polygon fill="#85bbf0" stroke="#5d82a8" points="1728,-1258.5 1351,-1258.5 1351,-1027.5 1728,-1027.5 1728,-1258.5"/>
<text text-anchor="start" x="1442.5" y="-1210.3" font-family="Arial" font-size="34.00" fill="#000000">Allure reader</text>
<text text-anchor="start" x="1450.5" y="-1188.3" font-family="Arial" font-size="19.00" fill="#000000">[Component: Python]</text>
<text text-anchor="start" x="1396.5" y="-1151.3" font-family="Arial" font-size="24.00" fill="#000000">Allure results into test runs</text>
<text text-anchor="start" x="1380" y="-1127.3" font-family="Arial" font-size="24.00" fill="#000000">and a status per design input;</text>
<text text-anchor="start" x="1387.5" y="-1103.3" font-family="Arial" font-size="24.00" fill="#000000">run labels and facts; the test</text>
<text text-anchor="start" x="1389" y="-1079.3" font-family="Arial" font-size="24.00" fill="#000000">tags in test sources until the</text>
<text text-anchor="start" x="1518" y="-1055.3" font-family="Arial" font-size="24.00" fill="#000000">split</text>
</g>
<!-- 8&#45;&gt;21 -->
<g id="125" class="edge">
<title>8&#45;&gt;21</title>
<path fill="none" stroke="#444444" stroke-dasharray="5,2" d="M877.36,-568.76C918.99,-627.88 974.45,-700.45 1032,-758 1130.09,-856.09 1253.84,-950.6 1354.47,-1021.44"/>
<polygon fill="#444444" stroke="#444444" points="1352.71,-1024.47 1362.9,-1027.35 1356.73,-1018.74 1352.71,-1024.47"/>
<text text-anchor="start" x="1040" y="-995.8" font-family="Arial" font-size="24.00" fill="#444444">4. finds tagged tests with</text>
</g>
</g>
</svg>
